<?xml version="1.0"?>
<svg width="512" height="512" xmlns="http://www.w3.org/2000/svg">
 <g class="layer">
  <title>Layer 1</title>
  <path d="m295.75,-0.44c1.04,0.01 1.04,0.01 2.11,0.01c31.04,0.24 58.29,11.53 81.14,32.43c0.8,0.71 1.6,1.43 2.42,2.17c19.68,18.56 33.28,47.06 34.76,74.07c0.57,31 -5.03,55.21 -21.18,81.76c1.16,0.21 2.31,0.42 3.5,0.63c6.58,1.48 12.81,3.93 19.11,6.3c4.14,1.56 8.28,3.1 12.43,4.64c0.91,0.34 1.83,0.68 2.77,1.03c8.07,3 16.17,5.93 24.28,8.85c1.31,0.48 2.62,0.95 3.93,1.42c5.22,1.89 10.45,3.77 15.68,5.65c3.69,1.32 7.38,2.65 11.07,3.99c1.1,0.39 2.2,0.78 3.34,1.19c17.47,6.31 17.47,6.31 20.89,10.3c1.4,5.22 -0.05,9.76 -2.44,14.44c-8.34,14 -20.81,24.56 -36.68,28.73c-4.57,0.98 -8.76,0.72 -13.4,0.39c-8.5,-0.82 -8.5,-0.82 -16.41,1.61c-3.25,3.1 -5.26,6.73 -7.07,10.83c1.36,0.18 1.36,0.18 2.75,0.36c7.12,1.4 12.17,5.81 16.25,11.64c3.79,6.66 4.06,13.56 2.3,20.94c-1,3.12 -2.09,6.18 -3.24,9.25c-0.4,1.11 -0.8,2.22 -1.22,3.37c-0.84,2.32 -1.69,4.64 -2.55,6.95c-1.27,3.43 -2.51,6.87 -3.75,10.3c-0.78,2.15 -1.57,4.29 -2.35,6.44c-0.36,0.99 -0.72,1.98 -1.09,3.01c-2.48,6.63 -4.99,12.33 -10.54,16.99c-0.55,0.48 -1.11,0.96 -1.68,1.45c-6.13,4.23 -12.71,3.97 -19.88,3.3c-4.46,-1.05 -8.66,-2.56 -12.94,-4.19c-1.12,-0.41 -2.25,-0.82 -3.41,-1.24c-2.22,-0.81 -4.43,-1.63 -6.64,-2.45c-3.26,-1.22 -6.54,-2.39 -9.82,-3.54c-2.4,-0.85 -4.79,-1.72 -7.19,-2.58c-0.37,0.83 -0.37,0.83 -0.75,1.69c-4.47,8.25 -11.46,14.18 -20.25,17.31c-14.79,3.53 -28.23,-2.98 -41.96,-7.99c-1.28,-0.46 -2.56,-0.93 -3.84,-1.39c-3.33,-1.21 -6.65,-2.42 -9.98,-3.63c-3.41,-1.24 -6.82,-2.48 -10.24,-3.72c-6.66,-2.42 -13.32,-4.85 -19.98,-7.27c-0.46,0.89 -0.92,1.78 -1.39,2.69c-0.61,1.17 -1.22,2.34 -1.86,3.55c-0.6,1.15 -1.2,2.31 -1.82,3.5c-3.22,5.43 -7.17,8.85 -12.74,11.7c-8.37,1.47 -15.34,0.69 -23.19,-2.44c-2.82,6.15 -5.36,12.36 -7.71,18.7c-0.33,0.89 -0.66,1.78 -1,2.69c-0.68,1.86 -1.37,3.72 -2.06,5.58c-1.05,2.85 -2.11,5.7 -3.18,8.54c-0.67,1.82 -1.34,3.63 -2.01,5.44c-0.32,0.85 -0.64,1.7 -0.97,2.57c-0.29,0.8 -0.57,1.59 -0.87,2.4c-0.26,0.69 -0.51,1.39 -0.78,2.1c-0.77,3.64 0.85,6.76 2.11,10.15c3.15,9.39 3.01,21.11 -0.47,30.39c-5.47,10.99 -13.97,17.74 -24.94,22.75c-12.33,2.71 -24.18,2.05 -35.18,-4.62c-3.12,-2.07 -4.91,-3.65 -7.05,-6.77c-2.13,-2.57 -3.51,-3.37 -6.83,-3.68c-1.57,-0.04 -3.14,-0.04 -4.71,-0.02c-0.85,-0.01 -1.71,-0.02 -2.6,-0.03c-2.83,-0.03 -5.66,-0.01 -8.49,0c-1.96,-0.01 -3.93,-0.02 -5.9,-0.04c-5.16,-0.03 -10.33,-0.04 -15.5,-0.03c-5.27,0 -10.55,-0.03 -15.82,-0.06c-10.35,-0.05 -20.69,-0.07 -31.04,-0.06c0.02,1.03 0.03,2.06 0.05,3.12c0.02,1.37 0.03,2.73 0.04,4.1c0.02,0.67 0.03,1.35 0.04,2.05c0.05,6.84 -1.33,10.8 -6,15.69c-7.79,7.21 -14.36,7.4 -24.69,7.41c-1.23,0.03 -2.47,0.05 -3.73,0.08c-1.19,0 -2.37,0 -3.59,0.01c-1.08,0.01 -2.16,0.01 -3.27,0.02c-3.74,-0.63 -4.63,-1.39 -6.85,-4.48c-0.61,-3.31 -0.55,-6.59 -0.52,-9.94c0,-1.01 -0.01,-2.02 -0.02,-3.06c-0.02,-3.33 0,-6.67 0.01,-10c0,-2.32 -0.01,-4.64 -0.01,-6.95c-0.01,-4.86 0,-9.71 0.02,-14.57c0.02,-6.23 0.01,-12.45 -0.02,-18.68c-0.01,-4.78 -0.01,-9.57 0,-14.35c0.01,-2.3 0,-4.59 -0.01,-6.89c-0.01,-3.21 0.01,-6.42 0.03,-9.62c-0.01,-1.43 -0.01,-1.43 -0.02,-2.89c0.08,-6.41 0.08,-6.41 2.4,-9.64c2.84,-1.87 4.76,-1.93 8.16,-1.94c1.16,-0.01 2.33,-0.01 3.54,-0.02c1.22,0.02 2.43,0.03 3.69,0.05c1.2,-0.02 2.41,-0.03 3.64,-0.05c8.3,0.04 14.05,0.99 20.35,6.51c0.54,0.65 1.08,1.3 1.63,1.98c0.56,0.64 1.11,1.29 1.68,1.96c3.33,4.82 3.72,9.17 3.57,14.91c0,0.69 -0.01,1.39 -0.02,2.1c-0.03,1.7 -0.06,3.39 -0.1,5.09c11.39,0.01 22.77,-0.02 34.16,-0.08c5.29,-0.03 10.58,-0.05 15.87,-0.04c5.1,0 10.2,-0.02 15.3,-0.06c1.95,-0.01 3.9,-0.01 5.84,0c2.73,0.01 5.46,-0.02 8.18,-0.05c1.21,0.02 1.21,0.02 2.44,0.04c4.23,-0.07 4.23,-0.07 7.77,-2.14c1.24,-1.49 2.35,-3.08 3.44,-4.67c2.28,-1.83 2.28,-1.83 4.5,-3.25c0.73,-0.48 1.46,-0.96 2.22,-1.46c3.48,-1.97 6.25,-3.29 10.28,-3.29c0.26,-1.28 0.52,-2.57 0.78,-3.89c1.15,-5.16 2.85,-10.01 4.7,-14.96c0.49,-1.35 0.49,-1.35 1,-2.72c1.04,-2.83 2.09,-5.66 3.14,-8.49c0.72,-1.94 1.43,-3.87 2.15,-5.81c1.73,-4.71 3.48,-9.42 5.23,-14.13c-0.97,-0.46 -1.93,-0.92 -2.93,-1.39c-1.28,-0.62 -2.56,-1.24 -3.84,-1.85c-0.95,-0.45 -0.95,-0.45 -1.92,-0.91c-6.4,-3.12 -9.44,-6.94 -12.43,-13.2c-1.03,-3.11 -1.18,-5.7 -1.19,-8.96c-0.03,-1.61 -0.03,-1.61 -0.05,-3.24c0.31,-2.98 0.81,-4.93 1.88,-7.67c0.28,-0.71 0.55,-1.42 0.84,-2.15c0.21,-0.54 0.42,-1.08 0.64,-1.63c-14,-5.57 -28.15,-10.72 -42.32,-15.82c-6.44,-2.32 -12.87,-4.65 -19.31,-6.98c-10.02,-3.63 -10.02,-3.63 -20.05,-7.25c-3.83,-1.38 -7.65,-2.77 -11.47,-4.17c-1.9,-0.69 -3.81,-1.37 -5.71,-2.05c-11.33,-4.19 -19.8,-10.12 -25.02,-21.29c-5.5,-17.76 3.94,-35.37 10.29,-51.65c0.38,-0.96 0.75,-1.91 1.13,-2.9c0.71,-1.81 1.43,-3.6 2.16,-5.39c0.48,-1.21 0.48,-1.21 0.96,-2.43c0.43,-1.04 0.43,-1.04 0.86,-2.1c0.77,-3.16 -0.11,-5.25 -1.68,-8.01c-0.44,-0.67 -0.88,-1.34 -1.34,-2.02c-4.07,-6.17 -4.37,-11.68 -3.5,-18.94c1.44,-5.73 3.68,-11.21 5.78,-16.72c1.42,-3.82 2.77,-7.67 4.11,-11.52c0.78,-2.21 1.56,-4.42 2.34,-6.63c0.51,-1.44 1.01,-2.89 1.51,-4.34c5.71,-16.46 13.89,-30.79 29.61,-39.55c8.77,-4.12 17.58,-6.36 27.27,-6.49c1.11,-0.03 2.22,-0.05 3.36,-0.08c12.91,0.64 25.62,6.6 37.64,10.95c1.96,0.7 3.91,1.4 5.86,2.1c7.14,2.57 7.14,2.57 10.63,3.83c0.7,0.26 1.41,0.52 2.14,0.78c1.75,0.67 1.75,0.67 3.75,1.67c0.12,-0.62 0.24,-1.23 0.36,-1.86c6.89,-34.64 21.38,-66.29 51.62,-86.61c21.1,-13.73 43.58,-21.21 68.77,-20.97z" fill="#010101" id="svg_1" transform="matrix(1 0 0 1 0 0)"/>
  <path d="m322,19c1.06,0.24 2.11,0.49 3.2,0.74c14.18,3.75 27.93,11.49 38.8,21.26c0.98,0.77 0.98,0.77 1.98,1.56c19,15.23 31.06,40.56 34.02,64.44c2.23,29.81 -5.5,58.14 -25,81c-0.78,1.01 -0.78,1.01 -1.58,2.03c-14.2,17.96 -39.16,29.71 -61.42,33.22c-23.19,2.6 -44.32,-0.1 -65,-11.25c-1.03,-0.53 -2.07,-1.07 -3.13,-1.62c-11.06,-6.02 -21.18,-14.37 -28.87,-24.38c-0.82,-1.05 -0.82,-1.05 -1.66,-2.12c-17.05,-23.03 -24.95,-51.17 -20.94,-79.75c4.89,-26.89 18.57,-50.7 40.6,-67.13c1.2,-0.92 1.2,-0.92 2.43,-1.86c10.11,-7.47 21.48,-12.76 33.57,-16.14c1.51,-0.45 1.51,-0.45 3.05,-0.91c16.22,-4.19 33.82,-3.16 49.95,0.91z" fill="#e5eef8" id="svg_2"/>
  <path d="m64,206c3.14,0.58 6.06,1.29 9.04,2.4c1.16,0.43 1.16,0.43 2.34,0.87c0.83,0.31 1.66,0.63 2.52,0.95c0.89,0.33 1.77,0.66 2.69,1c1.92,0.71 3.84,1.43 5.76,2.15c5.17,1.93 10.35,3.85 15.53,5.77c1.61,0.6 1.61,0.6 3.25,1.21c13.66,5.07 27.37,10 41.08,14.94c1.86,0.67 3.71,1.33 5.56,2c0.88,0.32 1.77,0.64 2.67,0.96c6.78,2.45 13.52,4.97 20.25,7.53c17.4,6.42 34.45,4.71 52.38,1.46c2.76,-0.5 5.52,-0.98 8.29,-1.46c7.47,-1.28 14.93,-2.61 22.35,-4.14c12.37,-2.5 24.2,-2.84 36.77,-2.64c11.41,0.16 21.81,-1.1 32.89,-3.83c6.45,-0.76 12.32,2.12 18.25,4.34c1.34,0.49 2.67,0.97 4.01,1.46c3.54,1.29 7.08,2.6 10.62,3.91c3.64,1.35 7.29,2.67 10.93,4c5.7,2.08 11.41,4.18 17.1,6.28c6.42,2.37 12.85,4.71 19.29,7.04c0.8,0.29 1.6,0.58 2.43,0.88c1.48,0.54 2.96,1.07 4.44,1.61c4.85,1.76 9.71,3.53 14.56,5.31c-1.81,3.81 -4.19,6.97 -6.81,10.25c-0.48,0.61 -0.97,1.22 -1.46,1.84c-4.27,5.38 -8.62,10.7 -12.96,16.02c-4.17,5.11 -8.19,10.32 -12.19,15.56c-2.89,3.76 -5.89,7.42 -8.89,11.08c-4.49,5.48 -8.85,11.04 -13.13,16.69c-4.57,6.02 -9.22,11.95 -14,17.81c-0.56,0.7 -1.13,1.41 -1.72,2.13c-9.23,11.23 -9.23,11.23 -14.67,11.82c-6.04,0.12 -10.91,-1.05 -16.56,-3.09c-0.9,-0.31 -1.8,-0.62 -2.73,-0.94c-2.97,-1.04 -5.92,-2.1 -8.88,-3.17c-1.02,-0.37 -2.04,-0.74 -3.09,-1.11c-6.67,-2.43 -13.33,-4.89 -19.99,-7.36c-6.29,-2.34 -12.58,-4.66 -18.87,-6.99c-0.64,-0.23 -1.27,-0.47 -1.93,-0.71c-12.68,-4.68 -25.39,-9.27 -38.12,-13.83c-17.98,-6.44 -35.9,-13 -53.81,-19.62c-19.26,-7.13 -38.57,-14.12 -57.93,-20.97c-14.06,-4.97 -28.09,-10.03 -42.07,-15.23c-3.16,-1.17 -6.33,-2.31 -9.51,-3.45c-1.91,-0.7 -3.83,-1.4 -5.74,-2.1c-1.27,-0.45 -1.27,-0.45 -2.57,-0.91c-5.87,-2.18 -9.23,-5.06 -13.18,-9.97c-3.37,-7.79 -0.34,-15.27 2.53,-22.69c0.38,-1.01 0.75,-2.02 1.14,-3.06c1.2,-3.19 2.42,-6.38 3.64,-9.56c0.82,-2.18 1.64,-4.35 2.46,-6.53c2,-5.31 4.01,-10.61 6.04,-15.91z" fill="#E5EEF8" id="svg_3" transform="matrix(1 0 0 1 0 0)"/>
  <path d="m147.74,116.21c3.17,1.22 6.36,2.4 9.55,3.59c4.62,1.73 9.24,3.47 13.85,5.25c0.91,0.35 1.83,0.7 2.78,1.07c2.08,0.88 2.08,0.88 3.08,1.88c0.31,2 0.62,4.01 0.9,6.03c4.28,30.98 18.81,60.7 44.1,79.97c10.42,7.55 10.42,7.55 22,13c0,0.66 0,1.32 0,2c-4.67,0.87 -9.35,1.72 -14.02,2.56c-1.58,0.29 -3.17,0.58 -4.75,0.87c-16.48,3.09 -31.13,4.37 -47.23,-1.43c-0.78,-0.28 -1.56,-0.55 -2.36,-0.84c-5.67,-2.01 -11.32,-4.09 -16.96,-6.19c-5.4,-2.01 -10.81,-4.01 -16.23,-6.01c-1.11,-0.41 -2.22,-0.82 -3.36,-1.24c-12.71,-4.7 -25.46,-9.3 -38.22,-13.88c-5.39,-1.94 -10.78,-3.89 -16.17,-5.86c-1.87,-0.68 -3.74,-1.35 -5.62,-2.02c-2.9,-1.03 -5.8,-2.09 -8.69,-3.14c-1.33,-0.47 -1.33,-0.47 -2.68,-0.94c-4.74,-1.75 -8.38,-3.11 -10.71,-7.88c0.05,-6.57 2.31,-12.38 4.57,-18.5c0.36,-0.98 0.72,-1.97 1.09,-2.98c0.76,-2.08 1.52,-4.16 2.29,-6.23c1.16,-3.15 2.3,-6.3 3.44,-9.45c0.74,-2.03 1.49,-4.06 2.24,-6.09c0.33,-0.92 0.67,-1.85 1.01,-2.81c4.73,-12.56 12.66,-22.4 24.8,-28.44c17.98,-5.77 34.57,1.22 51.3,7.71z" fill="#1e3a8a" id="svg_4" transform="matrix(1 0 0 1 0 0)"/>
  <path d="m384.5,203.17c4.69,1.11 9.12,2.73 13.64,4.41c1.51,0.56 1.51,0.56 3.04,1.12c3.32,1.22 6.64,2.45 9.95,3.67c2.3,0.85 4.61,1.7 6.91,2.55c4.83,1.77 9.66,3.55 14.49,5.33c11.08,4.08 22.16,8.12 33.24,12.16c5.56,2.04 11.13,4.07 16.69,6.1c1.86,0.68 3.73,1.36 5.6,2.05c1.31,0.48 2.63,0.96 3.94,1.44c-1.31,5.73 -4.57,9.23 -9.3,12.68c-9.77,6.11 -19.08,9.04 -30.7,7.32c-3.12,-0.79 -6.15,-1.82 -9.19,-2.88c-0.9,-0.31 -1.8,-0.62 -2.72,-0.93c-12.65,-4.36 -25.17,-9.04 -37.71,-13.69c-2.49,-0.92 -4.98,-1.84 -7.47,-2.76c-3.63,-1.34 -7.25,-2.68 -10.88,-4.03c-5.31,-1.97 -10.63,-3.93 -15.96,-5.86c-0.89,-0.32 -1.78,-0.64 -2.7,-0.97c-1.62,-0.59 -3.25,-1.17 -4.88,-1.75c-5.26,-1.91 -5.26,-1.91 -7.49,-4.13c0.89,-0.55 1.77,-1.09 2.68,-1.65c13.15,-8.1 13.15,-8.1 24.25,-18.68c2.07,-1.67 2.07,-1.67 4.57,-1.5z" fill="#40599e" id="svg_5"/>
  <path d="m0,0c0.66,0.17 1.31,0.33 1.99,0.5c22.29,5.87 40.76,17.25 57.01,33.5c0.5,4.34 0.44,6.36 -2.06,10c-2.94,2 -2.94,2 -6.13,2.38c-4.64,-1.07 -7.55,-4.59 -10.9,-7.77c-12.62,-11.3 -28.49,-18.7 -44.91,-22.61c-0.8,-0.2 -1.6,-0.41 -2.43,-0.62c-26.7,-5.64 -54.64,0.26 -77.38,14.93c-4.9,3.31 -9.37,7.08 -13.66,11.15c-3.7,3.36 -6.54,4.45 -11.53,4.54c-3.57,-2.43 -4.75,-4.08 -5.88,-8.25c2.4,-10.27 15.29,-17.4 23.88,-22.75c9.83,-5.79 19.89,-11.18 31,-14c0.64,-0.18 1.28,-0.36 1.95,-0.54c19.19,-5.22 39.75,-5.37 59.05,-0.46z" fill="#020304" id="svg_6" transform="translate(324,59)"/>
  <path d="m0,0c1.14,0.35 2.27,0.7 3.45,1.06c11.9,4.13 25.63,11.97 33.55,21.94c1.12,3.28 0.83,4.48 0,8c-1.56,2.5 -1.56,2.5 -4,4c-4.02,0.42 -6.23,0.5 -9.67,-1.72c-0.83,-0.77 -1.66,-1.55 -2.52,-2.34c-17.02,-14.76 -36.67,-19.47 -58.81,-17.94c-14.15,2.25 -28.01,9.16 -38.18,19.21c-2.56,2.51 -3.55,2.77 -7.2,3.1c-3.62,-0.31 -3.62,-0.31 -6.06,-1.81c-1.72,-2.75 -2.57,-4.95 -2.37,-8.23c3.48,-9.74 18,-16.78 26.81,-21.27c4.26,-1.97 8.53,-3.58 13,-5c0.97,-0.32 1.93,-0.64 2.93,-0.96c16,-4.51 33.38,-2.99 49.07,1.96z" fill="#020304" id="svg_7" transform="translate(323,92)"/>
  <path d="m147.74,116.21c3.17,1.22 6.36,2.4 9.55,3.59c4.62,1.73 9.24,3.47 13.85,5.25c0.91,0.35 1.83,0.7 2.78,1.07c2.08,0.88 2.08,0.88 3.08,1.88c0.23,2.86 0.42,5.7 0.56,8.56c0.04,0.81 0.09,1.61 0.13,2.44c0.11,2 0.21,4 0.31,6c-7.75,-2.2 -15.34,-4.82 -22.92,-7.53c-2.06,-0.74 -4.12,-1.47 -6.17,-2.2c-5.94,-2.1 -11.87,-4.23 -17.74,-6.52c-11.21,-4.36 -22.3,-8.26 -34.17,-3.75c-11.03,4.97 -15.15,12.34 -19.38,23.18c-0.9,2.39 -1.78,4.79 -2.66,7.19c-1.03,2.81 -2.09,5.61 -3.15,8.4c-0.73,1.95 -1.46,3.9 -2.19,5.85c-0.34,0.91 -0.69,1.83 -1.05,2.76c-1.93,5.26 -3.12,10.03 -3.57,15.62c-2.91,-0.32 -4.61,-0.68 -6.88,-2.57c-2.62,-5.67 0.42,-12.55 2.4,-18.1c0.35,-0.93 0.69,-1.86 1.05,-2.83c0.36,-0.98 0.72,-1.97 1.09,-2.98c0.76,-2.08 1.52,-4.16 2.29,-6.23c1.16,-3.15 2.3,-6.3 3.44,-9.45c0.74,-2.03 1.49,-4.06 2.24,-6.09c0.33,-0.92 0.67,-1.85 1.01,-2.81c4.73,-12.56 12.66,-22.4 24.8,-28.44c17.98,-5.77 34.57,1.22 51.3,7.71z" fill="#40599e" id="svg_8" transform="matrix(1 0 0 1 0 0)"/>
  <path d="m424,303c11.04,3.08 11.04,3.08 16,6c2.42,4.84 1.12,10.19 -0.5,15.08c-0.68,1.89 -1.37,3.78 -2.08,5.66c-0.37,1 -0.73,2 -1.11,3.04c-0.78,2.1 -1.56,4.21 -2.35,6.31c-1.21,3.22 -2.39,6.45 -3.57,9.69c-0.76,2.05 -1.52,4.1 -2.28,6.15c-0.35,0.96 -0.7,1.93 -1.06,2.92c-0.34,0.9 -0.68,1.79 -1.04,2.71c-0.29,0.79 -0.58,1.58 -0.88,2.39c-1.36,2.47 -2.73,3.59 -5.13,5.05c-4.89,0.59 -8.59,-0.69 -13.15,-2.41c-0.66,-0.24 -1.31,-0.48 -1.99,-0.74c-2.08,-0.77 -4.16,-1.56 -6.24,-2.35c-1.41,-0.53 -2.83,-1.06 -4.25,-1.59c-3.46,-1.29 -6.92,-2.6 -10.37,-3.91c0,-4.17 0.02,-4.52 2.49,-7.43c0.54,-0.65 1.07,-1.29 1.62,-1.95c0.58,-0.68 1.17,-1.36 1.76,-2.06c1.21,-1.44 2.42,-2.89 3.62,-4.34c0.6,-0.71 1.2,-1.43 1.82,-2.17c2.3,-2.8 4.5,-5.66 6.69,-8.55c5.38,-7.06 10.99,-13.93 16.61,-20.8c1.81,-2.22 3.6,-4.46 5.39,-6.7z" fill="#1e3a8a" id="svg_9" transform="matrix(1 0 0 1 0 0)"/>
  <path d="m373,211c0.66,0.33 1.32,0.66 2,1c-0.99,0.99 -1.98,1.98 -3,3c12.3,4.86 24.67,9.47 37.11,13.94c4.07,1.46 8.13,2.93 12.2,4.4c3.15,1.13 6.29,2.27 9.43,3.4c1.04,0.38 2.07,0.75 3.14,1.13c2.07,0.75 4.14,1.5 6.21,2.24c5.84,2.11 11.67,4.22 17.51,6.34c1.8,0.66 3.61,1.31 5.41,1.96c2.5,0.9 4.99,1.8 7.48,2.71c0.74,0.26 1.47,0.53 2.23,0.8c5.05,1.85 5.05,1.85 7.28,4.08c-1.21,0.63 -2.41,1.25 -3.62,1.88c-0.68,0.34 -1.35,0.69 -2.04,1.05c-10.83,4.96 -20.64,4.01 -31.55,0.19c-0.89,-0.31 -1.79,-0.61 -2.72,-0.93c-12.63,-4.36 -25.16,-9.04 -37.69,-13.69c-2.49,-0.92 -4.98,-1.84 -7.47,-2.76c-3.63,-1.34 -7.26,-2.68 -10.88,-4.03c-5.31,-1.97 -10.63,-3.93 -15.96,-5.85c-0.89,-0.33 -1.78,-0.65 -2.7,-0.98c-1.63,-0.59 -3.25,-1.17 -4.88,-1.75c-5.27,-1.91 -5.27,-1.91 -7.49,-4.13c0.94,-0.59 1.88,-1.18 2.85,-1.79c1.26,-0.8 2.52,-1.6 3.77,-2.4c0.62,-0.38 1.24,-0.77 1.88,-1.17c4.1,-2.62 7.82,-5.45 11.5,-8.64z" fill="#1e3a8a" id="svg_10" transform="matrix(1 0 0 1 0 0)"/>
  <path d="m178.81,434c6.06,3.88 10.96,9.09 13.19,16c1.09,8.42 -0.41,15.22 -5.51,22.01c-4.83,5.36 -9.93,7.42 -17.01,8.3c-5.99,0.3 -10.63,-0.7 -15.48,-4.31c-6.14,-5.8 -10.09,-11.27 -10.44,-19.87c0.22,-6.98 1.71,-11.27 6.53,-16.33c8.18,-7.6 18.03,-11.25 28.72,-5.8z" fill="#1e3a8a" id="svg_11" transform="matrix(1 0 0 1 0 0)"/>
  <path d="m0,0c6.51,3.68 11.85,8.79 13.95,16.1c1.03,7.49 -0.22,13.88 -4.45,20.13c-4.71,5.93 -9.75,9.21 -17.29,10.25c-6.25,0.27 -11.22,-0.57 -16.26,-4.38c-6.27,-5.81 -10.06,-11.74 -10.44,-20.44c0.23,-6.67 1.93,-10.92 6.53,-15.76c8.24,-7.65 17.18,-10.57 27.96,-5.9z" fill="#020203" id="svg_12" transform="translate(306.0546875,153.8984375)"/>
  <path d="m0,0c2.5,2.31 2.5,2.31 4.5,5.31c-0.18,3.34 -0.39,5.98 -2.12,8.88c-3.06,1.83 -5.37,2.77 -8.88,2.12c-2.88,-1.79 -5.48,-3.82 -8.15,-5.92c-9.18,-6.69 -19.76,-8.1 -30.85,-7.08c-7.73,2.12 -13.87,5.96 -20,11c-3.49,2.33 -4.89,2.51 -9,2c-3.21,-2.17 -3.91,-3.72 -5.06,-7.43c0.06,-3.57 0.06,-3.57 1.93,-6.07c1.03,-0.85 2.07,-1.68 3.13,-2.5c0.64,-0.55 1.29,-1.11 1.95,-1.69c21.76,-18.15 51.03,-15.76 72.55,1.38z" fill="#030405" id="svg_13" transform="translate(333.5,133.6875)"/>
  <path d="m48,448c26.4,0 52.8,0 80,0c0.5,7.92 0.5,7.92 1,16c-26.73,0 -53.46,0 -81,0c0,-5.28 0,-10.56 0,-16z" fill="#e5eef8" id="svg_14" transform="matrix(1 0 0 1 0 0)"/>
  <path d="m172,331c7.67,1.47 14.73,3.95 22.03,6.68c1.88,0.7 3.76,1.4 5.65,2.09c2.61,0.98 5.22,1.95 7.84,2.93c4.57,1.7 9.14,3.4 13.72,5.1c2.43,0.9 4.85,1.8 7.28,2.71c6.13,2.28 12.26,4.47 18.48,6.49c-0.54,4.56 -1.69,8.03 -4,12c-5.29,2.65 -10.86,0.9 -16.15,-0.86c-2.39,-0.85 -4.77,-1.72 -7.14,-2.59c-1.28,-0.47 -2.56,-0.93 -3.83,-1.39c-2.67,-0.96 -5.33,-1.93 -7.99,-2.91c-3.4,-1.25 -6.8,-2.48 -10.21,-3.71c-2.63,-0.95 -5.26,-1.9 -7.89,-2.86c-1.86,-0.68 -3.72,-1.35 -5.59,-2.03c-1.13,-0.42 -2.27,-0.84 -3.44,-1.27c-0.99,-0.36 -1.99,-0.73 -3.01,-1.1c-3.05,-1.42 -5.3,-2.99 -7.75,-5.28c-1.73,-5.72 -0.6,-8.91 2,-14z" fill="#1e3a8a" id="svg_15" transform="matrix(1 0 0 1 0 0)"/>
  <path d="m16,416c11.42,0 11.42,0 15,3c1.43,2.85 1.14,5.29 1.16,8.48c0.01,0.67 0.01,1.33 0.02,2.02c0.01,2.2 0.02,4.41 0.02,6.61c0.01,1.54 0.01,3.07 0.02,4.6c0.01,3.22 0.02,6.43 0.02,9.65c0.01,4.11 0.03,8.23 0.06,12.34c0.02,3.17 0.02,6.34 0.02,9.5c0.01,1.52 0.01,3.04 0.03,4.55c0.01,2.13 0.01,4.25 0.01,6.38c0,1.21 0,2.42 0.01,3.66c-0.41,3.54 -1.19,5.42 -3.37,8.21c-3,1 -3,1 -13,1c0,-26.4 0,-52.8 0,-80z" fill="#1e3a8a" id="svg_16" transform="matrix(1 0 0 1 0 0)"/>
  <path d="m191,372c1.43,0.29 2.85,0.6 4.28,0.9c0.79,0.17 1.59,0.33 2.4,0.5c3.02,0.78 5.61,2.07 8.32,3.6c-0.78,4.86 -2.42,9.36 -4.05,13.98c-0.46,1.29 -0.46,1.29 -0.92,2.6c-0.64,1.8 -1.28,3.6 -1.92,5.4c-0.99,2.77 -1.95,5.54 -2.92,8.31c-0.62,1.75 -1.24,3.51 -1.87,5.26c-0.29,0.83 -0.57,1.66 -0.87,2.52c-0.73,2.01 -1.58,3.98 -2.45,5.93c-4.06,1.35 -5.77,0.15 -9.69,-1.44c-1.18,-0.47 -2.36,-0.94 -3.57,-1.43c-0.91,-0.37 -1.81,-0.75 -2.74,-1.13c2.61,-9.59 6.2,-18.83 9.69,-28.12c0.61,-1.65 1.22,-3.29 1.84,-4.93c1.48,-3.98 2.98,-7.97 4.47,-11.95z" fill="#e5eef8" id="svg_17" transform="matrix(1 0 0 1 0 0)"/>
  <path d="m0,0c3.4,2.44 4.78,3.94 5.63,8.06c-0.72,4.52 -2.21,8.11 -4.07,12.26c-1.21,2.85 -2.29,5.66 -3.31,8.57c-0.3,0.86 -0.6,1.71 -0.91,2.59c-0.59,1.7 -1.18,3.4 -1.75,5.11c-2.65,7.5 -2.65,7.5 -6.59,9.41c-3.5,0.5 -3.5,0.5 -7,0c-2.5,-1.94 -2.5,-1.94 -4,-5c0.15,-7.82 2.77,-14.68 5.56,-21.9c0.76,-1.99 1.49,-3.98 2.23,-5.97c0.48,-1.27 0.96,-2.54 1.45,-3.81c0.43,-1.14 0.87,-2.28 1.31,-3.46c2.62,-5.16 5.71,-6.8 11.45,-5.86z" fill="#050202" id="svg_18" transform="translate(110,128)"/>
  <path d="m0,0c2.94,2 2.94,2 5,5c-0.45,7.54 -2.95,14.22 -5.56,21.26c-0.76,2.06 -1.49,4.13 -2.23,6.2c-0.48,1.32 -0.96,2.65 -1.45,3.97c-0.43,1.19 -0.87,2.38 -1.31,3.6c-1.5,3.07 -2.5,4.33 -5.45,5.97c-2.94,0.5 -2.94,0.5 -6,0c-2.88,-2.12 -2.88,-2.12 -5,-5c-0.52,-4.93 0.76,-8.94 2.48,-13.48c0.26,-0.7 0.52,-1.39 0.78,-2.11c0.55,-1.46 1.09,-2.91 1.65,-4.37c0.84,-2.23 1.66,-4.46 2.47,-6.69c0.54,-1.43 1.07,-2.85 1.6,-4.27c0.25,-0.66 0.49,-1.33 0.74,-2.02c2.41,-6.25 5.37,-9.19 12.28,-8.06z" fill="#050202" id="svg_19" transform="translate(140,139)"/>
  <path d="m0,0c4.07,0.85 5.54,2.3 8,5.63c0.52,4.92 -0.76,8.93 -2.48,13.48c-0.26,0.69 -0.52,1.38 -0.78,2.1c-0.55,1.46 -1.09,2.92 -1.65,4.37c-0.84,2.23 -1.66,4.46 -2.47,6.7c-0.54,1.42 -1.07,2.84 -1.6,4.26c-0.25,0.67 -0.49,1.33 -0.74,2.02c-1.45,3.76 -2.69,6.11 -6.28,8.07c-2.94,0.5 -2.94,0.5 -6,0c-2.88,-2.13 -2.88,-2.13 -5,-5c-0.67,-6.79 2.11,-12.76 4.43,-19c0.75,-2.06 1.49,-4.13 2.22,-6.19c0.48,-1.33 0.97,-2.65 1.46,-3.98c0.43,-1.19 0.86,-2.38 1.31,-3.61c2.2,-4.5 4.54,-7.8 9.58,-8.85z" fill="#050202" id="svg_20" transform="translate(167,149.375)"/>
  <path d="m297.13,167.94c2.67,0.54 3.76,0.96 5.88,2.75c1.34,3.1 1.54,4.96 1,8.31c-2.46,3.33 -3.93,4.78 -8.01,5.63c-4.07,-0.85 -5.54,-2.3 -8,-5.63c-0.62,-3 -0.62,-3 0,-6c2.62,-3.84 4.51,-5.42 9.13,-5.06z" fill="#E5EFF3" id="svg_21"/>
  <path d="m0,0c2.06,1.56 2.06,1.56 3,4c0.18,2.85 -0.07,5.29 -1,8c-2.94,2.85 -4.54,3 -8.63,3c-3.37,-1 -3.37,-1 -5.37,-3.12c-1.31,-3.77 -1.06,-6.06 0,-9.88c3.18,-4.07 7.46,-3.39 12,-2z" fill="#020304" id="svg_22" transform="translate(173,449)"/>
  <path d="m0,0c2.44,1.56 2.44,1.56 4,4c0.72,4.43 0.49,6.28 -2.06,10c-2.94,2 -2.94,2 -6.5,2.13c-4.1,-1.35 -5.45,-2.31 -7.44,-6.13c0,-3.78 0.17,-6.01 2.62,-8.94c3.36,-1.5 5.75,-1.51 9.38,-1.06z" fill="#09090A" id="svg_23" transform="translate(330,251)"/>
  <path d="m0,0c2.44,1.56 2.44,1.56 4,4c0.56,3.91 0.58,6.05 -1.5,9.44c-3.78,2.36 -6.08,2.12 -10.5,1.56c-2.92,-2.28 -2.98,-3.83 -3.44,-7.5c0.44,-3.5 0.44,-3.5 2,-5.94c3.38,-2.16 5.5,-2.12 9.44,-1.56z" fill="#040405" id="svg_24" transform="translate(390,273)"/>
  <path d="m0,0c2.44,1.56 2.44,1.56 4,4c0.56,3.91 0.58,6.05 -1.5,9.44c-3.75,2.34 -6.11,2.05 -10.5,1.56c-2.19,-1.59 -2.9,-2.49 -3.43,-5.16c-0.01,-6.25 -0.01,-6.25 1.99,-8.9c3.39,-1.3 5.84,-1.39 9.44,-0.94z" fill="#040405" id="svg_25" transform="translate(360,262)"/>
 </g>
</svg>