<?xml version="1.0"?>
<svg width="243.03" height="136.6" xmlns="http://www.w3.org/2000/svg">
 <g class="layer">
  <title>Layer 1</title>
  <path d="m18.55,38a1,1 0 0 1 -0.64,-0.23a1,1 0 0 1 -0.14,-1.4a19.14,19.14 0 0 1 1.74,-1.86a1,1 0 0 1 1.41,0a1,1 0 0 1 0,1.42a18.8,18.8 0 0 0 -1.56,1.66a1,1 0 0 1 -0.81,0.41z" fill="#183154" id="svg_1"/>
  <g fill="#bddfe9" id="svg_2" opacity="0.3" transform="translate(224 39.58) scale(0.96 0.958788) translate(-224 -39.58) translate(0 135.64) matrix(0.917695 0 0 0.833421 0 -113.045)">
   <path d="m54.56,57.05l0,73.06a5.52,5.52 0 0 1 -5.56,5.53l-9.53,0a7,7 0 1 0 0,-14l-32.47,0a7,7 0 1 1 0,-14l17.74,0a7,7 0 0 0 7,-7a7,7 0 0 0 -7,-7l-17.74,0a7,7 0 0 1 0,-14l22.85,0a7,7 0 1 0 0,-14l-13.22,0a7,7 0 0 1 0,-14l32.37,0a5.52,5.52 0 0 1 5.56,5.41z" id="svg_3"/>
   <path d="m188.47,27l0,73.06a5.52,5.52 0 0 0 5.52,5.52l9.56,0a7,7 0 0 1 0,-14l32.45,0a7,7 0 0 0 0,-14l-17.71,0a7,7 0 1 1 0,-14l17.71,0a7,7 0 0 0 0,-14l-22.83,0a7,7 0 0 1 0,-14l13.23,0a7,7 0 0 0 0,-14l-32.4,0a5.52,5.52 0 0 0 -5.53,5.42z" id="svg_4"/>
  </g>
  <path d="m53.16,75.19l140.88,0l0,44.51l-140.88,0l0,-44.51z" fill="#8bbbc6" id="svg_5"/>
  <rect fill="#ebeded" height="40.31" id="svg_6" rx="8.01" width="167.09" x="38.55" y="95.05"/>
  <path d="m54.19,69.63l140.88,0l0,21.59l-140.88,0l0,-21.59z" fill="#6798a0" id="svg_7"/>
  <path d="m19,55.41a18.72,18.72 0 0 1 11.52,-17.28a23,23 0 0 1 -0.4,-4.33a24,24 0 0 1 46.88,-6.91a24.22,24.22 0 0 1 5.69,-0.68c10.12,0 6.1,13.42 9.6,22.3c1.08,2.72 14.35,-1.45 14.35,1.65a24,24 0 0 1 -24,24l-42.25,1.03l0,-14.69" fill="#bddfe9" id="svg_8"/>
  <path d="m50.1,18.27l-4.58,-2.39l-5.14,0.46l2.39,-4.58l-0.46,-5.14l4.58,2.39l5.14,-0.46l-2.39,4.58l0.46,5.14z" fill="#eef0f1" id="svg_9"/>
  <circle cx="39.57" cy="35.26" fill="#eef0f1" id="svg_10" r="1.73"/>
  <path d="m159.36,58.35a15.71,15.71 0 0 0 6,-30.21a19.79,19.79 0 0 0 0.33,-3.64a20.11,20.11 0 0 0 -39.36,-5.8a20.83,20.83 0 0 0 -4.77,-0.57a20.11,20.11 0 1 0 0,40.22l37.8,0z" fill="#1e3a8a" id="svg_11" transform="matrix(1 0 0 1 0 0)"/>
  <path d="m173.23,41.56a15.37,15.37 0 0 1 -15.37,15.36l-37,0a19.62,19.62 0 0 1 -16.59,-9.11a19.53,19.53 0 0 0 10.56,3.08l37,0a15.37,15.37 0 0 0 15.37,-15.36a15.21,15.21 0 0 0 -1.91,-7.41a15.32,15.32 0 0 1 7.94,13.44z" fill="#ffffff" id="svg_12" transform="matrix(1 0 0 1 0 0)"/>
  <path d="m158.41,58.06l-37,0a20.68,20.68 0 1 1 4,-41a20.67,20.67 0 0 1 40.22,6.94a20.52,20.52 0 0 1 -0.21,3a16.36,16.36 0 0 1 -7,31.15l-0.01,-0.09zm-37,-39.35a18.68,18.68 0 0 0 0,37.35l37,0a14.37,14.37 0 0 0 5.51,-27.63l-0.75,-0.32l0.15,-0.8a17.5,17.5 0 0 0 0.31,-3.36a18.67,18.67 0 0 0 -36.54,-5.39l-0.28,0.91l-0.92,-0.23a18.92,18.92 0 0 0 -4.44,-0.53l-0.04,0z" fill="#183154" id="svg_13"/>
  <rect fill="#fff" height="40.31" id="svg_14" rx="8.01" width="167.09" x="38.84" y="48.53"/>
  <rect fill="#ebeded" height="40.31" id="svg_15" rx="8.01" width="167.09" x="39.57" y="47.85"/>
  <path d="m109.52,48.09a24,24 0 0 1 -24,24l-45,0l-0.8,0l0,-4.93l38.5,0a23.93,23.93 0 0 0 23.52,-19.48l7.77,0c0.01,0.13 0.01,0.32 0.01,0.41z" fill="#c5d1d1" id="svg_16"/>
  <circle cx="53.16" cy="67.53" fill="#fff" id="svg_17" r="7.11"/>
  <circle cx="74.48" cy="67.53" fill="#fff" id="svg_18" r="7.11"/>
  <path d="m205.73,55.87l0,24.28a8,8 0 0 1 -8,8l-44.35,0a4,4 0 1 1 0,-8.06l40.78,0a4,4 0 1 0 0,-8.06l-26,0a4,4 0 1 1 0,-8.06l12.49,0a4,4 0 0 0 0,-8.07l-18.54,0a4,4 0 1 1 0,-8.06l35.6,0a8,8 0 0 1 8.02,8.03z" fill="#1e3a8a" id="svg_19" transform="matrix(1 0 0 1 0 0)"/>
  <path d="m128.6,49.09l-6.5,0a1,1 0 0 1 0,-2l6.5,0a1,1 0 0 1 0,2z" fill="#183154" id="svg_20"/>
  <path d="m198.06,89.41l-151.06,0a9,9 0 0 1 -9,-9l0,-24.3a9,9 0 0 1 9,-9l68.06,0a1,1 0 0 1 0,2l-68.06,0a7,7 0 0 0 -7,7l0,24.28a7,7 0 0 0 7,7l151.06,0a7,7 0 0 0 7,-7l0,-24.28a7,7 0 0 0 -7,-7l-57.06,0a1,1 0 0 1 0,-2l57.07,0a9,9 0 0 1 9,9l0,24.28a9,9 0 0 1 -9.01,9.02z" fill="#183154" id="svg_21"/>
  <path d="m134.57,49.09l-2.34,0a1,1 0 0 1 0,-2l2.34,0a1,1 0 0 1 0,2z" fill="#183154" id="svg_22"/>
  <path d="m205.06,104.07l0,24.28a8,8 0 0 1 -8,8l-44.35,0a4,4 0 1 1 0,-8.06l40.78,0a4,4 0 1 0 0,-8.06l-26,0a4,4 0 1 1 0,-8.06l12.51,0a4,4 0 0 0 0,-8.07l-18.56,0a4,4 0 1 1 0,-8.06l35.56,0a8,8 0 0 1 8.06,8.03z" fill="#1e3a8a" id="svg_23" transform="matrix(1 0 0 1 0 0)"/>
  <path d="m186.29,48.32a1,1 0 0 1 -1,-1l0,-22.07a1,1 0 0 1 2,0l0,22.07a1,1 0 0 1 -1,1z" fill="#183154" id="svg_24"/>
  <path d="m194.52,48.57a1,1 0 0 1 -1,-1l0,-40.76a1,1 0 0 1 2,0l0,40.76a1,1 0 0 1 -1,1z" fill="#183154" id="svg_25"/>
  <circle cx="194.04" cy="4.71" fill="#1e3a8a" id="svg_26" r="4.23" transform="matrix(1 0 0 1 0 0)"/>
  <path d="m194.39,10.45a5.23,5.23 0 1 1 5.22,-5.22a5.23,5.23 0 0 1 -5.22,5.22zm0,-8.45a3.23,3.23 0 1 0 3.22,3.23a3.23,3.23 0 0 0 -3.22,-3.23z" fill="#183154" id="svg_27"/>
  <rect fill="#1e3a8a" height="14.23" id="svg_28" rx="7.11" transform="matrix(1 0 0 1 0 0)" width="36.54" x="115.18" y="107.23"/>
  <path d="m144.6,122.45l-22.31,0a8.11,8.11 0 0 1 0,-16.22l22.31,0a8.11,8.11 0 1 1 0,16.22zm-22.31,-14.22a6.11,6.11 0 0 0 0,12.22l22.31,0a6.11,6.11 0 1 0 0,-12.22l-22.31,0z" fill="#183154" id="svg_29"/>
  <path d="m53.32,75.65a8.12,8.12 0 1 1 8.11,-8.12a8.12,8.12 0 0 1 -8.11,8.12zm0,-14.23a6.12,6.12 0 1 0 6.11,6.11a6.12,6.12 0 0 0 -6.11,-6.11z" fill="#183154" id="svg_30"/>
  <path d="m74.64,75.65a8.12,8.12 0 1 1 8.11,-8.12a8.12,8.12 0 0 1 -8.11,8.12zm0,-14.23a6.12,6.12 0 1 0 6.11,6.11a6.12,6.12 0 0 0 -6.11,-6.11z" fill="#183154" id="svg_31"/>
  <circle cx="95.96" cy="67.53" fill="#eef0f1" id="svg_32" r="7.11"/>
  <path d="m96.83,75.73a8.12,8.12 0 1 1 8.17,-8.11a8.12,8.12 0 0 1 -8.17,8.11zm0,-14.23a6.12,6.12 0 1 0 6.17,6.12a6.12,6.12 0 0 0 -6.17,-6.12z" fill="#183154" id="svg_33"/>
  <rect fill="#eef0f1" height="14.23" id="svg_34" rx="7.11" transform="matrix(1 0 0 1 0 0)" width="76.54" x="119.42" y="60.5"/>
  <path d="m188,75.69l-62.3,0a8.12,8.12 0 1 1 0,-16.23l62.3,0a8.12,8.12 0 1 1 0,16.23zm-62.3,-14.23a6.12,6.12 0 1 0 0,12.23l62.3,0a6.12,6.12 0 1 0 0,-12.23l-62.3,0z" fill="#183154" id="svg_35"/>
  <path d="m53.32,96.05a1,1 0 0 1 -1,-1l0,-6.32a1,1 0 0 1 2,0l0,6.32a1,1 0 0 1 -1,1z" fill="#183154" id="svg_36"/>
  <path d="m194,96.05a1,1 0 0 1 -1,-1l0,-6.32a1,1 0 1 1 2,0l0,6.32a1,1 0 0 1 -1,1z" fill="#183154" id="svg_37"/>
  <path d="m32.73,67.87a18.71,18.71 0 0 1 -7.18,-36a23,23 0 0 1 -0.4,-4.33a24,24 0 0 1 46.85,-6.9a24.22,24.22 0 0 1 5.73,-0.64a24,24 0 0 1 0,47.91l-45,-0.04z" fill="#1e3a8a" id="svg_38" transform="matrix(1 0 0 1 0 0)"/>
  <path d="m90.59,23.15a24,24 0 0 1 -20.32,36.64l-45,0a18.73,18.73 0 0 1 -8.85,-2.22a18.73,18.73 0 0 0 16.49,9.86l45,0a24,24 0 0 0 12.68,-44.28z" fill="#ffffff" id="svg_39" opacity="0.7" transform="matrix(1 0 0 1 0 0)"/>
  <path d="m43.64,9.91a1.5,1.5 0 0 0 0,-3a1.5,1.5 0 0 0 0,3z" fill="#fdfeff" id="svg_40"/>
  <path d="m34.44,17.05a21,21 0 0 1 5.09,-4.72c1.2,-0.8 0.07,-2.75 -1.13,-1.94a24.06,24.06 0 0 0 -5.91,5.52c-0.87,1.16 1.08,2.28 1.95,1.14z" fill="#fdfeff" id="svg_41"/>
  <circle cx="149.49" cy="101.58" fill="#c5d1d1" id="svg_42" r="3.18"/>
  <circle cx="142.73" cy="102.6" fill="#c5d1d1" id="svg_43" opacity="0.5" r="1.59"/>
  <circle cx="150.16" cy="53.39" fill="#c5d1d1" id="svg_44" r="3.18"/>
  <circle cx="143.4" cy="54.41" fill="#c5d1d1" id="svg_45" opacity="0.5" r="1.59"/>
  <g fill="#fff" id="svg_46" transform="matrix(1 0 0 1 0 0)">
   <circle cx="48.07" cy="102.12" id="svg_47" r="2.57"/>
   <circle cx="44.8" cy="106.57" id="svg_48" opacity="0.5" r="1.29"/>
   <circle cx="60.32" cy="101.78" id="svg_49" r="2.57"/>
   <circle cx="54.8" cy="101.62" id="svg_50" opacity="0.5" r="1.29"/>
   <circle cx="115.07" cy="57.04" id="svg_51" r="4.34"/>
   <circle cx="113.23" cy="65.36" id="svg_52" opacity="0.5" r="2.17"/>
  </g>
  <circle cx="54.32" cy="114.34" fill="#1e3a8a" id="svg_53" r="7.11" transform="matrix(1 0 0 1 0 0)"/>
  <path d="m61.17,113.91a7.11,7.11 0 0 1 -13.17,3.64a7,7 0 0 0 3.63,1a7.11,7.11 0 0 0 7.11,-7.11a7,7 0 0 0 -1,-3.63a7.09,7.09 0 0 1 3.43,6.1z" fill="#ffffff" id="svg_54" opacity="0.7" transform="matrix(1 0 0 1 0 0)"/>
  <path d="m54.19,122.54a8.12,8.12 0 1 1 8.12,-8.12a8.12,8.12 0 0 1 -8.12,8.12zm0,-14.23a6.12,6.12 0 1 0 6.12,6.11a6.12,6.12 0 0 0 -6.12,-6.11z" fill="#183154" id="svg_55"/>
  <circle cx="74.64" cy="114.34" fill="#1e3a8a" id="svg_56" r="7.11" transform="matrix(1 0 0 1 0 0)"/>
  <circle cx="95.96" cy="114.34" fill="#eef0f1" id="svg_57" r="7.11"/>
  <path d="m96.83,122.54a8.12,8.12 0 1 1 8.12,-8.12a8.12,8.12 0 0 1 -8.12,8.12zm0,-14.23a6.12,6.12 0 1 0 6.12,6.11a6.12,6.12 0 0 0 -6.12,-6.11z" fill="#183154" id="svg_58"/>
  <g fill="#fff" id="svg_59" opacity="0.4">
   <circle cx="35.23" cy="41.08" id="svg_60" r="6.36"/>
   <circle cx="27.91" cy="50.47" id="svg_61" r="3.18"/>
  </g>
  <path d="m78,68.57l-45,0a19.71,19.71 0 0 1 -17.83,-28.07a1,1 0 0 1 1.81,0.85a17.49,17.49 0 0 0 -1.67,7.51a17.73,17.73 0 0 0 17.69,17.71l45,0a23,23 0 1 0 -5.45,-45.25l-0.92,0.22l-0.28,-0.91a23,23 0 0 0 -44.93,6.62a22.48,22.48 0 0 0 0.38,4.15l0.16,0.79l-0.75,0.32a17.12,17.12 0 0 0 -2.76,1.49a1,1 0 0 1 -1.39,-0.3a1,1 0 0 1 0.3,-1.38a20.19,20.19 0 0 1 2.36,-1.32a25,25 0 0 1 48.28,-11.83a25,25 0 1 1 5,49.4z" fill="#183154" id="svg_62"/>
  <path d="m114.62,132.91l22.71,0a2.44,2.44 0 0 1 2.44,2.44a0,0 0 0 1 0,0l-27.59,0a0,0 0 0 1 0,0a2.44,2.44 0 0 1 2.44,-2.44z" fill="#c5d1d1" id="svg_63"/>
  <path d="m84.19,132.91l22.71,0a2.44,2.44 0 0 1 2.44,2.44a0,0 0 0 1 0,0l-27.59,0a0,0 0 0 1 0,0a2.44,2.44 0 0 1 2.44,-2.44z" fill="#c5d1d1" id="svg_64"/>
  <path d="m197,136.6l-151,0a9,9 0 0 1 -9,-9l0,-24.29a9,9 0 0 1 9,-9l151,0a9,9 0 0 1 9,9l0,24.28a9,9 0 0 1 -9,9.01zm-151,-40.31a7,7 0 0 0 -7,7l0,24.28a7,7 0 0 0 7,7l151,0a7,7 0 0 0 7,-7l0,-24.26a7,7 0 0 0 -7,-7l-151,-0.02z" fill="#183154" id="svg_65"/>
  <circle cx="95.55" cy="13.15" fill="#e0f0f5" id="svg_66" r="2.24"/>
  <path d="m81.75,114.69a7.11,7.11 0 0 1 -13.22,3.64a7,7 0 0 0 3.63,1a7.11,7.11 0 0 0 7.11,-7.11a7,7 0 0 0 -1,-3.63a7.09,7.09 0 0 1 3.48,6.1z" fill="#ffffff" id="svg_67" opacity="0.7" transform="matrix(1 0 0 1 0 0)"/>
  <path d="m75.51,122.54a8.12,8.12 0 1 1 8.12,-8.12a8.12,8.12 0 0 1 -8.12,8.12zm0,-14.23a6.12,6.12 0 1 0 6.12,6.11a6.12,6.12 0 0 0 -6.12,-6.11z" fill="#183154" id="svg_68" transform="matrix(1 0 0 1 0 0)"/>
 </g>
</svg>