<svg viewBox="0 0 400 300" xmlns="http://www.w3.org/2000/svg"><path d="m260.47 89.06v121.88c0 12.5-28.16 22.64-62.91 22.64s-62.91-10.14-62.91-22.64v-121.88z" fill="#68e1fd"/><path d="m197.56 234.58c-35.84 0-63.91-10.39-63.91-23.64v-121.88a1 1 0 0 1 1-1h125.82a1 1 0 0 1 1 1v121.88c0 13.25-28.07 23.64-63.91 23.64zm-61.91-144.52v120.88c0 11.73 28.35 21.64 61.91 21.64s61.91-9.91 61.91-21.64v-120.88z" fill="#093f68"/><ellipse cx="197.56" cy="89.06" fill="#f7f7f7" rx="62.91" ry="22.64"/><path d="m197.56 112.71c-35.84 0-63.91-10.39-63.91-23.65s28.07-23.64 63.91-23.64 63.91 10.39 63.91 23.64-28.07 23.65-63.91 23.65zm0-45.29c-33.56 0-61.91 9.91-61.91 21.64s28.35 21.65 61.91 21.65 61.91-9.91 61.91-21.65-28.35-21.64-61.91-21.64z" fill="#093f68"/><path d="m134.65 126.79c0 12.5 28.16 22.64 62.91 22.64s62.91-10.14 62.91-22.64" fill="#68e1fd"/><path d="m197.56 150.43c-35.84 0-63.91-10.39-63.91-23.64a1 1 0 1 1 2 0c0 11.73 28.35 21.64 61.91 21.64s61.91-9.91 61.91-21.64a1 1 0 0 1 2 0c0 13.21-28.07 23.64-63.91 23.64z" fill="#093f68"/><path d="m134.65 168.69c0 12.5 28.16 22.64 62.91 22.64s62.91-10.14 62.91-22.64" fill="#68e1fd"/><path d="m197.56 192.33c-35.84 0-63.91-10.38-63.91-23.64a1 1 0 0 1 2 0c0 11.73 28.35 21.64 61.91 21.64s61.91-9.91 61.91-21.64a1 1 0 0 1 2 0c0 13.31-28.07 23.64-63.91 23.64z" fill="#093f68"/><path d="m164.67 128.46a2.55 2.55 0 0 0 -2-2.38c-.95-.2-1.92-.36-2.88-.51a.62.62 0 0 1 -.57-.47c-.28-.76-.6-1.52-.94-2.27a.5.5 0 0 1 .05-.57c.58-.8 1.17-1.59 1.71-2.42a2.51 2.51 0 0 0 -.23-3.08c-.87-1-1.82-1.87-2.74-2.8a2.7 2.7 0 0 0 -3.68-.33c-.72.5-1.44 1-2.14 1.53a.51.51 0 0 1 -.58.06c-.81-.36-1.64-.7-2.47-1a.51.51 0 0 1 -.37-.45c-.13-.88-.28-1.76-.43-2.63a2.67 2.67 0 0 0 -2.55-2.28c-1.35 0-2.71 0-4.06 0a2.57 2.57 0 0 0 -2.46 2c-.22 1-.37 2-.54 3a.51.51 0 0 1 -.37.45c-.79.31-1.58.65-2.36 1a.45.45 0 0 1 -.54 0c-.78-.58-1.56-1.16-2.38-1.7a2.54 2.54 0 0 0 -3.11.2c-1 1-2 1.93-3 3a2.61 2.61 0 0 0 -.17 3.46c.53.76 1.08 1.51 1.6 2.27a.53.53 0 0 1 0 .41c-.33.85-.67 1.7-1 2.54a.52.52 0 0 1 -.32.26q-1.32.24-2.64.45a2.65 2.65 0 0 0 -2.35 2.47v4.24a2.54 2.54 0 0 0 2 2.36c1 .22 2 .38 3 .55a.49.49 0 0 1 .42.35c.32.81.66 1.6 1 2.39a.43.43 0 0 1 0 .51c-.54.73-1.07 1.46-1.58 2.2a2.67 2.67 0 0 0 .3 3.57c.85.87 1.71 1.73 2.57 2.57a2.67 2.67 0 0 0 3.66.28c.74-.52 1.48-1 2.2-1.57a.44.44 0 0 1 .49 0c.75.33 1.5.65 2.27.93a.6.6 0 0 1 .42.53c.13.87.27 1.74.43 2.6a2.62 2.62 0 0 0 2.42 2.28h4.28a2.55 2.55 0 0 0 2.37-2c.21-1 .35-1.93.51-2.91a.58.58 0 0 1 .41-.5c.79-.31 1.58-.64 2.36-1a.45.45 0 0 1 .52.05l2.2 1.58a2.8 2.8 0 0 0 1.77.54 2.29 2.29 0 0 0 1.58-.65c.93-.88 1.84-1.79 2.75-2.7a2.71 2.71 0 0 0 .33-3.73c-.5-.73-1-1.44-1.53-2.15a.45.45 0 0 1 -.05-.52c.34-.79.68-1.59 1-2.39a.51.51 0 0 1 .46-.37c.88-.13 1.76-.28 2.63-.43a2.66 2.66 0 0 0 2.31-2.52q.06-2.21.02-4.3zm-21.75 11.54a9.38 9.38 0 1 1 9.4-9.37 9.38 9.38 0 0 1 -9.4 9.37z" fill="#f56132" stroke="#093f68" stroke-linecap="round" stroke-linejoin="round" stroke-width="2"/><path d="m252.26 188.72a3.28 3.28 0 0 0 -2.54-3.07c-1.23-.27-2.47-.46-3.71-.65a.82.82 0 0 1 -.73-.61c-.37-1-.79-2-1.21-2.93a.63.63 0 0 1 .06-.74c.75-1 1.51-2.05 2.2-3.12a3.25 3.25 0 0 0 -.29-4c-1.13-1.24-2.35-2.41-3.54-3.61a3.49 3.49 0 0 0 -4.74-.43c-.93.65-1.86 1.3-2.77 2a.63.63 0 0 1 -.74.08c-1.05-.46-2.11-.9-3.18-1.31a.65.65 0 0 1 -.48-.57c-.18-1.14-.36-2.27-.56-3.4a3.42 3.42 0 0 0 -3.28-2.94c-1.75 0-3.5 0-5.24 0a3.31 3.31 0 0 0 -3.18 2.59c-.28 1.27-.47 2.56-.68 3.84a.67.67 0 0 1 -.48.58c-1 .4-2 .84-3 1.29a.6.6 0 0 1 -.7-.06c-1-.75-2-1.5-3.07-2.19a3.26 3.26 0 0 0 -4 .26c-1.33 1.22-2.63 2.49-3.85 3.81a3.36 3.36 0 0 0 -.23 4.46c.69 1 1.39 1.95 2.07 2.93a.7.7 0 0 1 .06.53c-.43 1.09-.87 2.19-1.33 3.27a.66.66 0 0 1 -.41.34c-1.13.21-2.27.39-3.4.57a3.43 3.43 0 0 0 -3 3.19c-.06 1.82-.05 3.65 0 5.47a3.27 3.27 0 0 0 2.52 3c1.3.29 2.62.49 3.93.71a.65.65 0 0 1 .55.45c.4 1 .84 2.07 1.3 3.09a.56.56 0 0 1 -.06.66c-.69.93-1.38 1.87-2 2.83a3.43 3.43 0 0 0 .39 4.6q1.63 1.68 3.32 3.32a3.44 3.44 0 0 0 4.71.36c1-.67 1.9-1.34 2.84-2a.54.54 0 0 1 .62-.05c1 .42 1.94.84 2.93 1.2a.75.75 0 0 1 .54.69c.17 1.12.35 2.24.55 3.35a3.4 3.4 0 0 0 3.14 2.94c1.83.06 3.67 0 5.51 0a3.3 3.3 0 0 0 3.05-2.57c.27-1.24.46-2.49.67-3.75a.72.72 0 0 1 .52-.65c1-.39 2-.82 3.05-1.26a.56.56 0 0 1 .66.07l2.84 2a3.65 3.65 0 0 0 2.29.69 2.94 2.94 0 0 0 2-.83c1.2-1.13 2.37-2.31 3.54-3.48a3.5 3.5 0 0 0 .43-4.82c-.65-.93-1.31-1.85-2-2.77a.56.56 0 0 1 -.07-.66c.45-1 .88-2.05 1.28-3.09a.66.66 0 0 1 .59-.47c1.13-.17 2.27-.36 3.4-.56a3.41 3.41 0 0 0 3-3.25c-.04-1.75-.05-3.54-.09-5.33zm-28 14.81a12.1 12.1 0 1 1 12.12-12.08 12.1 12.1 0 0 1 -12.16 12.08z" fill="#ffbc0e" stroke="#093f68" stroke-linecap="round" stroke-linejoin="round" stroke-width="2"/><path d="m201.67 166.33a1.38 1.38 0 0 0 -1.07-1.3c-.52-.11-1-.2-1.58-.28a.34.34 0 0 1 -.31-.26c-.15-.41-.33-.83-.51-1.24a.27.27 0 0 1 0-.31c.31-.43.64-.87.93-1.32a1.38 1.38 0 0 0 -.12-1.68c-.48-.53-1-1-1.5-1.53a1.48 1.48 0 0 0 -2-.19l-1.17.84a.27.27 0 0 1 -.32 0c-.44-.19-.89-.38-1.35-.55a.28.28 0 0 1 -.2-.25q-.11-.72-.24-1.44a1.44 1.44 0 0 0 -1.39-1.24q-1.11 0-2.22 0a1.39 1.39 0 0 0 -1.34 1.1c-.12.54-.21 1.08-.3 1.63a.28.28 0 0 1 -.2.24q-.65.25-1.29.54a.23.23 0 0 1 -.29 0c-.43-.32-.86-.63-1.3-.93a1.4 1.4 0 0 0 -1.7.11c-.57.52-1.11 1.06-1.63 1.62a1.42 1.42 0 0 0 -.1 1.89c.29.42.59.82.88 1.24a.34.34 0 0 1 0 .22c-.18.47-.37.93-.56 1.39a.28.28 0 0 1 -.18.14l-1.44.25a1.43 1.43 0 0 0 -1.28 1.35v2.32a1.36 1.36 0 0 0 1.11 1.31c.55.13 1.11.21 1.67.31a.27.27 0 0 1 .23.19c.17.44.36.87.55 1.3a.24.24 0 0 1 0 .28q-.45.6-.87 1.2a1.47 1.47 0 0 0 .17 2q.69.72 1.41 1.41a1.45 1.45 0 0 0 2 .15c.41-.28.81-.57 1.21-.86a.23.23 0 0 1 .26 0c.41.18.82.36 1.24.51a.31.31 0 0 1 .23.29c.07.48.15.95.24 1.42a1.44 1.44 0 0 0 1.32 1.25q1.17 0 2.34 0a1.39 1.39 0 0 0 1.29-1.09c.12-.53.2-1.06.28-1.59a.33.33 0 0 1 .23-.28c.43-.16.86-.34 1.29-.53a.24.24 0 0 1 .28 0l1.2.86a1.47 1.47 0 0 0 1 .29 1.25 1.25 0 0 0 .86-.35c.51-.48 1-1 1.5-1.47a1.49 1.49 0 0 0 .18-2l-.83-1.17a.24.24 0 0 1 0-.28c.19-.43.37-.87.54-1.31a.28.28 0 0 1 .25-.2l1.44-.23a1.46 1.46 0 0 0 1.26-1.38q-.07-1.25-.1-2.39zm-11.88 6.28a5.13 5.13 0 1 1 5.14-5.12 5.13 5.13 0 0 1 -5.14 5.12z" fill="#093f68"/><rect fill="#fff" height="24.61" rx="3.31" width="87.92" x="190.91" y="116.06"/><g fill="#093f68"><path d="m275.51 141.67h-81.28a4.33 4.33 0 0 1 -4.32-4.32v-18a4.33 4.33 0 0 1 4.32-4.32h81.28a4.33 4.33 0 0 1 4.32 4.32v18a4.33 4.33 0 0 1 -4.32 4.32zm-81.28-24.61a2.32 2.32 0 0 0 -2.32 2.32v18a2.32 2.32 0 0 0 2.32 2.32h81.28a2.32 2.32 0 0 0 2.32-2.32v-18a2.32 2.32 0 0 0 -2.32-2.32z"/><path d="m205.45 131.75.05-6-2.2 6h-1.44l-2.15-6 .05 6h-1.93v-8.49h2.92l1.93 5.44h.05l1.85-5.44h3v8.49z"/><path d="m209 126.59a3.37 3.37 0 0 1 1.23-.75 4.11 4.11 0 0 1 1.43-.26 4 4 0 0 1 1.28.19 1.82 1.82 0 0 1 .84.58 2.37 2.37 0 0 1 .48 1 5.86 5.86 0 0 1 .15 1.41v3h-1.8v-.63a1.46 1.46 0 0 1 -.69.57 2.38 2.38 0 0 1 -1 .2 3.18 3.18 0 0 1 -.74-.09 2.26 2.26 0 0 1 -.71-.31 1.68 1.68 0 0 1 -.72-1.47 1.52 1.52 0 0 1 .35-1 2.36 2.36 0 0 1 .91-.61 4.77 4.77 0 0 1 1.25-.29 12.1 12.1 0 0 1 1.33-.07v-.1a.75.75 0 0 0 -.31-.65 1.36 1.36 0 0 0 -.77-.21 1.91 1.91 0 0 0 -.81.18 2.66 2.66 0 0 0 -.67.43zm3.61 2.56h-.25q-.33 0-.66 0a3.26 3.26 0 0 0 -.59.11 1.09 1.09 0 0 0 -.42.25.56.56 0 0 0 -.17.42.52.52 0 0 0 .08.29.61.61 0 0 0 .2.19.81.81 0 0 0 .27.11h.3a1.22 1.22 0 0 0 .92-.33 1.25 1.25 0 0 0 .32-.9z"/><path d="m218 123.87a1 1 0 0 1 -.09.42 1 1 0 0 1 -.6.57 1.12 1.12 0 0 1 -.44.09 1.09 1.09 0 0 1 -.8-.32 1 1 0 0 1 -.24-1.18.88.88 0 0 1 .24-.34 1.31 1.31 0 0 1 .36-.23 1 1 0 0 1 .44-.09 1.32 1.32 0 0 1 .44.08 1.11 1.11 0 0 1 .36.23 1.16 1.16 0 0 1 .24.34 1 1 0 0 1 .09.43zm-2.11 7.88v-6h2v6z"/><path d="m223.37 131.75v-3.26a3.58 3.58 0 0 0 0-.48 1.65 1.65 0 0 0 -.14-.41.87.87 0 0 0 -.27-.27.84.84 0 0 0 -.44-.1 1 1 0 0 0 -.46.1 1 1 0 0 0 -.33.28 1.17 1.17 0 0 0 -.2.42 1.85 1.85 0 0 0 -.07.48v3.24h-2v-6h1.91v.82a1.8 1.8 0 0 1 .28-.37 1.46 1.46 0 0 1 .41-.32 2.38 2.38 0 0 1 .51-.22 2.2 2.2 0 0 1 .58-.08 2.26 2.26 0 0 1 1 .21 2 2 0 0 1 .68.56 2.13 2.13 0 0 1 .37.79 3.35 3.35 0 0 1 .12.89v3.69z"/><path d="m229 127.24v2.29a1.08 1.08 0 0 0 .16.63.72.72 0 0 0 .59.21h.3a1.31 1.31 0 0 0 .27-.07v1.44a3.7 3.7 0 0 1 -.52.12 3.31 3.31 0 0 1 -.62 0 2.72 2.72 0 0 1 -1-.15 1.61 1.61 0 0 1 -.66-.43 1.72 1.72 0 0 1 -.35-.67 3.34 3.34 0 0 1 -.11-.87v-2.53h-1v-1.46h.94v-1.55h2v1.58h1.41v1.46z"/><path d="m237.23 128.84v.24.22h-4.34a1.19 1.19 0 0 0 .15.46 1.37 1.37 0 0 0 .33.35 1.7 1.7 0 0 0 .44.24 1.81 1.81 0 0 0 .51.08 1.71 1.71 0 0 0 .79-.17 1.57 1.57 0 0 0 .53-.45l1.37.86a2.75 2.75 0 0 1 -1.11.94 3.66 3.66 0 0 1 -1.6.33 3.8 3.8 0 0 1 -1.27-.21 3.05 3.05 0 0 1 -1.05-.61 2.85 2.85 0 0 1 -.71-1 3.62 3.62 0 0 1 0-2.67 3.12 3.12 0 0 1 .69-1 3 3 0 0 1 1-.64 3.5 3.5 0 0 1 1.27-.23 3.18 3.18 0 0 1 1.21.23 2.58 2.58 0 0 1 .95.64 3.06 3.06 0 0 1 .62 1 4.1 4.1 0 0 1 .22 1.39zm-1.81-.76a1.15 1.15 0 0 0 -.3-.8 1.08 1.08 0 0 0 -.88-.34 1.51 1.51 0 0 0 -.53.09 1.34 1.34 0 0 0 -.71.61 1.16 1.16 0 0 0 -.12.44z"/><path d="m242.38 131.75v-3.26a2.44 2.44 0 0 0 0-.48 1.31 1.31 0 0 0 -.13-.41.75.75 0 0 0 -.71-.37 1 1 0 0 0 -.46.1.83.83 0 0 0 -.33.28 1.17 1.17 0 0 0 -.2.42 1.51 1.51 0 0 0 -.07.48v3.24h-2v-6h1.91v.82a2.34 2.34 0 0 1 .29-.37 1.57 1.57 0 0 1 .4-.32 2.91 2.91 0 0 1 .51-.22 2.44 2.44 0 0 1 1.61.13 2 2 0 0 1 .68.56 2.13 2.13 0 0 1 .37.79 3.35 3.35 0 0 1 .12.89v3.69z"/><path d="m245.76 126.59a3.37 3.37 0 0 1 1.23-.75 4.2 4.2 0 0 1 1.43-.26 3.93 3.93 0 0 1 1.28.19 1.9 1.9 0 0 1 .85.58 2.49 2.49 0 0 1 .47 1 5.86 5.86 0 0 1 .15 1.41v3h-1.8v-.63a1.57 1.57 0 0 1 -.69.57 2.43 2.43 0 0 1 -1 .2 3.25 3.25 0 0 1 -.74-.09 2.11 2.11 0 0 1 -.7-.31 1.71 1.71 0 0 1 -.73-1.47 1.48 1.48 0 0 1 .36-1 2.28 2.28 0 0 1 .91-.61 4.6 4.6 0 0 1 1.24-.29 12.23 12.23 0 0 1 1.33-.07v-.1a.73.73 0 0 0 -.31-.65 1.34 1.34 0 0 0 -.77-.21 1.91 1.91 0 0 0 -.81.18 2.43 2.43 0 0 0 -.66.43zm3.61 2.56h-.25c-.22 0-.43 0-.65 0a3.1 3.1 0 0 0 -.59.11 1.14 1.14 0 0 0 -.43.25.56.56 0 0 0 -.17.42.52.52 0 0 0 .08.29.61.61 0 0 0 .2.19.78.78 0 0 0 .28.11h.3a1.19 1.19 0 0 0 .91-.33 1.21 1.21 0 0 0 .32-.9z"/><path d="m256.56 131.75v-3.26a2.45 2.45 0 0 0 0-.48 1.65 1.65 0 0 0 -.14-.41.7.7 0 0 0 -.27-.27.84.84 0 0 0 -.44-.1 1 1 0 0 0 -.46.1 1 1 0 0 0 -.33.28 1.36 1.36 0 0 0 -.2.42 1.86 1.86 0 0 0 -.06.48v3.24h-2v-6h1.9v.82a1.8 1.8 0 0 1 .28-.37 1.62 1.62 0 0 1 .41-.32 2.38 2.38 0 0 1 .51-.22 2.21 2.21 0 0 1 .59-.08 2.26 2.26 0 0 1 1 .21 2 2 0 0 1 .67.56 2.15 2.15 0 0 1 .38.79 3.8 3.8 0 0 1 .11.89v3.69z"/><path d="m264.16 127.71a1.25 1.25 0 0 0 -.46-.35 1.37 1.37 0 0 0 -.59-.13 1.28 1.28 0 0 0 -.56.12 1.44 1.44 0 0 0 -.43.34 1.59 1.59 0 0 0 -.29.49 1.86 1.86 0 0 0 -.1.58 1.63 1.63 0 0 0 .1.59 1.39 1.39 0 0 0 .28.49 1.31 1.31 0 0 0 .44.33 1.41 1.41 0 0 0 .59.12 1.56 1.56 0 0 0 .59-.12 1 1 0 0 0 .47-.33l1.1 1.34a2.65 2.65 0 0 1 -1 .56 3.72 3.72 0 0 1 -1.25.2 4 4 0 0 1 -1.32-.21 3.26 3.26 0 0 1 -1.07-.63 3 3 0 0 1 -.71-1 3.53 3.53 0 0 1 0-2.66 3 3 0 0 1 .71-1 3.09 3.09 0 0 1 1.07-.63 3.72 3.72 0 0 1 1.31-.23 3.47 3.47 0 0 1 .64.06 4.24 4.24 0 0 1 .61.17 2.23 2.23 0 0 1 .54.25 2.44 2.44 0 0 1 .43.33z"/><path d="m272 128.84v.24a1.55 1.55 0 0 1 0 .22h-4.33a.93.93 0 0 0 .15.46 1.19 1.19 0 0 0 .32.35 1.61 1.61 0 0 0 .45.24 1.7 1.7 0 0 0 .51.08 1.74 1.74 0 0 0 .79-.17 1.79 1.79 0 0 0 .53-.45l1.36.86a2.75 2.75 0 0 1 -1.11.94 3.66 3.66 0 0 1 -1.6.33 3.8 3.8 0 0 1 -1.27-.21 3.05 3.05 0 0 1 -1-.61 2.85 2.85 0 0 1 -.71-1 3.56 3.56 0 0 1 0-2.67 3 3 0 0 1 .68-1 3.15 3.15 0 0 1 1-.64 3.54 3.54 0 0 1 1.27-.23 3.14 3.14 0 0 1 1.21.23 2.5 2.5 0 0 1 .95.64 2.91 2.91 0 0 1 .62 1 3.86 3.86 0 0 1 .18 1.39zm-1.81-.76a1.19 1.19 0 0 0 -.29-.8 1.1 1.1 0 0 0 -.89-.34 1.46 1.46 0 0 0 -.52.09 1.27 1.27 0 0 0 -.42.25 1.12 1.12 0 0 0 -.29.36 1.16 1.16 0 0 0 -.12.44z"/></g><path d="m175 176.84v33.65c0 3.73-2.42 6.76-5.39 6.76h-40.1c-3 0-5.38-3-5.38-6.76v-33.65c0-3.73 2.41-6.76 5.38-6.76h40.13c2.97 0 5.36 3.03 5.36 6.76z" fill="#fff"/><path d="m169.64 218.25h-40.13c-3.52 0-6.38-3.48-6.38-7.76v-33.65c0-4.28 2.86-7.76 6.38-7.76h40.13c3.52 0 6.39 3.48 6.39 7.76v33.65c-.03 4.28-2.87 7.76-6.39 7.76zm-40.13-47.17c-2.41 0-4.38 2.58-4.38 5.76v33.65c0 3.18 2 5.76 4.38 5.76h40.13c2.42 0 4.39-2.58 4.39-5.76v-33.65c0-3.18-2-5.76-4.39-5.76z" fill="#093f68"/><path d="m144.96 188.97-6.17 6.16-5.53-7.73 3.96-3.97z" fill="#68e1fd"/><path d="m138.79 196.13h-.08a1 1 0 0 1 -.73-.41l-5.53-7.72a1 1 0 0 1 .1-1.29l4-4a1 1 0 0 1 1.29-.11l7.73 5.54a1 1 0 0 1 .41.73 1 1 0 0 1 -.28.79l-6.17 6.16a1 1 0 0 1 -.74.31zm-4.23-8.62 4.36 6.08 4.5-4.49-6.09-4.36z" fill="#093f68"/><path d="m144.96 188.97-6.17 6.16 3.95.16 2.38-2.38z" fill="#68e1fd"/><path d="m142.74 196.29-3.95-.16a1 1 0 0 1 -.89-.63 1 1 0 0 1 .23-1.07l6.16-6.17a1 1 0 0 1 1.07-.22 1 1 0 0 1 .64.89l.16 3.94a1 1 0 0 1 -.29.75l-2.43 2.38a1 1 0 0 1 -.7.29zm-1.63-2.06 1.23.05 1.76-1.77v-1.22z" fill="#093f68"/><path d="m152.33 199.91-2.62 2.62-6.97-7.24 2.35-2.35z" fill="#68e1fd"/><path d="m149.71 203.53a1 1 0 0 1 -.71-.3l-7-7.23a1 1 0 0 1 0-1.4l2.35-2.36a1 1 0 0 1 1.4 0l7.24 7a1 1 0 0 1 .31.71 1 1 0 0 1 -.29.72l-2.62 2.62a1 1 0 0 1 -.68.24zm-5.57-8.22 5.58 5.8 1.18-1.18-5.8-5.59z" fill="#093f68"/><rect fill="#68e1fd" height="13.3" rx="1.85" transform="matrix(.70710678 -.70710678 .70710678 .70710678 -99.82 169.95)" width="7.18" x="151.64" y="198.81"/><path d="m157.4 212.93a2.84 2.84 0 0 1 -2-.83l-6.78-6.78a2.85 2.85 0 0 1 0-4l2.45-2.46a2.87 2.87 0 0 1 4 0l6.78 6.79a2.84 2.84 0 0 1 0 4l-2.45 2.46a2.84 2.84 0 0 1 -2 .82zm-4.33-12.93a.82.82 0 0 0 -.6.25l-2.47 2.44a.86.86 0 0 0 0 1.21l6.78 6.78a.86.86 0 0 0 1.21 0l2.46-2.45a.86.86 0 0 0 0-1.21l-6.78-6.78a.85.85 0 0 0 -.6-.24z" fill="#093f68"/><path d="m151.54 199.75 9.4 9.41" fill="#68e1fd"/><path d="m160.94 210.16a1 1 0 0 1 -.7-.29l-9.41-9.41a1 1 0 0 1 0-1.41 1 1 0 0 1 1.42 0l9.4 9.4a1 1 0 0 1 0 1.42 1 1 0 0 1 -.71.29z" fill="#093f68"/><path d="m149.73 201.56 9.4 9.41" fill="#68e1fd"/><path d="m159.13 212a1 1 0 0 1 -.7-.3l-9.41-9.4a1 1 0 0 1 0-1.41 1 1 0 0 1 1.42 0l9.4 9.4a1 1 0 0 1 0 1.41 1 1 0 0 1 -.71.3z" fill="#093f68"/><path d="m163.66 194.87a7.68 7.68 0 0 0 1.54-8.65l-4 4-3.3-.22-.78-3.75 3.91-3.91a7.67 7.67 0 0 0 -10.32 8.61l-13.33 13.54a4.28 4.28 0 1 0 6.06 6l13.33-13.49a7.65 7.65 0 0 0 6.89-2.13zm-24.15 13.51a1.89 1.89 0 1 1 2.67 0 1.9 1.9 0 0 1 -2.67 0z" fill="#68e1fd"/><path d="m140.41 212.76a5.28 5.28 0 0 1 -3.73-9l13-13.17a8.67 8.67 0 0 1 11.74-9.2 1 1 0 0 1 .35 1.64l-3.53 3.52.52 2.5 2.06.18 3.7-3.7a1 1 0 0 1 1.61.28 8.69 8.69 0 0 1 -1.73 9.78 8.71 8.71 0 0 1 -7.25 2.47l-13 13.16a5.26 5.26 0 0 1 -3.74 1.54zm17.83-30a6.66 6.66 0 0 0 -6.54 7.94 1 1 0 0 1 -.27.89l-13.33 13.57a3.27 3.27 0 0 0 0 4.64 3.36 3.36 0 0 0 4.64 0l13.32-13.53a1 1 0 0 1 .94-.27 6.67 6.67 0 0 0 7.8-7.93l-2.93 2.93a1 1 0 0 1 -.79.29l-3.26-.28a1 1 0 0 1 -.9-.79l-.77-3.76a1 1 0 0 1 .27-.91l2.67-2.67a6.06 6.06 0 0 0 -.85-.09zm-17.39 27.14a2.87 2.87 0 0 1 -2-.84 2.88 2.88 0 0 1 4.08-4.08 2.88 2.88 0 0 1 -2 4.92zm0-3.77a.89.89 0 0 0 -.63.26.88.88 0 0 0 0 1.25.89.89 0 0 0 1.25 0 .85.85 0 0 0 .26-.62.88.88 0 0 0 -.26-.63.89.89 0 0 0 -.62-.23z" fill="#093f68"/><path d="m175 177.84h-50.9a1 1 0 0 1 0-2h50.9a1 1 0 0 1 0 2z" fill="#093f68"/><path d="m235.99 203.09h39.16v-39.84l-8.02-8.41h-31.14z" fill="#f7f7f7"/><path d="m275.15 204.08h-39.15a1 1 0 0 1 -1-1v-48.24a1 1 0 0 1 1-1h31.14a1 1 0 0 1 .73.31l8 8.41a1 1 0 0 1 .27.69v39.83a1 1 0 0 1 -.99 1zm-38.16-2h37.16v-38.43l-7.44-7.81h-29.71z" fill="#093f68"/><path d="m275.15 163.25h-8.15v-8.41z" fill="#70cc40"/><path d="m275.15 164.25h-8.15a1 1 0 0 1 -1-1v-8.41a1 1 0 0 1 1.72-.7l8.15 8.41a1 1 0 0 1 .21 1.09 1 1 0 0 1 -.93.61zm-7.15-2h4.79l-4.79-4.94z" fill="#093f68"/><path d="m268.52 172.8h-24.38a1 1 0 0 1 0-2h24.38a1 1 0 0 1 0 2z" fill="#dfeaef"/><path d="m268.52 182.15h-24.38a1 1 0 0 1 0-2h24.38a1 1 0 0 1 0 2z" fill="#dfeaef"/><path d="m260.45 191.5h-16.31a1 1 0 0 1 0-2h16.31a1 1 0 0 1 0 2z" fill="#dfeaef"/></svg>