<svg viewBox="0 0 400 300" xmlns="http://www.w3.org/2000/svg"><path d="m295.44 101.66v96.68c0 9.92-23.38 18-52.22 18s-52.21-8-52.21-18v-96.68z" fill="#68e1fd"/><path d="m243.22 217.3c-29.84 0-53.21-8.33-53.21-19v-96.64a1 1 0 0 1 1-1h104.43a1 1 0 0 1 1 1v96.68c0 10.66-23.37 18.96-53.22 18.96zm-51.22-114.64v95.68c0 9.19 23.45 17 51.21 17s51.22-7.77 51.22-17v-95.68z" fill="#093f68"/><ellipse cx="243.22" cy="101.66" fill="#f7f7f7" rx="52.22" ry="17.96"/><path d="m243.22 120.62c-29.84 0-53.21-8.33-53.21-19s23.37-19 53.21-19 53.22 8.33 53.22 19-23.37 19-53.22 19zm0-35.92c-27.76 0-51.21 7.77-51.21 17s23.45 17 51.21 17 51.22-7.76 51.22-17-23.44-17-51.22-17z" fill="#093f68"/><path d="m191 131.59c0 9.91 23.38 17.95 52.21 17.95s52.22-8 52.22-17.95" fill="#68e1fd"/><path d="m243.22 150.54c-29.84 0-53.21-8.32-53.21-19a1 1 0 0 1 2 0c0 9.2 23.45 17 51.21 17s51.22-7.76 51.22-17a1 1 0 1 1 2 0c0 10.68-23.37 19-53.22 19z" fill="#093f68"/><path d="m191 164.83c0 9.91 23.38 17.95 52.21 17.95s52.22-8 52.22-17.95" fill="#68e1fd"/><path d="m243.22 183.79c-29.84 0-53.21-8.33-53.21-19a1 1 0 0 1 2 0c0 9.19 23.45 17 51.21 17s51.22-7.77 51.22-17a1 1 0 1 1 2 0c0 10.67-23.37 19-53.22 19z" fill="#093f68"/><circle cx="255.61" cy="132.93" fill="#f56132" r="3.82"/><path d="m255.61 137.74a4.82 4.82 0 1 1 4.81-4.81 4.82 4.82 0 0 1 -4.81 4.81zm0-7.63a2.82 2.82 0 1 0 2.81 2.82 2.83 2.83 0 0 0 -2.81-2.82z" fill="#093f68"/><circle cx="243.22" cy="132.93" fill="#ffbc0e" r="3.82"/><path d="m243.22 137.74a4.82 4.82 0 1 1 4.82-4.81 4.82 4.82 0 0 1 -4.82 4.81zm0-7.63a2.82 2.82 0 1 0 2.82 2.82 2.82 2.82 0 0 0 -2.82-2.82z" fill="#093f68"/><circle cx="230.84" cy="132.93" fill="#70cc40" r="3.82"/><path d="m230.84 137.74a4.82 4.82 0 1 1 4.82-4.81 4.82 4.82 0 0 1 -4.82 4.81zm0-7.63a2.82 2.82 0 1 0 2.82 2.82 2.82 2.82 0 0 0 -2.82-2.82z" fill="#093f68"/><circle cx="255.61" cy="164.83" fill="#f56132" r="3.82"/><path d="m255.61 169.64a4.82 4.82 0 1 1 4.81-4.81 4.82 4.82 0 0 1 -4.81 4.81zm0-7.63a2.82 2.82 0 1 0 2.81 2.82 2.82 2.82 0 0 0 -2.81-2.83z" fill="#093f68"/><circle cx="243.22" cy="164.83" fill="#ffbc0e" r="3.82"/><path d="m243.22 169.64a4.82 4.82 0 1 1 4.82-4.81 4.82 4.82 0 0 1 -4.82 4.81zm0-7.63a2.82 2.82 0 1 0 2.82 2.82 2.81 2.81 0 0 0 -2.82-2.83z" fill="#093f68"/><circle cx="230.84" cy="164.83" fill="#70cc40" r="3.82"/><path d="m230.84 169.64a4.82 4.82 0 1 1 4.82-4.81 4.82 4.82 0 0 1 -4.82 4.81zm0-7.63a2.82 2.82 0 1 0 2.82 2.82 2.81 2.81 0 0 0 -2.82-2.83z" fill="#093f68"/><circle cx="255.61" cy="196.72" fill="#f56132" r="3.82"/><path d="m255.61 201.54a4.82 4.82 0 1 1 4.81-4.82 4.82 4.82 0 0 1 -4.81 4.82zm0-7.63a2.82 2.82 0 1 0 2.81 2.81 2.82 2.82 0 0 0 -2.81-2.81z" fill="#093f68"/><circle cx="243.22" cy="196.72" fill="#ffbc0e" r="3.82"/><path d="m243.22 201.54a4.82 4.82 0 1 1 4.82-4.82 4.82 4.82 0 0 1 -4.82 4.82zm0-7.63a2.82 2.82 0 1 0 2.82 2.81 2.81 2.81 0 0 0 -2.82-2.81z" fill="#093f68"/><circle cx="230.84" cy="196.72" fill="#70cc40" r="3.82"/><g fill="#093f68"><path d="m230.84 201.54a4.82 4.82 0 1 1 4.82-4.82 4.82 4.82 0 0 1 -4.82 4.82zm0-7.63a2.82 2.82 0 1 0 2.82 2.81 2.81 2.81 0 0 0 -2.82-2.81z"/><path d="m182.21 151h-20.73a1 1 0 0 1 0-2h20.73a1 1 0 1 1 0 2z"/><path d="m172.33 201.54h-10.85a1 1 0 0 1 0-2h9.85v-99.08h-9.85a1 1 0 0 1 0-2h10.85a1 1 0 0 1 1 1v101.08a1 1 0 0 1 -1 1z"/></g><path d="m150.58 121.29h-43.76a2.26 2.26 0 0 1 -2.26-2.26v-25.9l10-9.43h36.07a2.26 2.26 0 0 1 2.21 2.3v33a2.26 2.26 0 0 1 -2.26 2.29z" fill="#fff"/><path d="m150.58 122.29h-43.76a3.26 3.26 0 0 1 -3.26-3.26v-25.9a1 1 0 0 1 .31-.72l9.95-9.41a1 1 0 0 1 .69-.28h36.07a3.27 3.27 0 0 1 3.26 3.28v33a3.26 3.26 0 0 1 -3.26 3.29zm-45-28.73v25.44a1.26 1.26 0 0 0 1.26 1.26h43.76a1.26 1.26 0 0 0 1.26-1.26v-33a1.26 1.26 0 0 0 -1.26-1.26h-35.69z" fill="#093f68"/><path d="m104.56 93.13h8.81a1.32 1.32 0 0 0 1.32-1.32v-8.11z" fill="#fff"/><path d="m113.37 94.13h-8.81a1 1 0 0 1 -.68-1.73l10.12-9.4a1 1 0 0 1 1.08-.18 1 1 0 0 1 .6.91v8.11a2.32 2.32 0 0 1 -2.31 2.29zm-6.27-2h6.27a.32.32 0 0 0 .32-.32v-5.81z" fill="#093f68"/><path d="m143.72 98.26h-30a1 1 0 0 1 0-2h30a1 1 0 0 1 0 2z" fill="#dfeaef"/><path d="m143.72 105.21h-30a1 1 0 0 1 0-2h30a1 1 0 0 1 0 2z" fill="#dfeaef"/><path d="m137.52 112.15h-23.84a1 1 0 0 1 0-2h23.84a1 1 0 0 1 0 2z" fill="#dfeaef"/><path d="m150.58 168.79h-43.76a2.26 2.26 0 0 1 -2.26-2.26v-25.89l10-9.43h36.07a2.26 2.26 0 0 1 2.26 2.26v33.06a2.26 2.26 0 0 1 -2.31 2.26z" fill="#fff"/><path d="m150.58 169.79h-43.76a3.26 3.26 0 0 1 -3.26-3.26v-25.89a1 1 0 0 1 .31-.73l9.95-9.43a1 1 0 0 1 .69-.27h36.07a3.26 3.26 0 0 1 3.26 3.26v33.06a3.26 3.26 0 0 1 -3.26 3.26zm-45-28.72v25.46a1.25 1.25 0 0 0 1.26 1.26h43.76a1.25 1.25 0 0 0 1.26-1.26v-33.06a1.25 1.25 0 0 0 -1.26-1.26h-35.69z" fill="#093f68"/><path d="m104.56 140.64h8.81a1.33 1.33 0 0 0 1.32-1.33v-8.1z" fill="#fff"/><path d="m113.37 141.64h-8.81a1 1 0 0 1 -.68-1.74l10.12-9.42a1 1 0 0 1 1.68.73v8.1a2.33 2.33 0 0 1 -2.31 2.33zm-6.27-2h6.27a.32.32 0 0 0 .32-.33v-5.81z" fill="#093f68"/><path d="m143.72 145.77h-30a1 1 0 0 1 0-2h30a1 1 0 0 1 0 2z" fill="#dfeaef"/><path d="m143.72 152.71h-30a1 1 0 1 1 0-2h30a1 1 0 0 1 0 2z" fill="#dfeaef"/><path d="m137.52 159.66h-23.84a1 1 0 0 1 0-2h23.84a1 1 0 0 1 0 2z" fill="#dfeaef"/><path d="m150.58 216.3h-43.76a2.26 2.26 0 0 1 -2.26-2.26v-25.9l10-9.43h36.07a2.26 2.26 0 0 1 2.26 2.26v33.03a2.26 2.26 0 0 1 -2.31 2.3z" fill="#fff"/><path d="m150.58 217.3h-43.76a3.27 3.27 0 0 1 -3.26-3.26v-25.9a1 1 0 0 1 .31-.72l9.95-9.43a1 1 0 0 1 .69-.28h36.07a3.26 3.26 0 0 1 3.26 3.26v33.03a3.27 3.27 0 0 1 -3.26 3.3zm-45-28.73v25.43a1.26 1.26 0 0 0 1.26 1.26h43.76a1.26 1.26 0 0 0 1.26-1.26v-33a1.26 1.26 0 0 0 -1.26-1.26h-35.69z" fill="#093f68"/><path d="m104.56 188.14h8.81a1.32 1.32 0 0 0 1.32-1.32v-8.11z" fill="#fff"/><path d="m113.37 189.14h-8.81a1 1 0 0 1 -.68-1.73l10.12-9.41a1 1 0 0 1 1.08-.18 1 1 0 0 1 .6.91v8.11a2.32 2.32 0 0 1 -2.31 2.3zm-6.27-2h6.27a.32.32 0 0 0 .32-.32v-5.82z" fill="#093f68"/><path d="m143.72 193.27h-30a1 1 0 0 1 0-2h30a1 1 0 0 1 0 2z" fill="#dfeaef"/><path d="m143.72 200.21h-30a1 1 0 1 1 0-2h30a1 1 0 0 1 0 2z" fill="#dfeaef"/><path d="m137.52 207.16h-23.84a1 1 0 0 1 0-2h23.84a1 1 0 0 1 0 2z" fill="#dfeaef"/></svg>