<?xml version="1.0"?>
<svg width="400" height="300" xmlns="http://www.w3.org/2000/svg">
 <g class="layer">
  <title>Layer 1</title>
  <path d="m77.76,248.22l244.48,0a0,0 0 0 1 0,0l0,5.12a4.81,4.81 0 0 1 -4.81,4.81l-234.87,0a4.81,4.81 0 0 1 -4.81,-4.81l0,-5.12a0,0 0 0 1 0.01,0z" id="svg_1"/>
  <path d="m318.35,252.49l-236.7,0a3.88,3.88 0 0 1 -3.65,-5.13l19.7,-58.26a12.79,12.79 0 0 1 12.1,-8.67l180.4,0a12.79,12.79 0 0 1 12.1,8.67l19.7,58.26a3.88,3.88 0 0 1 -3.65,5.13z" fill="#fff" id="svg_2"/>
  <path d="m318.35,253l-236.7,0a4.36,4.36 0 0 1 -4.12,-5.74l19.74,-58.26a13.22,13.22 0 0 1 12.53,-9l180.4,0a13.22,13.22 0 0 1 12.53,9l19.74,58.25a4.36,4.36 0 0 1 -4.12,5.74l0,0.01zm-208.55,-72.12a12.33,12.33 0 0 0 -11.67,8.37l-19.73,58.25a3.43,3.43 0 0 0 3.25,4.5l236.7,0a3.43,3.43 0 0 0 3.25,-4.53l-19.73,-58.25a12.33,12.33 0 0 0 -11.67,-8.37l-180.4,0.03z" fill="#231f20" id="svg_3"/>
  <path d="m296,218.3l-191.6,0a3.2,3.2 0 0 1 -3.07,-4.12l7,-23.64a3.55,3.55 0 0 1 3.39,-2.53l176.09,0a4,4 0 0 1 3.8,2.83l7.07,23.82a2.83,2.83 0 0 1 -2.68,3.64zm-184.25,-29.3a2.55,2.55 0 0 0 -2.44,1.81l-7,23.65a2.21,2.21 0 0 0 2.11,2.83l191.58,0a1.84,1.84 0 0 0 1.76,-2.36l-7.08,-23.82a3,3 0 0 0 -2.84,-2.11l-176.09,0z" fill="#d1d3d4" id="svg_4"/>
  <path d="m230.25,244.62l-60.5,0a3.36,3.36 0 0 1 -2.65,-1.27a3.39,3.39 0 0 1 -0.68,-2.86l2.89,-13.15a5.26,5.26 0 0 1 5.09,-4.09l51.2,0a5.26,5.26 0 0 1 5.09,4.09l2.89,13.15a3.39,3.39 0 0 1 -0.68,2.86a3.36,3.36 0 0 1 -2.65,1.27zm-55.85,-20.37a4.23,4.23 0 0 0 -4.11,3.31l-2.89,13.14a2.4,2.4 0 0 0 2.35,2.92l60.5,0a2.4,2.4 0 0 0 2.35,-2.92l-2.89,-13.14a4.23,4.23 0 0 0 -4.11,-3.31l-51.2,0z" fill="#d1d3d4" id="svg_5"/>
  <rect fill="#231f20" height="125.65" id="svg_6" rx="6.51" width="198.88" x="100.56" y="54.78"/>
  <path d="m292.93,180.93l-185.86,0a7,7 0 0 1 -7,-7l0,-112.64a7,7 0 0 1 7,-7l185.86,0a7,7 0 0 1 7,7l0,112.63a7,7 0 0 1 -7,7.01zm-185.86,-125.65a6,6 0 0 0 -6,6l0,112.64a6,6 0 0 0 6,6l185.86,0a6,6 0 0 0 6,-6l0,-112.63a6,6 0 0 0 -6,-6l-185.86,-0.01z" fill="#231f20" id="svg_7"/>
  <path d="m110.09,63.44l179.83,0l0,108.15l-179.83,0l0,-108.15z" fill="#e6e7e8" id="svg_8"/>
  <path d="m138.08,66.29l0,139.25c0,13.46 27.72,24.46 61.92,24.46s61.92,-10.94 61.92,-24.43l0,-139.28l-123.84,0z" fill="#1e3a8a" id="svg_9"/>
  <path d="m200,230.47c-34.42,0 -62.42,-11.19 -62.42,-24.93l0,-139.25a0.5,0.5 0 0 1 0.5,-0.5l123.84,0a0.5,0.5 0 0 1 0.5,0.5l0,139.25c0,13.74 -28,24.93 -62.42,24.93zm-61.42,-163.68l0,138.75c0,13.19 27.55,23.93 61.42,23.93s61.42,-10.74 61.42,-23.93l0,-138.75l-122.84,0z" fill="#231f20" id="svg_10"/>
  <ellipse cx="200" cy="66.29" fill="#1e3a8a" id="svg_11" rx="61.92" ry="24.43" transform="matrix(1 0 0 1 0 0)"/>
  <g fill="#231f20" id="svg_12">
   <path d="m200,91.22c-34.42,0 -62.42,-11.19 -62.42,-24.93s28,-24.94 62.42,-24.94s62.42,11.19 62.42,24.94s-28,24.93 -62.42,24.93zm0,-48.87c-33.87,0 -61.42,10.74 -61.42,23.94s27.55,23.93 61.42,23.93s61.42,-10.74 61.42,-23.93s-27.55,-23.94 -61.42,-23.94z" id="svg_13"/>
   <path d="m200,133.49c-34.42,0 -62.42,-11.18 -62.42,-24.93a0.5,0.5 0 0 1 0.5,-0.5a0.5,0.5 0 0 1 0.5,0.5c0,13.2 27.55,23.93 61.42,23.93s61.42,-10.73 61.42,-23.93a0.5,0.5 0 0 1 0.5,-0.5a0.5,0.5 0 0 1 0.5,0.5c0,13.75 -28,24.93 -62.42,24.93z" id="svg_14"/>
   <path d="m200,181.4c-34.42,0 -62.42,-11.19 -62.42,-24.94a0.5,0.5 0 0 1 0.5,-0.5a0.51,0.51 0 0 1 0.5,0.5c0,13.2 27.55,23.94 61.42,23.94s61.42,-10.74 61.42,-23.94a0.51,0.51 0 0 1 0.5,-0.5a0.5,0.5 0 0 1 0.5,0.5c0,13.75 -28,24.94 -62.42,24.94z" id="svg_15"/>
   <path d="m154,91.22l-0.17,0c-6.86,-2.43 -9.86,-6.14 -10,-6.3a0.5,0.5 0 1 1 0.78,-0.62s3,3.65 9.54,6a0.5,0.5 0 0 1 -0.17,1l0.02,-0.08z" id="svg_16"/>
   <path d="m159,92.68l-0.11,0l-2.25,-0.47a0.5,0.5 0 0 1 0.2,-1l2.26,0.47a0.5,0.5 0 0 1 0.38,0.6a0.48,0.48 0 0 1 -0.48,0.4z" id="svg_17"/>
   <path d="m154,135.83l-0.17,0c-6.86,-2.43 -9.86,-6.14 -10,-6.3a0.5,0.5 0 0 1 0.08,-0.7a0.5,0.5 0 0 1 0.7,0.08s3,3.65 9.54,6a0.5,0.5 0 0 1 -0.17,1l0.02,-0.08z" id="svg_18"/>
   <path d="m159,137.29l-0.11,0l-2.25,-0.47a0.5,0.5 0 0 1 0.2,-1l2.26,0.47a0.49,0.49 0 0 1 0.38,0.59a0.48,0.48 0 0 1 -0.48,0.41z" id="svg_19"/>
   <path d="m154,180.44l-0.17,0c-6.86,-2.43 -9.86,-6.14 -10,-6.3a0.5,0.5 0 0 1 0.08,-0.7a0.5,0.5 0 0 1 0.7,0.08s3,3.65 9.54,6a0.5,0.5 0 0 1 -0.17,1l0.02,-0.08z" id="svg_20"/>
   <path d="m159,181.9l-0.11,0l-2.25,-0.47a0.5,0.5 0 0 1 -0.39,-0.59a0.49,0.49 0 0 1 0.59,-0.38l2.26,0.47a0.49,0.49 0 0 1 0.38,0.59a0.48,0.48 0 0 1 -0.48,0.38z" id="svg_21"/>
  </g>
  <path d="m187.27,174.68c0.85,-2.49 1.68,-5 2.55,-7.45c0.46,-1.29 1,-2.55 1.5,-3.81a3.65,3.65 0 0 1 3.94,-2.41c2,0.22 4,0.65 6,1a18.92,18.92 0 0 0 3.24,0.42a3.61,3.61 0 0 0 2.23,-0.72c2.3,-2.19 4.51,-4.49 6.69,-6.81a3.45,3.45 0 0 0 0.68,-3.18c-0.51,-2.43 -1.1,-4.84 -1.6,-7.27a9.7,9.7 0 0 1 -0.26,-2.88a2.68,2.68 0 0 1 0.94,-1.84a44.25,44.25 0 0 1 12,-5.48a3,3 0 0 1 3.44,1.24c1.53,2.1 3.14,4.16 4.61,6.31a4.9,4.9 0 0 0 4.74,2.39c2.66,-0.2 5.32,-0.24 8,-0.37a3,3 0 0 0 2.41,-1.45c0.95,-1.4 1.84,-2.84 2.77,-4.26c0.8,-1.22 1.59,-2.44 2.44,-3.62a3.05,3.05 0 0 1 3.67,-1.27c3.69,1.27 7.37,2.58 11,4a3.21,3.21 0 0 1 2,3.55c-0.19,2.05 -0.66,4.06 -1,6.1c-0.16,1 -0.3,1.91 -0.38,2.88a4,4 0 0 0 1.23,3.38c1.94,1.83 3.91,3.63 5.78,5.54a4.35,4.35 0 0 0 4.32,1.22c2.63,-0.57 5.25,-1.21 7.88,-1.78a3.52,3.52 0 0 1 4.42,2.1q2.25,4.71 4.34,9.5c1,2.32 0.65,3.67 -1.36,5.25c-1.35,1.08 -2.81,2 -4.2,3c-1,0.74 -2,1.51 -2.91,2.32a3.39,3.39 0 0 0 -1.23,2.73c0.07,2.76 0.11,5.52 0.24,8.27a4.32,4.32 0 0 0 2.2,3.66c1.51,0.91 3,1.77 4.54,2.69a30.52,30.52 0 0 1 2.71,1.82a3.25,3.25 0 0 1 1.22,3.95c-1.21,3.33 -2.46,6.64 -3.71,10a8,8 0 0 1 -0.82,1.41a2.92,2.92 0 0 1 -3.09,1.45l-7.17,-1.26c-0.18,0 -0.36,0 -0.54,-0.09a5.16,5.16 0 0 0 -5.48,1.92c-1.35,1.6 -2.88,3 -4.33,4.55a5.19,5.19 0 0 0 -1.33,5.19c0.59,2.32 1.16,4.65 1.64,7s0,3.55 -2.25,4.64c-3.25,1.56 -6.54,3 -9.85,4.43a3.28,3.28 0 0 1 -4.36,-1.14c-1.28,-1.61 -2.45,-3.31 -3.65,-5c-2.57,-3.61 -3.21,-3.93 -7.64,-3.71c-1.73,0.09 -3.45,0.2 -5.17,0.3a4.74,4.74 0 0 0 -4.06,2.36c-1.06,1.74 -2.06,3.51 -3.16,5.21a16.82,16.82 0 0 1 -2,2.47a2.4,2.4 0 0 1 -2.73,0.7c-3.49,-1.29 -7,-2.58 -10.46,-3.9a7.41,7.41 0 0 1 -1.33,-0.77a2.92,2.92 0 0 1 -1.47,-3.08c0.38,-2.37 0.78,-4.73 1.15,-7.09c0.11,-0.72 0.17,-1.44 0.21,-2.17a3.78,3.78 0 0 0 -1.19,-3.2c-1.9,-1.74 -3.78,-3.5 -5.66,-5.27a4.17,4.17 0 0 0 -4.11,-1c-2.32,0.58 -4.66,1.09 -7,1.62l-0.27,0.07c-3.05,0.55 -4,0.15 -5.36,-2.65c-1.47,-3.12 -2.81,-6.3 -4.1,-9.5c-0.8,-2 -0.45,-3.06 1.26,-4.36s3.75,-2.78 5.71,-4.05a5.59,5.59 0 0 0 2.79,-5.5c-0.17,-2.48 -0.23,-5 -0.36,-7.45a3.08,3.08 0 0 0 -1.45,-2.59c-2.06,-1.32 -4.15,-2.62 -6.21,-3.95c-1.34,-0.88 -2.71,-1.75 -3.26,-3.4l0.02,-0.91zm79,13.86a23.55,23.55 0 0 0 -23.74,-23.6c-10.88,-0.05 -23.22,9.49 -23.21,23.63a23.59,23.59 0 0 0 23.35,23.43c15.14,0.06 24.23,-13 23.58,-23.46l0.02,0z" fill="#fff" id="svg_22"/>
  <path d="m229.24,244.51a2.83,2.83 0 0 1 -1.05,-0.2l-2.85,-1.06c-2.54,-0.94 -5.07,-1.88 -7.6,-2.84a7.29,7.29 0 0 1 -1.26,-0.7l-0.18,-0.12a3.44,3.44 0 0 1 -1.68,-3.58c0.16,-1 0.33,-2.09 0.51,-3.14c0.21,-1.32 0.43,-2.63 0.64,-4c0.09,-0.62 0.16,-1.29 0.21,-2.12a3.31,3.31 0 0 0 -1,-2.8c-1.65,-1.5 -3.27,-3 -4.9,-4.56l-0.76,-0.71a3.64,3.64 0 0 0 -3.65,-0.89c-1.63,0.4 -3.27,0.77 -4.9,1.14l-2.2,0.5l-0.19,0.05c-3.34,0.61 -4.5,0 -5.9,-2.93c-1.62,-3.43 -3.05,-6.89 -4.11,-9.52c-0.88,-2.16 -0.5,-3.5 1.42,-5c2.16,-1.64 4,-2.93 5.74,-4.07a5.12,5.12 0 0 0 2.57,-5.05c-0.11,-1.54 -0.17,-3.08 -0.24,-4.62c0,-0.94 -0.08,-1.89 -0.13,-2.83a2.58,2.58 0 0 0 -1.22,-2.2l-2.62,-1.66c-1.2,-0.76 -2.4,-1.52 -3.59,-2.29c-1.43,-0.93 -2.87,-1.86 -3.46,-3.66a0.45,0.45 0 0 1 0,-0.16l0,-0.91a0.41,0.41 0 0 1 0,-0.16l0.76,-2.23c0.59,-1.75 1.18,-3.49 1.79,-5.23c0.48,-1.34 1,-2.63 1.51,-3.83a4.17,4.17 0 0 1 4.45,-2.72c1.34,0.15 2.69,0.39 4,0.62c0.68,0.12 1.36,0.25 2,0.35l0.8,0.14a11.41,11.41 0 0 0 2.35,0.28a3.19,3.19 0 0 0 1.89,-0.58c2.45,-2.34 4.75,-4.74 6.67,-6.79a2.89,2.89 0 0 0 0.56,-2.73c-0.23,-1.08 -0.47,-2.15 -0.71,-3.22c-0.3,-1.35 -0.61,-2.7 -0.89,-4.06a10.67,10.67 0 0 1 -0.27,-3a3.19,3.19 0 0 1 1.17,-2.21a44.11,44.11 0 0 1 12.15,-5.54a3.48,3.48 0 0 1 4,1.42c0.54,0.75 1.09,1.48 1.65,2.22c1,1.33 2,2.71 3,4.11a4.39,4.39 0 0 0 4.28,2.17c1.73,-0.13 3.49,-0.19 5.19,-0.26l2.81,-0.11a2.52,2.52 0 0 0 2,-1.22c0.56,-0.83 1.1,-1.68 1.64,-2.52c0.37,-0.58 0.75,-1.17 1.13,-1.74l0.4,-0.62c0.66,-1 1.33,-2 2,-3a3.57,3.57 0 0 1 4.24,-1.45c4.44,1.53 7.84,2.76 11,4a3.7,3.7 0 0 1 2.3,4.07c-0.13,1.37 -0.38,2.75 -0.63,4.07c-0.12,0.69 -0.25,1.37 -0.36,2c-0.14,0.9 -0.29,1.87 -0.37,2.85a3.44,3.44 0 0 0 1.08,3l1.36,1.28c1.47,1.38 3,2.81 4.43,4.27a3.81,3.81 0 0 0 3.85,1.09c1.28,-0.27 2.56,-0.57 3.83,-0.86s2.7,-0.63 4.06,-0.92a4,4 0 0 1 5,2.37c1.5,3.15 3,6.35 4.34,9.52c1.1,2.52 0.7,4.11 -1.5,5.85c-0.8,0.63 -1.65,1.23 -2.48,1.8c-0.58,0.41 -1.16,0.81 -1.73,1.24c-1.06,0.78 -2,1.53 -2.88,2.3a2.86,2.86 0 0 0 -1.06,2.34l0,1.71c0.05,2.15 0.09,4.37 0.2,6.55a3.78,3.78 0 0 0 2,3.25c0.64,0.39 1.29,0.77 1.94,1.15c0.87,0.51 1.74,1 2.6,1.54a30,30 0 0 1 2.76,1.86a3.76,3.76 0 0 1 1.38,4.51c-1.15,3.16 -2.37,6.41 -3.72,9.95a6.4,6.4 0 0 1 -0.79,1.4l-0.02,0.14a3.45,3.45 0 0 1 -3.59,1.67l-4.68,-0.78l-2.68,-0.45a2.32,2.32 0 0 1 -0.38,-0.06a4.66,4.66 0 0 0 -5,1.76c-0.95,1.12 -2,2.19 -3,3.22l-1.32,1.35a4.68,4.68 0 0 0 -1.2,4.72c0.56,2.22 1.15,4.6 1.64,7c0.55,2.74 -0.06,4 -2.53,5.19c-3,1.42 -6.18,2.88 -9.86,4.44a3.79,3.79 0 0 1 -4.95,-1.29c-1.06,-1.33 -2.06,-2.74 -3,-4.1l-0.65,-0.91c-2.48,-3.49 -3,-3.72 -7.2,-3.5l-2.94,0.17l-2.24,0.12a4.27,4.27 0 0 0 -3.66,2.13l-1,1.75c-0.68,1.15 -1.38,2.33 -2.12,3.47a16.37,16.37 0 0 1 -2,2.55a3.08,3.08 0 0 1 -2.4,1.06zm-22.45,-27.82a4.51,4.51 0 0 1 3.21,1.31l0.75,0.71c1.63,1.53 3.25,3 4.9,4.55a4.26,4.26 0 0 1 1.35,3.6a18.5,18.5 0 0 1 -0.22,2.22c-0.2,1.32 -0.42,2.63 -0.64,3.95l-0.51,3.13a2.45,2.45 0 0 0 1.25,2.59l0.19,0.12a5.39,5.39 0 0 0 1.05,0.6c2.53,1 5.06,1.9 7.6,2.85l2.85,1.06a1.91,1.91 0 0 0 2.2,-0.59a16.06,16.06 0 0 0 1.93,-2.39c0.73,-1.12 1.42,-2.3 2.1,-3.44c0.35,-0.58 0.69,-1.17 1,-1.75a5.22,5.22 0 0 1 4.46,-2.61l2.23,-0.13l2.94,-0.17c4.58,-0.23 5.41,0.17 8.08,3.92l0.65,0.91c0.95,1.35 1.94,2.75 3,4.06a2.81,2.81 0 0 0 3.78,1c3.66,-1.56 6.87,-3 9.82,-4.42c2,-1 2.44,-1.82 2,-4.09s-1.07,-4.76 -1.63,-7a5.68,5.68 0 0 1 1.45,-5.67l1.33,-1.36c1,-1 2.05,-2.06 3,-3.16a5.61,5.61 0 0 1 6,-2.08l0.29,0l0.22,0l2.49,0.42l4.68,0.78a2.44,2.44 0 0 0 2.59,-1.24l0.08,-0.12a6.09,6.09 0 0 0 0.69,-1.19c1.34,-3.54 2.56,-6.79 3.71,-9.94a2.75,2.75 0 0 0 -1.06,-3.38a30.56,30.56 0 0 0 -2.66,-1.8c-0.86,-0.52 -1.72,-1 -2.59,-1.53c-0.65,-0.38 -1.3,-0.76 -1.94,-1.15a4.83,4.83 0 0 1 -2.45,-4.07c-0.1,-2.19 -0.15,-4.42 -0.2,-6.57l0,-1.71a3.91,3.91 0 0 1 1.4,-3.12c0.9,-0.78 1.87,-1.55 2.94,-2.35l1.76,-1.25c0.81,-0.56 1.65,-1.15 2.43,-1.77c1.84,-1.46 2.13,-2.55 1.21,-4.66c-1.38,-3.16 -2.83,-6.35 -4.33,-9.49a3.05,3.05 0 0 0 -3.86,-1.82c-1.35,0.29 -2.7,0.6 -4,0.91l-3.84,0.87a4.8,4.8 0 0 1 -4.78,-1.36c-1.43,-1.45 -2.94,-2.88 -4.41,-4.25l-1.36,-1.28a4.45,4.45 0 0 1 -1.38,-3.78c0.08,-1 0.23,-2 0.37,-2.92c0.12,-0.7 0.24,-1.39 0.37,-2.08c0.24,-1.3 0.49,-2.66 0.62,-4a2.79,2.79 0 0 0 -1.67,-3c-3.18,-1.22 -6.57,-2.44 -11,-4a2.57,2.57 0 0 0 -3.11,1.08c-0.69,1 -1.36,2 -2,3l-0.41,0.62c-0.38,0.58 -0.75,1.16 -1.12,1.74c-0.55,0.85 -1.09,1.7 -1.65,2.53a3.51,3.51 0 0 1 -2.8,1.67l-2.82,0.11c-1.69,0.07 -3.44,0.13 -5.15,0.26a5.39,5.39 0 0 1 -5.19,-2.61c-0.94,-1.38 -2,-2.75 -3,-4.07c-0.56,-0.74 -1.11,-1.48 -1.66,-2.23a2.48,2.48 0 0 0 -2.9,-1a42.83,42.83 0 0 0 -11.87,5.41a2.26,2.26 0 0 0 -0.72,1.47a9.89,9.89 0 0 0 0.26,2.73c0.28,1.35 0.58,2.7 0.89,4c0.24,1.08 0.48,2.15 0.71,3.23a3.89,3.89 0 0 1 -0.81,3.62c-1.93,2.06 -4.24,4.48 -6.71,6.83a4.06,4.06 0 0 1 -2.56,0.86a13.37,13.37 0 0 1 -2.55,-0.29l-0.78,-0.14l-2.06,-0.35c-1.28,-0.23 -2.61,-0.47 -3.92,-0.62a3.15,3.15 0 0 0 -3.42,2.12c-0.5,1.18 -1,2.46 -1.49,3.78c-0.61,1.73 -1.2,3.47 -1.79,5.21l-0.73,2.15l0,0.75c0.5,1.42 1.72,2.2 3,3s2.42,1.56 3.62,2.31l2.62,1.67a3.62,3.62 0 0 1 1.68,3c0.05,0.94 0.09,1.89 0.13,2.84c0.06,1.53 0.13,3.07 0.23,4.6a6.09,6.09 0 0 1 -3,6c-1.73,1.12 -3.54,2.4 -5.68,4c-1.54,1.17 -1.8,2 -1.1,3.78c1.06,2.61 2.49,6 4.1,9.47c1.2,2.54 1.92,2.9 4.81,2.36l2.34,-0.53c1.64,-0.37 3.27,-0.74 4.89,-1.14a5.85,5.85 0 0 1 1.28,-0.09zm35.92,-4.15l-0.05,0a24,24 0 0 1 -23.86,-24a23.71,23.71 0 0 1 7.09,-16.93a24.14,24.14 0 0 1 16.53,-7.2l0.09,0a24,24 0 0 1 24.24,24.09c0.35,5.67 -2.05,11.83 -6.43,16.48a23.89,23.89 0 0 1 -17.61,7.56zm-0.29,-47.1a23.14,23.14 0 0 0 -15.83,6.91a22.91,22.91 0 0 0 16.08,39.19a22.92,22.92 0 0 0 16.88,-7.21c4.2,-4.46 6.5,-10.35 6.16,-15.76a23,23 0 0 0 -23.24,-23.1l-0.05,-0.03z" fill="#231f20" id="svg_23"/>
  <path d="m262.17,105.41c0.42,-1.24 0.83,-2.48 1.27,-3.72c0.23,-0.64 0.49,-1.27 0.75,-1.9a1.83,1.83 0 0 1 2,-1.21c1,0.11 2,0.32 3,0.48a9,9 0 0 0 1.62,0.21a1.7,1.7 0 0 0 1.11,-0.36c1.15,-1.09 2.26,-2.24 3.34,-3.4a1.71,1.71 0 0 0 0.35,-1.59c-0.26,-1.21 -0.55,-2.42 -0.8,-3.63a5,5 0 0 1 -0.14,-1.44a1.36,1.36 0 0 1 0.48,-0.92a22,22 0 0 1 6,-2.74a1.51,1.51 0 0 1 1.72,0.62c0.76,1 1.57,2.08 2.3,3.15a2.44,2.44 0 0 0 2.37,1.2c1.33,-0.1 2.66,-0.12 4,-0.19a1.47,1.47 0 0 0 1.2,-0.72c0.48,-0.7 0.93,-1.42 1.39,-2.13s0.79,-1.22 1.22,-1.81a1.51,1.51 0 0 1 1.83,-0.63q2.78,0.94 5.5,2a1.62,1.62 0 0 1 1,1.78c-0.1,1 -0.33,2 -0.5,3c-0.07,0.47 -0.14,1 -0.18,1.44a2,2 0 0 0 0.61,1.69c1,0.91 1.95,1.81 2.89,2.76a2.18,2.18 0 0 0 2.16,0.62c1.31,-0.29 2.62,-0.61 3.94,-0.89a1.74,1.74 0 0 1 2.2,1c0.75,1.56 1.48,3.15 2.17,4.74a1.87,1.87 0 0 1 -0.68,2.63c-0.67,0.54 -1.4,1 -2.09,1.52c-0.5,0.37 -1,0.75 -1.46,1.16a1.65,1.65 0 0 0 -0.61,1.36c0,1.38 0.05,2.76 0.11,4.13a2.17,2.17 0 0 0 1.11,1.83c0.75,0.46 1.51,0.89 2.26,1.35a14,14 0 0 1 1.36,0.91a1.62,1.62 0 0 1 0.61,2q-0.92,2.49 -1.86,5a3.19,3.19 0 0 1 -0.41,0.71a1.46,1.46 0 0 1 -1.54,0.73l-3.58,-0.6l-0.27,0a2.56,2.56 0 0 0 -2.74,1c-0.68,0.79 -1.44,1.51 -2.16,2.27a2.57,2.57 0 0 0 -0.67,2.59c0.29,1.16 0.58,2.32 0.82,3.5a1.71,1.71 0 0 1 -1.13,2.31q-2.43,1.17 -4.92,2.22a1.64,1.64 0 0 1 -2.18,-0.57c-0.64,-0.81 -1.22,-1.66 -1.82,-2.5c-1.29,-1.8 -1.61,-2 -3.82,-1.85l-2.59,0.15a2.38,2.38 0 0 0 -2,1.18c-0.52,0.87 -1,1.75 -1.57,2.61a8.4,8.4 0 0 1 -1,1.23a1.2,1.2 0 0 1 -1.36,0.35c-1.75,-0.65 -3.49,-1.29 -5.23,-1.95a3.72,3.72 0 0 1 -0.67,-0.38a1.48,1.48 0 0 1 -0.73,-1.55c0.19,-1.18 0.39,-2.36 0.57,-3.54a9.88,9.88 0 0 0 0.11,-1.08a1.87,1.87 0 0 0 -0.6,-1.6c-1,-0.87 -1.88,-1.75 -2.82,-2.63a2.08,2.08 0 0 0 -2.06,-0.51c-1.16,0.29 -2.33,0.54 -3.49,0.81l-0.13,0c-1.53,0.28 -2,0.08 -2.68,-1.32c-0.74,-1.56 -1.41,-3.15 -2.06,-4.75a1.58,1.58 0 0 1 0.63,-2.18c0.93,-0.7 1.88,-1.39 2.86,-2a2.81,2.81 0 0 0 1.4,-2.75c-0.09,-1.24 -0.12,-2.48 -0.19,-3.72a1.53,1.53 0 0 0 -0.72,-1.3l-3.1,-2a3.41,3.41 0 0 1 -1.63,-1.7l-0.07,-0.48zm39.47,6.93a11.76,11.76 0 0 0 -11.87,-11.79a12,12 0 0 0 -11.6,11.8a11.79,11.79 0 0 0 11.68,11.73a11.64,11.64 0 0 0 11.79,-11.74z" fill="#fff" id="svg_24"/>
  <path d="m283.15,140.57a1.75,1.75 0 0 1 -0.62,-0.12l-1.48,-0.55l-3.75,-1.4a3.9,3.9 0 0 1 -0.67,-0.38l-0.09,-0.06a1.93,1.93 0 0 1 -1,-2l0.25,-1.56c0.11,-0.66 0.22,-1.32 0.32,-2c0,-0.35 0.08,-0.69 0.1,-1a1.37,1.37 0 0 0 -0.43,-1.2l-2.53,-2.35l-0.3,-0.29a1.6,1.6 0 0 0 -1.6,-0.38l-2.49,0.58l-1,0.23l-0.16,0c-1.78,0.33 -2.47,0 -3.22,-1.6c-0.63,-1.35 -1.27,-2.82 -2.06,-4.77a2.06,2.06 0 0 1 0.79,-2.77c1.08,-0.82 2,-1.47 2.89,-2a2.3,2.3 0 0 0 1.17,-2.3c-0.06,-0.77 -0.09,-1.54 -0.12,-2.32c0,-0.47 0,-0.94 -0.07,-1.41a1.06,1.06 0 0 0 -0.49,-0.9l-1.3,-0.82l-1.77,-1.2a3.93,3.93 0 0 1 -1.83,-2a0.77,0.77 0 0 1 0,-0.15l0,-0.46a0.88,0.88 0 0 1 0,-0.16l0.37,-1.09c0.3,-0.88 0.6,-1.76 0.91,-2.64c0.23,-0.65 0.49,-1.29 0.76,-1.93a2.31,2.31 0 0 1 2.48,-1.51c0.68,0.08 1.35,0.2 2,0.31q0.51,0.1 1,0.18l0.4,0.07a5.68,5.68 0 0 0 1.13,0.13a1.32,1.32 0 0 0 0.78,-0.22c1.22,-1.16 2.36,-2.36 3.32,-3.38a1.23,1.23 0 0 0 0.22,-1.14l-0.36,-1.61c-0.15,-0.68 -0.3,-1.35 -0.44,-2a5.13,5.13 0 0 1 -0.14,-1.59a1.79,1.79 0 0 1 0.7,-1.29a22.17,22.17 0 0 1 6.14,-2.8a2,2 0 0 1 2.25,0.81l0.82,1.1c0.51,0.68 1,1.36 1.5,2.06a1.93,1.93 0 0 0 1.91,1c0.88,-0.07 1.75,-0.1 2.63,-0.13l1.38,0a1,1 0 0 0 0.81,-0.51c0.28,-0.41 0.54,-0.83 0.81,-1.24l0.57,-0.88l0.22,-0.34c0.33,-0.5 0.66,-1 1,-1.49a2,2 0 0 1 2.4,-0.81c2.22,0.76 3.92,1.37 5.52,2a2.1,2.1 0 0 1 1.31,2.29c-0.06,0.69 -0.19,1.39 -0.31,2.05c-0.07,0.34 -0.13,0.68 -0.18,1a13.07,13.07 0 0 0 -0.18,1.4a1.47,1.47 0 0 0 0.45,1.28l0.7,0.66c0.74,0.7 1.49,1.39 2.21,2.12a1.66,1.66 0 0 0 1.69,0.48l1.91,-0.43c0.68,-0.16 1.35,-0.32 2,-0.46a2.26,2.26 0 0 1 2.77,1.32c0.75,1.58 1.48,3.18 2.17,4.76a2.34,2.34 0 0 1 -0.83,3.22c-0.4,0.32 -0.82,0.62 -1.25,0.91l-0.86,0.62c-0.52,0.38 -1,0.76 -1.42,1.13a1.21,1.21 0 0 0 -0.44,1l0,0.86c0,1.09 0,2.17 0.09,3.26a1.68,1.68 0 0 0 0.87,1.43l0.93,0.55l1.33,0.79a16.43,16.43 0 0 1 1.41,0.94a2.12,2.12 0 0 1 0.77,2.54q-0.92,2.5 -1.86,5a3.49,3.49 0 0 1 -0.42,0.74a2,2 0 0 1 -2.08,1l-2.76,-0.46l-0.83,-0.14l-0.3,0a2.07,2.07 0 0 0 -2.24,0.8c-0.48,0.57 -1,1.11 -1.53,1.62l-0.65,0.67a2.09,2.09 0 0 0 -0.55,2.13c0.29,1.12 0.58,2.32 0.83,3.52a2.21,2.21 0 0 1 -1.4,2.87c-1.47,0.7 -3.08,1.43 -4.94,2.22a2.13,2.13 0 0 1 -2.77,-0.72c-0.53,-0.67 -1,-1.38 -1.52,-2.06l-0.32,-0.46c-1.19,-1.67 -1.35,-1.74 -3.39,-1.64l-1.45,0.08l-1.13,0.07a1.9,1.9 0 0 0 -1.63,0.94c-0.18,0.29 -0.35,0.59 -0.52,0.88c-0.35,0.58 -0.7,1.17 -1.06,1.74a9.23,9.23 0 0 1 -1.06,1.31a1.76,1.76 0 0 1 -1.19,0.45zm-11.24,-14.41a2.5,2.5 0 0 1 1.77,0.72l0.3,0.29l2.52,2.34a2.37,2.37 0 0 1 0.76,2a11,11 0 0 1 -0.11,1.14c-0.1,0.66 -0.21,1.32 -0.32,2l-0.26,1.56a1,1 0 0 0 0.52,1l0.09,0.06a2.38,2.38 0 0 0 0.48,0.27l3.74,1.4l1.48,0.55a0.7,0.7 0 0 0 0.83,-0.23a7.85,7.85 0 0 0 0.94,-1.16c0.36,-0.55 0.7,-1.13 1,-1.7c0.17,-0.3 0.35,-0.59 0.53,-0.89a2.86,2.86 0 0 1 2.43,-1.42l1.12,-0.07l1.46,-0.08c2.39,-0.12 2.87,0.11 4.26,2.06l0.32,0.46c0.48,0.67 1,1.37 1.48,2a1.16,1.16 0 0 0 1.6,0.42c1.84,-0.79 3.44,-1.51 4.9,-2.21c0.91,-0.44 1.06,-0.73 0.85,-1.76s-0.53,-2.37 -0.81,-3.47a3.07,3.07 0 0 1 0.79,-3.07l0.66,-0.68c0.5,-0.5 1,-1 1.48,-1.57a3.07,3.07 0 0 1 3.28,-1.12l0.12,0l0.12,0l0.82,0.13l2.76,0.46a1,1 0 0 0 1.05,-0.51a2.9,2.9 0 0 0 0.35,-0.6c0.63,-1.66 1.25,-3.31 1.86,-5a1.13,1.13 0 0 0 -0.45,-1.41a15,15 0 0 0 -1.31,-0.88l-1.31,-0.78l-0.95,-0.56a2.65,2.65 0 0 1 -1.35,-2.23c-0.05,-1.1 -0.07,-2.19 -0.09,-3.29l0,-0.86a2.16,2.16 0 0 1 0.78,-1.75c0.46,-0.4 0.95,-0.79 1.49,-1.19l0.88,-0.63c0.41,-0.28 0.82,-0.56 1.2,-0.87a1.4,1.4 0 0 0 0.53,-2c-0.68,-1.57 -1.41,-3.16 -2.16,-4.73a1.28,1.28 0 0 0 -1.65,-0.78l-2,0.46l-1.93,0.43a2.64,2.64 0 0 1 -2.62,-0.75c-0.7,-0.71 -1.44,-1.4 -2.18,-2.1l-0.69,-0.65a2.46,2.46 0 0 1 -0.77,-2.09c0,-0.5 0.11,-1 0.19,-1.48l0.18,-1c0.12,-0.64 0.25,-1.31 0.31,-2a1.14,1.14 0 0 0 -0.68,-1.26c-1.58,-0.61 -3.27,-1.22 -5.48,-2a1,1 0 0 0 -1.27,0.45c-0.34,0.48 -0.66,1 -1,1.46l-0.22,0.33l-0.57,0.88c-0.27,0.42 -0.54,0.84 -0.82,1.26a2,2 0 0 1 -1.59,0.94l-1.4,0.06c-0.86,0 -1.72,0.06 -2.58,0.13a3,3 0 0 1 -2.82,-1.41c-0.47,-0.69 -1,-1.36 -1.47,-2c-0.28,-0.37 -0.56,-0.74 -0.83,-1.12a1,1 0 0 0 -1.18,-0.42a21.19,21.19 0 0 0 -5.87,2.67a1,1 0 0 0 -0.24,0.55a4.68,4.68 0 0 0 0.13,1.29c0.13,0.67 0.29,1.34 0.44,2s0.24,1.08 0.35,1.62a2.16,2.16 0 0 1 -0.46,2c-1,1 -2.12,2.25 -3.36,3.43a2.31,2.31 0 0 1 -1.45,0.49a6.45,6.45 0 0 1 -1.33,-0.15l-0.38,-0.06l-1,-0.18c-0.64,-0.12 -1.29,-0.23 -1.94,-0.3a1.33,1.33 0 0 0 -1.45,0.9c-0.26,0.62 -0.51,1.24 -0.74,1.87c-0.31,0.88 -0.6,1.75 -0.9,2.63l-0.34,1l0,0.28a3,3 0 0 0 1.38,1.35l1.82,1.16l1.3,0.83a2,2 0 0 1 0.95,1.69c0,0.48 0.05,1 0.07,1.42c0,0.77 0.06,1.53 0.11,2.3a3.26,3.26 0 0 1 -1.62,3.2c-0.87,0.56 -1.76,1.19 -2.82,2c-0.69,0.52 -0.78,0.83 -0.47,1.6c0.78,1.93 1.41,3.38 2,4.72c0.55,1.16 0.8,1.28 2.14,1l0.22,0.46l-0.11,-0.49l1,-0.23c0.82,-0.18 1.65,-0.37 2.47,-0.57a2.87,2.87 0 0 1 0.74,0.04zm18,-1.58a12.27,12.27 0 0 1 -0.12,-24.53a12.22,12.22 0 0 1 12.36,12.28a11.63,11.63 0 0 1 -3.28,8.42a12.21,12.21 0 0 1 -8.99,3.83l0.03,0zm-0.15,-23.53a11.31,11.31 0 0 0 -7.74,3.38a11.13,11.13 0 0 0 -3.32,7.92a11.24,11.24 0 0 0 11.18,11.23a11.21,11.21 0 0 0 8.25,-3.52a10.58,10.58 0 0 0 3,-7.69a11.24,11.24 0 0 0 -11.37,-11.29l0,-0.03z" fill="#231f20" id="svg_25"/>
  <path d="m83.43,123.24a21.74,21.74 0 0 0 11.73,6.59a24.47,24.47 0 0 1 15.66,10.67c4.69,7.28 9.15,14.7 13.71,22.06l14.31,23.07q5.79,9.36 11.57,18.71q4.88,7.91 9.79,15.78a10.19,10.19 0 0 0 10.89,4.39a9.69,9.69 0 0 0 7.72,-8.56a7.86,7.86 0 0 0 -1.1,-5.1c-2.44,-3.69 -4.87,-7.38 -7.36,-11q-9.27,-13.59 -18.59,-27.15q-6.8,-9.91 -13.57,-19.86q-5.37,-7.83 -10.73,-15.66a63.58,63.58 0 0 1 -4.23,-6.43a23.71,23.71 0 0 1 -2,-16.86c3,-12.92 -6.86,-25.09 -20.48,-25.69a1.54,1.54 0 0 0 -1.6,0.62c-0.37,0.61 -0.06,1.12 0.28,1.64l7.11,10.91a3,3 0 0 1 -1.08,4.5l-11.46,6.82a3.17,3.17 0 0 1 -4.42,-0.94c-1.24,-1.86 -2.45,-3.74 -3.67,-5.62q-1.81,-2.77 -3.62,-5.56a1.51,1.51 0 0 0 -1.39,-0.88a1.37,1.37 0 0 0 -1.24,1c-3.43,8.31 -2.24,15.79 3.77,22.55zm81.3,94.31a4.44,4.44 0 0 1 1.49,-6.29a4.83,4.83 0 0 1 6.68,1.4a4.5,4.5 0 0 1 -1.61,6.37a4.93,4.93 0 0 1 -6.56,-1.48z" fill="#fff" id="svg_26" stroke="#231f20" stroke-linecap="round" stroke-linejoin="round"/>
  <path d="m113.09,84.68a19,19 0 1 0 0,-37.92l0,19l-19,0a19,19 0 0 0 19,18.92z" fill="#fff" id="svg_27" transform="matrix(1 0 0 1 0 0)"/>
  <path d="m113.09,85.18a19.48,19.48 0 0 1 -19.46,-19.46a0.5,0.5 0 0 1 0.5,-0.5l18.46,0l0,-18.46a0.5,0.5 0 0 1 0.5,-0.5a19.46,19.46 0 1 1 0,38.92zm-18.46,-19a18.46,18.46 0 1 0 19,-18.95l0,18.49a0.5,0.5 0 0 1 -0.5,0.5l-18.5,-0.04z" fill="#1e3a8a" id="svg_28"/>
  <path d="m89.64,61.16l19,0l0,-19a19,19 0 0 0 -19,19z" fill="#fff" id="svg_29"/>
  <path d="m108.6,61.66l-19,0a0.5,0.5 0 0 1 -0.5,-0.5a19.48,19.48 0 0 1 19.5,-19.46a0.5,0.5 0 0 1 0.5,0.5l0,19a0.5,0.5 0 0 1 -0.5,0.46zm-18.45,-1l17.95,0l0,-18a18.49,18.49 0 0 0 -17.95,18z" fill="#1e3a8a" id="svg_30"/>
  <path d="m92.45,195.06l15.31,0l0,48.95l-15.31,0l0,-48.95z" fill="#1e3a8a" id="svg_31" transform="matrix(1 0 0 1 0 0)"/>
  <path d="m107.76,244.51l-15.31,0a0.5,0.5 0 0 1 -0.5,-0.5l0,-48.95a0.5,0.5 0 0 1 0.5,-0.5l15.31,0a0.5,0.5 0 0 1 0.5,0.5l0,48.94a0.5,0.5 0 0 1 -0.5,0.51zm-14.81,-1l14.31,0l0,-47.95l-14.26,0l-0.05,47.95z" fill="#231f20" id="svg_32"/>
  <path d="m113.64,208.05l15.31,0l0,35.96l-15.31,0l0,-35.96z" fill="#1e3a8a" id="svg_33"/>
  <path d="m129,244.51l-15.36,0a0.5,0.5 0 0 1 -0.5,-0.5l0,-36a0.5,0.5 0 0 1 0.5,-0.5l15.36,0a0.5,0.5 0 0 1 0.5,0.5l0,36a0.5,0.5 0 0 1 -0.5,0.5zm-14.81,-1l14.31,0l0,-35l-14.36,0l0.05,35z" fill="#231f20" id="svg_34"/>
  <path d="m134.83,226.03l15.31,0l0,17.98l-15.31,0l0,-17.98z" fill="#1e3a8a" id="svg_35"/>
  <path d="m150.14,244.51l-15.31,0a0.5,0.5 0 0 1 -0.5,-0.5l0,-18.01a0.5,0.5 0 0 1 0.5,-0.5l15.31,0a0.5,0.5 0 0 1 0.5,0.5l0,18a0.5,0.5 0 0 1 -0.5,0.51zm-14.81,-1l14.31,0l0,-17l-14.31,0l0,17z" fill="#231f20" id="svg_36"/>
  <path d="m157.84,244.51l-71,0a0.5,0.5 0 0 1 -0.5,-0.5a0.51,0.51 0 0 1 0.5,-0.5l71.05,0a0.5,0.5 0 0 1 0.5,0.5a0.5,0.5 0 0 1 -0.55,0.5z" fill="#231f20" id="svg_37"/>
  <path d="m273.73,46.76l-40,0a4.44,4.44 0 0 0 -4.44,4.44l0,18.12a4.44,4.44 0 0 0 4.44,4.45l3.63,0l0,6.79l5.52,-6.79l30.88,0a4.44,4.44 0 0 0 4.44,-4.45l0,-18.12a4.44,4.44 0 0 0 -4.47,-4.44z" fill="#fff" id="svg_38"/>
  <path d="m237.33,81.06a0.45,0.45 0 0 1 -0.16,0a0.51,0.51 0 0 1 -0.34,-0.47l0,-6.32l-3.13,0a5,5 0 0 1 -4.94,-5l0,-18.07a5,5 0 0 1 4.94,-4.94l40,0a4.94,4.94 0 0 1 4.94,4.94l0,18.12a5,5 0 0 1 -4.94,5l-30.61,0l-5.37,6.6a0.51,0.51 0 0 1 -0.39,0.14zm-3.63,-33.8a4,4 0 0 0 -3.94,3.94l0,18.12a4,4 0 0 0 3.94,4l3.63,0a0.5,0.5 0 0 1 0.5,0.5l0,5.38l4.63,-5.7a0.5,0.5 0 0 1 0.39,-0.18l30.88,0a3.94,3.94 0 0 0 3.94,-4l0,-18.12a3.94,3.94 0 0 0 -3.94,-3.94l-40.03,0z" fill="#231f20" id="svg_39"/>
  <path d="m271.64,54.77l-35.85,0a0.5,0.5 0 0 1 -0.5,-0.5a0.51,0.51 0 0 1 0.5,-0.5l35.85,0a0.5,0.5 0 0 1 0.5,0.5a0.5,0.5 0 0 1 -0.5,0.5z" fill="#1e3a8a" id="svg_40"/>
  <path d="m271.64,60.66l-35.85,0a0.51,0.51 0 0 1 -0.5,-0.5a0.5,0.5 0 0 1 0.5,-0.5l35.85,0a0.5,0.5 0 0 1 0.5,0.5a0.5,0.5 0 0 1 -0.5,0.5z" fill="#1e3a8a" id="svg_41"/>
  <path d="m262.45,66.54l-26.66,0a0.5,0.5 0 0 1 -0.5,-0.5a0.51,0.51 0 0 1 0.5,-0.5l26.66,0a0.51,0.51 0 0 1 0.5,0.5a0.5,0.5 0 0 1 -0.5,0.5z" fill="#1e3a8a" id="svg_42"/>
 </g>
</svg>