<?xml version="1.0"?>
<svg width="400" height="300" xmlns="http://www.w3.org/2000/svg">
 <g class="layer">
  <title>Layer 1</title>
  <circle cx="200" cy="150" fill="#fff" id="svg_1" r="109.88"/>
  <path d="m200,40.12a109.88,109.88 0 1 1 -109.88,109.88a109.87,109.87 0 0 1 109.88,-109.88m0,-0.91a110.79,110.79 0 1 0 78.34,32.45a110,110 0 0 0 -78.34,-32.45z" fill="#231f20" id="svg_2"/>
  <g fill="#d1d3d4" id="svg_3">
   <path d="m282.39,77.31a4.29,4.29 0 0 1 -2.53,0.15l1.47,-1.35q-3,-3.28 -6.23,-6.31c0,1.5 0.9,2.82 2.48,4c-2.33,0.13 -4.13,-1.26 -6.17,-1.87a65.21,65.21 0 0 0 -7.34,-1.37l3.65,2.61a16.82,16.82 0 0 1 -2.08,0.66c-0.69,-1.46 -1.57,-0.27 -2.36,-0.32c-1.79,-0.1 -3.76,2 -5.13,-0.17a11.1,11.1 0 0 0 -1.89,0.41c-1.63,0.68 -3.45,1.17 -4.78,2.24c-1.66,1.33 -2.18,1.48 -3.45,-0.48l1.68,-0.58l0,-0.68l-3.42,-0.73a12.27,12.27 0 0 0 -0.15,2.44a5.16,5.16 0 0 0 0.69,1.45a22.48,22.48 0 0 0 -3,0.45a27.66,27.66 0 0 0 -2.71,1.14l0.83,1.7l-4.56,-0.73l-0.17,0.42l1.78,1.1c-2.61,0.78 -4.24,-0.59 -4.25,-3.25l-2.26,-1.24a5.46,5.46 0 0 1 2.35,0.29c2.46,0.54 5,1.15 7.38,-0.08c1.25,-0.64 1.18,-1.53 0,-2.14a26.26,26.26 0 0 0 -4.58,-2c-2.79,-0.79 -5.64,-1.34 -8.51,-2l0.47,-0.73a29.52,29.52 0 0 0 -4,-0.84a6.79,6.79 0 0 0 -2.33,0.76l0.7,-1.5c-1.34,0.63 -2.4,1.59 -3.21,1.41c-1.76,-0.4 -3.11,1 -4.94,0.61c-1,-0.2 -2.41,1.34 -3.2,1.84a12.53,12.53 0 0 0 -2.46,0.54a14.45,14.45 0 0 0 -2.16,1.71l2.79,-0.67c-1.26,1.56 -2.61,3.39 -4.14,5.08c-1,1.16 -2.18,2.66 -3.53,3a12.65,12.65 0 0 0 -5,2.86a2.88,2.88 0 0 0 -0.77,2.2a15,15 0 0 0 1,3.41a2.52,2.52 0 0 0 3.16,1.41c1.09,-0.55 2.48,-1.86 3.14,-1.56c1,0.46 1.47,2 2.15,3.15c0.14,0.22 0.25,0.47 0.37,0.7c0.63,1.3 0.55,4.35 3,1.21c2,0.42 2,-1.19 2.09,-2.29a3.12,3.12 0 0 1 1.74,-2.62c1.34,-0.78 1.34,-2 0.18,-2.8c-1.51,-1.09 -1.69,-2.08 -0.38,-3.48c0.69,-0.74 1.74,-1.14 2.5,-1.84s1.18,-1.63 1.93,-2.23a8.67,8.67 0 0 1 3,-1.67c0.62,-0.17 1.44,0.41 2.35,0.71c-1.79,1.41 -3.14,2.46 -4.47,3.53c-0.74,0.6 -1.62,4.19 -0.94,4.59a9.46,9.46 0 0 0 4.1,1.34c1.26,0.08 2.56,-0.63 3.86,-0.82a6.08,6.08 0 0 1 1.9,0.39l0,0.8l-3.4,0.31a21.55,21.55 0 0 0 -2.68,0.32c-1.21,0.27 -1.37,1.08 -0.52,1.86c1.11,1 0.76,1.73 -0.16,2.54c-2.28,-1.87 -2.79,-1.69 -3.33,1.22a10.51,10.51 0 0 0 0,2c-0.94,0.4 -2.09,1.32 -2.66,1c-2.4,-1.15 -4,1 -6.12,1.14c-0.64,-1.66 -1.84,-0.65 -3,-0.62a3.46,3.46 0 0 1 -2,-0.94c-0.3,-0.25 -0.5,-1.16 -0.31,-1.36a3.31,3.31 0 0 0 0.61,-3.69c-2.89,1.59 -2.87,1.58 -2.19,4.54a9.72,9.72 0 0 1 0.12,1.84l-4.3,1.71c-1.38,1.37 -2.35,2.35 -3.35,3.32c-0.35,0.34 -0.88,0.56 -1.09,1a3.16,3.16 0 0 1 -4.28,1.66c0.08,0.6 0.14,1.16 0.22,1.8l-3.81,-0.17a38.45,38.45 0 0 0 3.56,3.91c1.54,1.75 0.29,3.6 0.07,5.39c-3.21,0.24 -6.41,-1.24 -9.5,0.63c1.76,3.58 -1.18,7.29 0.94,10.79l2.09,-0.25l1.25,1.65c3.2,-0.75 6.3,-1.21 7.26,-4c0,-1.08 -0.24,-1.86 0,-2.26a37.38,37.38 0 0 1 2.56,-2.8c0.56,-0.64 1.48,-1.39 1.44,-2c-0.11,-2.06 1.13,-2 2.27,-1.5a2.39,2.39 0 0 0 2.95,-0.52a18.28,18.28 0 0 1 2.26,-1.54c0.54,0.69 1.08,1.42 1.67,2.1a21.29,21.29 0 0 0 3.19,3.43c2.07,1.52 4.54,2.63 3.66,6l1.45,-2c-0.24,-0.85 -0.41,-1.45 -0.69,-2.41l2.39,1c-0.08,-0.39 0,-0.66 -0.15,-0.73c-1.41,-0.92 -2.25,-2.6 -4.08,-3c-0.51,-0.11 -1,-0.69 -1.31,-1.15c-0.54,-0.71 -0.89,-1.57 -1.46,-2.25c-1.4,-1.7 -1.14,-2.62 0.78,-3.12a5.37,5.37 0 0 0 0.65,1.22c0.22,0.24 0.88,0.22 0.93,0.42c0.5,1.92 2.14,2.48 3.61,3.37c0.91,0.56 2.13,1.64 2.13,2.48c0,3.87 2.77,6.24 4.12,9.3a17.77,17.77 0 0 0 1.57,-2.73a2.72,2.72 0 0 0 -0.19,-1.83a22.7,22.7 0 0 0 -1.55,-2.51c0.87,0.05 1.68,0.35 2,0.08c1.51,-1.35 1.46,-1.4 2.76,-0.64c-0.11,1.41 -0.2,2.6 -0.28,3.66c0.59,0.87 1,2.19 1.87,2.58c1,0.47 1.92,2.3 3.71,0.71c0.56,-0.5 2.45,0.5 3.73,0.81c0.06,0 0.13,0 0.19,-0.05l3.25,-1.49c-0.67,3 -1.2,5.35 -1.74,7.71c-0.35,1.52 -0.93,2.67 -2.85,2.72c-0.74,0 -1.46,0.82 -1.82,1l3,3.13l-1.47,1.19c0.07,0.19 0.13,0.39 0.2,0.58l2.86,-0.86c0.4,0.69 0.95,1.56 1.4,2.48c0.77,1.55 1.5,3.13 2.2,4.72c0.56,1.28 1.09,2.58 1.58,3.89a27,27 0 0 0 0.95,2.88a25.64,25.64 0 0 0 1.9,3c2,2.85 1.91,6.22 2.48,9.43c0.2,1.14 0.69,1.56 1.73,1a54.52,54.52 0 0 0 5.5,-2.93c1.87,-1.22 3.45,-2.9 5.37,-4a13.92,13.92 0 0 0 4.61,-3.72c0.33,-0.47 0.59,-1 0.88,-1.48a9.77,9.77 0 0 1 0.94,-1.48c2.21,-2.43 1.76,-4.57 -1.2,-6a3,3 0 0 1 -1.25,-1.61a11.36,11.36 0 0 1 -0.28,-2.59a18.7,18.7 0 0 0 -2.24,2.87c-0.84,1.68 -2.2,0.65 -3.32,0.87c-0.11,-0.7 -0.22,-1.4 -0.35,-2.09c-0.09,-0.46 -0.2,-0.9 -0.43,-1.91c-0.44,1 -0.63,1.51 -0.77,1.83l-3.38,-7.23c1.8,-2 2.18,-2 3.45,0.47a9.65,9.65 0 0 1 0.48,1.1a5,5 0 0 0 7,2.82c0.93,2.34 1.13,2.64 3.8,2.81s5.48,0 7.92,0l4.48,5.1l-1.28,0.53l3,2.55l1.51,-1.85c0.69,3.71 1.27,8 2.34,12.21a64.82,64.82 0 0 0 4,12.39a15.09,15.09 0 0 0 3.55,-10.82a5.12,5.12 0 0 1 0.36,-2.85c0.95,-1.4 2.5,-2.4 3.41,-3.81c1.4,-2.2 4.18,-3.33 4.72,-6.2c0.06,-0.37 0.85,-0.72 1.36,-0.86c1.44,-0.37 2.9,-0.62 4.41,-0.93a10.58,10.58 0 0 0 1,3.13a17.78,17.78 0 0 1 2.21,3.79a111.52,111.52 0 0 0 0.71,-12.47a109.46,109.46 0 0 0 -27.42,-72.7z" id="svg_4"/>
   <path d="m130.09,234.78a6.71,6.71 0 0 0 0.64,-2.21c0.14,-1.87 0.75,-3.11 2.29,-3.82c1.81,-0.82 3.73,-1.37 5.59,-2.07a2.15,2.15 0 0 0 1.11,-0.71a21.75,21.75 0 0 0 2.26,-4.85a59.24,59.24 0 0 0 0.82,-7.19a1.71,1.71 0 0 1 0.16,-0.77c0.95,-1.24 2,-2.38 2.9,-3.68c0.94,-1.46 2.26,-3 2.35,-4.61a3.39,3.39 0 0 0 -3.2,-3.78a1.38,1.38 0 0 1 -0.77,-0.58c-2.15,-2.9 -5.24,-2.26 -8.25,-2.31c0.25,-1.24 -0.38,-1.65 -1.67,-1.94c-3,-0.7 -5.45,-2.11 -6.32,-5.53c-0.92,-3.6 -2.7,-4.61 -6.45,-4.82a7,7 0 0 1 -3.08,-1.48a14,14 0 0 1 -2,-2a7.38,7.38 0 0 0 -1,-1c-1,-0.71 -1.79,-2.25 -3.18,-2s-2.94,0.69 -4.41,0s-2.66,-1.24 -4.24,-2c-0.4,1.08 -0.91,2.5 -1.46,4c-1,-1.57 0,-3.11 0.25,-4.75c-2.93,1.8 -6.3,2.83 -7,6.82l-0.19,-0.11a110.06,110.06 0 0 0 34.85,51.39z" id="svg_5"/>
   <path d="m108.05,114.26c3.69,0.84 6.44,-1 9.39,-2.45a1.93,1.93 0 0 0 1,-1.4a2.64,2.64 0 0 0 -1,-1.81a9.09,9.09 0 0 0 -2.59,-0.63l1.15,-0.75a24.67,24.67 0 0 1 -4.25,-2.64c-0.64,-0.58 -0.43,-2 -0.92,-2.85c-0.84,-1.45 -1.92,-2.75 -3,-4.19c-1,1.39 -1.25,3.9 -3.67,3.29a2.84,2.84 0 0 1 -1.81,-1.23a109,109 0 0 0 -11.91,42.17a6.11,6.11 0 0 1 1.27,-1c3,-1.72 3.18,-2.25 2.41,-5.72a17.23,17.23 0 0 1 0,-3.4l0.76,2.9c0.71,-1.26 1.73,-2.29 1.83,-3.4c0.19,-2 1.17,-2.43 2.84,-2.46a9.62,9.62 0 0 0 1.94,-0.42l-0.56,-0.26c0.11,-1 -0.14,-2.48 0.38,-2.83a61.14,61.14 0 0 1 6.5,-3.38l-1.42,3l0.5,0.12l6.89,-3.68l-0.3,-0.53l-0.86,0.49l0.47,-1.62a0.87,0.87 0 0 0 -0.73,0.45c-1.25,1.85 -1.92,2 -3.77,0.66c-1.39,-1 -1.9,-2.13 -0.42,-3.54c0.13,-0.12 -0.22,-1.13 -0.41,-1.15a6.21,6.21 0 0 0 -2.31,0.18a27.79,27.79 0 0 0 -3,1.22c1.65,-1.53 3.23,-3.68 5.6,-3.14z" id="svg_6"/>
   <path d="m203.06,189a4.09,4.09 0 0 1 0.52,2.85c-0.86,2.92 -0.88,5.35 1.5,7.8a10.58,10.58 0 0 1 2.82,8a1.86,1.86 0 0 0 0.29,1.14c1,1.31 0.38,2.25 -0.26,3.57c-1.43,2.91 -2.79,5.91 -0.78,9.33c1.19,2 2.49,4 2.58,6.7a10.19,10.19 0 0 0 2.52,7c1.07,1.14 2.12,3 2,4.42a3.36,3.36 0 0 0 1.87,3.6a11,11 0 0 1 1.88,-0.62a33.05,33.05 0 0 0 5.4,-0.57c4.48,-1.28 6.67,-5.12 8.95,-8.74c0.42,-0.66 0.15,-1.76 0.22,-3c0.27,-0.15 0.88,-0.53 1.52,-0.84c1.8,-0.86 2.36,-2 1.8,-4c-0.2,-0.7 -0.52,-1.37 -0.69,-2.07c-0.1,-0.39 -0.16,-1 0.06,-1.22c1.49,-1.36 3.11,-2.58 4.58,-4c0.95,-0.9 2.22,-1.9 2.45,-3a14.59,14.59 0 0 0 -0.29,-5.35c-0.19,-1.18 -1,-2.25 -1.19,-3.43s0.63,-2.78 -0.74,-3.92c-0.17,-0.14 -0.09,-0.85 0.11,-1.13c2.23,-3.07 4,-6.7 6.89,-9c3.78,-3.07 5.67,-7.1 7.75,-11.13a13.71,13.71 0 0 0 0.75,-3.79c-2.88,0.74 -5.44,1.44 -8,2a1.72,1.72 0 0 1 -1.44,-0.68c-0.43,-0.73 -0.37,-1.8 -0.88,-2.42c-0.95,-1.16 -2.21,-2.06 -3.25,-3.14a5.6,5.6 0 0 1 -1.39,-2c-0.86,-2.61 -2.82,-4.69 -3.12,-7.66c-0.19,-1.83 -1.88,-3.47 -2.71,-5.28a66.28,66.28 0 0 1 -2.78,-6.9c-0.58,-1.73 -1.55,-1.58 -2.93,-1.21a6.46,6.46 0 0 1 -3.13,0.24a59.45,59.45 0 0 1 -6.06,-2.1c-1.77,-0.68 -3.2,0.09 -3.36,1.89c-0.11,1.3 -0.67,2 -1.91,1.09s-3.7,-0.43 -4.14,-2.75c0,-0.08 -0.48,0 -0.69,-0.12c-1.88,-0.81 -4.44,0.23 -5.49,-1.77c0.51,-1.51 0.94,-2.78 1.4,-4.16a14.9,14.9 0 0 0 -2.61,-0.36c-2.28,0.08 -4.57,0.16 -6.82,0.46a19.61,19.61 0 0 0 -4.71,1.25c-2.4,1 -4.71,1.86 -6.87,0.13c-1.09,1.16 -1.9,2.51 -3.1,3.17a4.07,4.07 0 0 0 -2.28,3.72c0,2.42 -1.27,3.27 -3.2,3.86a2.29,2.29 0 0 0 -1.22,0.85c-1.13,1.84 -2.26,3.69 -3.23,5.62c-0.68,1.36 -1.93,2.51 -0.68,4.5c0.72,1.14 0.6,3.2 0.14,4.62a15.26,15.26 0 0 0 -0.49,6.06c0,0.44 0.46,0.87 0.77,1.25s0.73,0.56 1,0.91a47.53,47.53 0 0 0 3.44,5a48.58,48.58 0 0 0 4.57,3.84a2.87,2.87 0 0 0 3.08,0.44a26.44,26.44 0 0 1 5,-0.48a8.56,8.56 0 0 0 1.91,-0.3a40,40 0 0 1 3.89,-1.38c1.32,-0.29 3.13,-1.12 3.75,0.87c0.55,1.8 1.57,1.73 3,1.6a2.54,2.54 0 0 1 2.03,0.74z" id="svg_7"/>
   <path d="m119.92,74.77a4.23,4.23 0 0 0 1.1,-0.5l3.23,2.25l-4.13,-0.6l-0.09,0.62l3.97,1.46l0,2l-4.72,2.41l2.17,1.71a4.67,4.67 0 0 0 0,1.73c1.49,3.07 3,6.12 4.63,9.12a5.08,5.08 0 0 0 1.92,1.8a31.53,31.53 0 0 0 3.45,1.55c0.88,0.39 1.71,0.83 2,-0.71s0.65,-2.91 1,-4.36c0.06,-0.26 0.16,-0.63 0.35,-0.73c1.64,-0.84 1.93,-2.21 1.92,-3.91c0,-0.55 1,-1.61 1.38,-1.57c3.2,0.29 5.21,-1.34 6.94,-3.73c0.48,-0.66 1.28,-1.48 2,-1.52c4.19,-0.26 7.72,-2.14 11.45,-4.28l-5,-0.52l1.35,-1.64l4,1.68c0.3,-2.09 -0.44,-3 -2,-3.64c-1.71,-0.67 -1.88,-1.59 -1,-2.79l4.6,0c-0.45,-0.49 -0.89,-1 -1.34,-1.49l3,-0.42l-1.31,-1.36c2.3,-1.56 -0.72,-2.34 -0.53,-3.52l2.86,-0.18c-0.53,-0.8 -0.82,-1.75 -1.41,-2a8.67,8.67 0 0 0 -2.85,-0.21c2.66,-4 7.15,-5.24 11.29,-7.22a8.79,8.79 0 0 0 -7.28,-0.46a47.36,47.36 0 0 1 -6.51,1.3l1,-1.61c-0.85,0.09 -1.69,0.2 -2.54,0.27c-0.47,0 -1,0 -1.42,0c0,-0.28 0,-0.55 -0.07,-0.82l5.17,-0.87c-1.76,-0.47 -3.43,-1.15 -5.12,-1.48a110.1,110.1 0 0 0 -33.46,24.24z" id="svg_8"/>
   <path d="m106,93.16c-0.22,0.35 -0.42,0.71 -0.63,1.06c0.42,0.14 0.84,0.29 1.27,0.46l-0.64,-1.52z" id="svg_9"/>
   <path d="m112,84.39l-0.07,0l-1,1.31c0.34,-0.46 0.68,-0.89 1.07,-1.31z" id="svg_10"/>
   <path d="m107.87,92.57a4.46,4.46 0 0 0 -0.13,-2.26c-0.46,0.7 -0.9,1.4 -1.34,2.11l1.47,0.15z" id="svg_11"/>
   <path d="m246.09,224.26c-0.7,1.5 -0.5,4.38 0.7,5.41a2.24,2.24 0 0 0 3.6,-0.92c1.14,-3.78 2.15,-7.6 3.21,-11.4c0.08,-0.29 0,-0.66 0.19,-0.89a3.42,3.42 0 0 0 -0.61,-4.49c-2.21,1.66 -2.44,5.29 -6.41,5.12c0,1.28 0.08,2.48 0,3.66a10.72,10.72 0 0 1 -0.68,3.51z" id="svg_12"/>
   <path d="m193.05,103.14c0.18,-0.48 0.64,-1.19 0.48,-1.4a1.91,1.91 0 0 0 -1.05,-0.48l-4.31,-5.94c1.17,-2.06 1.12,-2.83 -0.43,-3.84c-1,-0.62 -3.15,0.25 -4.14,1.66c-0.46,0.65 0.21,1.87 1.92,3.49l-0.24,1.24c0.34,0 0.58,0 0.72,0.1c0.61,0.46 1.52,0.87 1.71,1.48s-0.39,1.36 -1.4,0.94a1.33,1.33 0 0 0 -0.5,0.73c-0.07,0.72 0,1.46 0,2.37l1.64,0.49l-2.91,2.23l7.86,-1.21l0.65,-1.86z" id="svg_13"/>
   <path d="m260.22,63.51a46.73,46.73 0 0 1 -4.76,4.49c2.1,2 4.78,2.32 8.06,2.19c-0.9,-0.63 -1.65,-0.93 -2,-1.47s-0.61,-1.62 -0.32,-2a15.88,15.88 0 0 1 5.35,-4.16c-0.69,-0.53 -1.39,-1 -2.1,-1.57a7.88,7.88 0 0 0 -4.23,2.52z" id="svg_14"/>
   <path d="m161,92.59a4.92,4.92 0 0 0 2.35,0a10.16,10.16 0 0 0 3.39,-1.59c0.75,-0.63 2.5,-1.15 1.67,-2.59a14.31,14.31 0 0 0 -2.85,-2.74l-0.16,0.65l-6,1.43c-0.31,-0.4 -0.89,-1.18 -1.46,-1.95l0.22,0.65l-2.63,1.55l0.27,0.34l2.82,0l-2.55,1.34l2.83,0.82l-1.43,1.06c1.19,0.33 2.32,0.77 3.53,1.03z" id="svg_15"/>
   <path d="m212.5,59.41c1.3,-1 2.36,-1.95 3.5,-2.73a1.5,1.5 0 0 1 1.34,0c0.33,0.22 0.41,0.82 0.64,1.37l3.84,0c0,-0.24 0.05,-0.48 0.07,-0.72l-10.8,-4.33c0.46,1 0.63,1.38 0.66,1.46l-6.43,-0.56l-0.15,0.67c0.92,0.65 1.76,1.6 2.78,1.86s2.09,-0.24 3.14,-0.41c0,0.16 0,0.33 0.07,0.49l-2.45,0.88l0.08,0.34l1.94,0.18l-1.3,0.67l3.07,0.83z" id="svg_16"/>
   <path d="m183.94,99.53c0.92,-0.56 1.07,-1.35 0.15,-1.79s-2,-1.26 -3,-0.06c-0.56,0.64 -1.24,1.19 -2,1.92l0,3.11l-0.64,0.31c0.35,0.28 0.77,0.86 1,0.79a19.23,19.23 0 0 0 4.15,-1.51c0.33,-0.18 0.08,-1.4 0.13,-2.14c0.01,-0.22 0.06,-0.54 0.21,-0.63z" id="svg_17"/>
   <path d="m91.61,162.25a3.69,3.69 0 0 0 -0.84,-0.31c0,0.47 0.1,0.93 0.16,1.39a18.88,18.88 0 0 1 2.31,1c0.78,0.39 1.26,1.37 2.08,2.32l3.63,-0.42c-2.64,-1.45 -4.95,-2.8 -7.34,-3.98z" id="svg_18"/>
   <path d="m105.91,168.92c0.16,-1.78 -3,-2.9 -5.88,-2.12l1.52,1.75l-3,-0.27c2.35,1.64 4.91,0.43 7.36,0.64z" id="svg_19"/>
   <path d="m225.05,53.15l-10.15,0a13.83,13.83 0 0 0 4.23,1.4a49,49 0 0 0 5.92,-0.28l0,-1.12z" id="svg_20"/>
   <path d="m292.62,185.85c0.57,-0.22 1.34,-1.32 1.2,-1.72a23.74,23.74 0 0 0 -2,-3.6l-0.6,0.27l0,3.64c-0.07,1.06 0.3,1.84 1.4,1.41z" id="svg_21"/>
   <path d="m203.36,122.19l-1.31,0.53l0,3.39c2.25,-0.11 1.22,-1.93 1.68,-2.9c0.1,-0.21 -0.23,-0.65 -0.37,-1.02z" id="svg_22"/>
   <path d="m210.65,127.71l-3.58,0l-0.11,0.42l3.28,2l0.41,-2.42z" id="svg_23"/>
  </g>
  <path d="m291.19,175.6a0.52,0.52 0 0 1 -0.29,-0.09l-0.69,-0.49a0.5,0.5 0 1 1 0.57,-0.81l0.69,0.48a0.5,0.5 0 0 1 0.13,0.69a0.52,0.52 0 0 1 -0.41,0.22zm-3.19,-2.21a0.52,0.52 0 0 1 -0.29,-0.09l-2.45,-1.72a0.5,0.5 0 1 1 0.57,-0.82l2.46,1.72a0.51,0.51 0 0 1 0.12,0.7a0.49,0.49 0 0 1 -0.41,0.21zm-4.87,-3.39a0.52,0.52 0 0 1 -0.29,-0.09l-2.46,-1.72a0.51,0.51 0 0 1 -0.12,-0.7a0.5,0.5 0 0 1 0.7,-0.12l2.46,1.72a0.51,0.51 0 0 1 0.12,0.7a0.49,0.49 0 0 1 -0.41,0.21zm-4.92,-3.45a0.44,0.44 0 0 1 -0.28,-0.09l-2.46,-1.72a0.5,0.5 0 0 1 0.57,-0.82l2.46,1.73a0.49,0.49 0 0 1 0.12,0.69a0.48,0.48 0 0 1 -0.41,0.16l0,0.05zm-4.91,-3.44a0.52,0.52 0 0 1 -0.3,-0.11l-2.45,-1.72a0.5,0.5 0 0 1 0.57,-0.82l2.46,1.72a0.51,0.51 0 0 1 0.12,0.7a0.49,0.49 0 0 1 -0.4,0.18l0,0.05zm-4.91,-3.44a0.52,0.52 0 0 1 -0.29,-0.09l-2.46,-1.73a0.5,0.5 0 1 1 0.58,-0.81l2.46,1.72a0.5,0.5 0 0 1 0.12,0.69a0.5,0.5 0 0 1 -0.41,0.17l0,0.05zm-4.91,-3.45a0.52,0.52 0 0 1 -0.29,-0.09l-2.46,-1.72a0.5,0.5 0 1 1 0.58,-0.82l2.45,1.72a0.5,0.5 0 0 1 0.12,0.7a0.48,0.48 0 0 1 -0.4,0.16l0,0.05zm-4.92,-3.44a0.47,0.47 0 0 1 -0.28,-0.09l-2.46,-1.72a0.5,0.5 0 0 1 -0.12,-0.7a0.49,0.49 0 0 1 0.69,-0.12l2.46,1.72a0.5,0.5 0 0 1 0.12,0.7a0.51,0.51 0 0 1 -0.41,0.16l0,0.05zm-4.91,-3.45a0.45,0.45 0 0 1 -0.29,-0.09l-2.45,-1.72a0.49,0.49 0 0 1 -0.13,-0.69a0.51,0.51 0 0 1 0.7,-0.13l2.46,1.73a0.5,0.5 0 0 1 -0.29,0.9zm-4.91,-3.44a0.52,0.52 0 0 1 -0.29,-0.09l-2.45,-1.8a0.51,0.51 0 0 1 -0.12,-0.7a0.5,0.5 0 0 1 0.7,-0.12l2.45,1.72a0.5,0.5 0 0 1 -0.28,0.91l-0.01,0.08zm-4.92,-3.44a0.47,0.47 0 0 1 -0.28,-0.09l-2.46,-1.73a0.5,0.5 0 0 1 0.57,-0.81l2.46,1.72a0.5,0.5 0 0 1 -0.29,0.91zm-4.91,-3.45a0.52,0.52 0 0 1 -0.29,-0.09l-2.45,-1.72a0.5,0.5 0 0 1 -0.13,-0.7a0.51,0.51 0 0 1 0.7,-0.12l2.46,1.63a0.51,0.51 0 0 1 0.12,0.7a0.49,0.49 0 0 1 -0.41,0.3zm-4.91,-3.49a0.52,0.52 0 0 1 -0.29,-0.09l-2.46,-1.72a0.51,0.51 0 0 1 -0.12,-0.7a0.5,0.5 0 0 1 0.7,-0.12l2.45,1.72a0.5,0.5 0 0 1 0.13,0.7a0.54,0.54 0 0 1 -0.41,0.21zm-4.92,-3.45a0.41,0.41 0 0 1 -0.28,-0.09l-2.46,-1.72a0.49,0.49 0 0 1 -0.12,-0.69a0.5,0.5 0 0 1 0.69,-0.13l2.46,1.73a0.49,0.49 0 0 1 0.12,0.69a0.48,0.48 0 0 1 -0.41,0.21zm-4.91,-3.44a0.52,0.52 0 0 1 -0.29,-0.09l-2.45,-1.72a0.5,0.5 0 1 1 0.57,-0.81l2.46,1.72a0.51,0.51 0 0 1 0.12,0.7a0.49,0.49 0 0 1 -0.41,0.2zm-4.91,-3.44a0.52,0.52 0 0 1 -0.29,-0.09l-2.46,-1.73a0.5,0.5 0 0 1 -0.12,-0.69a0.51,0.51 0 0 1 0.7,-0.13l2.45,1.73a0.49,0.49 0 0 1 0.13,0.69a0.5,0.5 0 0 1 -0.41,0.22zm-4.92,-3.45a0.51,0.51 0 0 1 -0.28,-0.09l-2.46,-1.72a0.51,0.51 0 0 1 -0.12,-0.7a0.5,0.5 0 0 1 0.69,-0.12l2.46,1.72a0.5,0.5 0 0 1 0.12,0.7a0.48,0.48 0 0 1 -0.41,0.21zm-4.91,-3.44a0.52,0.52 0 0 1 -0.29,-0.09l-2.45,-1.72a0.5,0.5 0 0 1 -0.12,-0.7a0.49,0.49 0 0 1 0.69,-0.12l2.46,1.72a0.51,0.51 0 0 1 0.12,0.7a0.52,0.52 0 0 1 -0.41,0.21zm-4.91,-3.45a0.45,0.45 0 0 1 -0.29,-0.09l-2.46,-1.75a0.5,0.5 0 0 1 -0.12,-0.69a0.51,0.51 0 0 1 0.7,-0.13l2.46,1.73a0.5,0.5 0 0 1 -0.29,0.9l0,0.03z" fill="#231f20" id="svg_24"/>
  <path d="m125.12,204.76l-0.17,0l-1.41,-0.51a0.5,0.5 0 0 1 0.35,-0.94l1.41,0.51a0.5,0.5 0 0 1 -0.18,1l0,-0.06z" fill="#231f20" id="svg_25"/>
  <path d="m222.62,240.15a0.47,0.47 0 0 1 -0.17,0l-2.87,-1.05a0.49,0.49 0 0 1 -0.3,-0.64a0.5,0.5 0 0 1 0.64,-0.3l2.87,1a0.51,0.51 0 0 1 -0.17,1l0,-0.01zm-5.74,-2.09a0.51,0.51 0 0 1 -0.17,0l-2.87,-1a0.5,0.5 0 0 1 0.34,-0.94l2.87,1a0.5,0.5 0 0 1 -0.17,1l0,-0.06zm-5.73,-2.06a0.47,0.47 0 0 1 -0.17,0l-2.87,-1a0.49,0.49 0 0 1 -0.3,-0.64a0.5,0.5 0 0 1 0.64,-0.3l2.87,1a0.5,0.5 0 0 1 -0.17,1l0,-0.06zm-5.74,-2.08a0.51,0.51 0 0 1 -0.17,0l-2.87,-1a0.5,0.5 0 0 1 -0.3,-0.64a0.51,0.51 0 0 1 0.64,-0.3l2.87,1a0.5,0.5 0 0 1 -0.17,1l0,-0.06zm-5.73,-2.08a0.47,0.47 0 0 1 -0.17,0l-2.87,-1a0.5,0.5 0 1 1 0.34,-0.94l2.87,1a0.5,0.5 0 0 1 0.3,0.64a0.52,0.52 0 0 1 -0.47,0.28l0,0.02zm-5.74,-2.08l-0.17,0l-2.87,-1a0.5,0.5 0 1 1 0.35,-0.94l2.86,1a0.5,0.5 0 0 1 -0.17,1l0,-0.06zm-5.73,-2.08a0.47,0.47 0 0 1 -0.17,0l-2.87,-1a0.52,0.52 0 0 1 -0.3,-0.65a0.5,0.5 0 0 1 0.64,-0.29l2.87,1a0.5,0.5 0 0 1 0.3,0.64a0.52,0.52 0 0 1 -0.47,0.28l0,0.02zm-5.74,-2.09l-0.17,0l-2.87,-1a0.49,0.49 0 0 1 -0.29,-0.64a0.5,0.5 0 0 1 0.64,-0.3l2.86,1a0.51,0.51 0 0 1 0.3,0.65a0.49,0.49 0 0 1 -0.47,0.27l0,0.02zm-5.73,-2.08a0.47,0.47 0 0 1 -0.17,0l-2.87,-1a0.5,0.5 0 1 1 0.34,-0.94l2.87,1a0.5,0.5 0 0 1 -0.17,1l0,-0.06zm-5.74,-2.1l-0.17,0l-2.87,-1a0.5,0.5 0 0 1 -0.29,-0.64a0.5,0.5 0 0 1 0.64,-0.3l2.86,1a0.5,0.5 0 0 1 0.3,0.64a0.48,0.48 0 0 1 -0.47,0.3zm-5.73,-2.08a0.47,0.47 0 0 1 -0.17,0l-2.87,-1a0.5,0.5 0 1 1 0.34,-0.94l2.87,1a0.5,0.5 0 0 1 -0.17,1l0,-0.06zm-5.74,-2.08l-0.17,0l-2.86,-1a0.5,0.5 0 0 1 0.34,-0.94l2.86,1a0.5,0.5 0 0 1 -0.17,1l0,-0.06zm-5.73,-2.08a0.47,0.47 0 0 1 -0.17,0l-2.87,-1a0.5,0.5 0 0 1 -0.3,-0.64a0.5,0.5 0 0 1 0.64,-0.3l2.87,1a0.5,0.5 0 0 1 -0.17,1l0,-0.06zm-5.74,-2.08l-0.17,0l-2.89,-1.09a0.51,0.51 0 0 1 -0.3,-0.65a0.5,0.5 0 0 1 0.64,-0.3l2.86,1.05a0.5,0.5 0 0 1 -0.17,1l0.03,-0.01zm-5.73,-2.09a0.47,0.47 0 0 1 -0.17,0l-2.87,-1a0.5,0.5 0 0 1 0.34,-0.94l2.87,1a0.51,0.51 0 0 1 0.3,0.64a0.49,0.49 0 0 1 -0.47,0.3zm-5.74,-2.08l-0.17,0l-2.86,-1a0.49,0.49 0 0 1 -0.3,-0.64a0.5,0.5 0 0 1 0.64,-0.3l2.87,1a0.5,0.5 0 0 1 0.29,0.64a0.48,0.48 0 0 1 -0.47,0.3zm-5.73,-2.08a0.51,0.51 0 0 1 -0.17,0l-2.87,-1a0.5,0.5 0 1 1 0.34,-0.94l2.87,1a0.5,0.5 0 0 1 -0.17,1l0,-0.06z" fill="#231f20" id="svg_26"/>
  <path d="m226.89,241.7a0.51,0.51 0 0 1 -0.17,0l-1.41,-0.51a0.51,0.51 0 0 1 -0.3,-0.64a0.5,0.5 0 0 1 0.64,-0.3l0.73,0.26l0,-0.77a0.49,0.49 0 0 1 0.49,-0.51a0.5,0.5 0 0 1 0.51,0.49l0,1.5a0.46,0.46 0 0 1 -0.21,0.41a0.43,0.43 0 0 1 -0.28,0.07z" fill="#231f20" id="svg_27"/>
  <path d="m226.79,237.22a0.51,0.51 0 0 1 -0.5,-0.49l-0.07,-3a0.52,0.52 0 0 1 0.49,-0.52a0.49,0.49 0 0 1 0.51,0.49l0.07,3a0.5,0.5 0 0 1 -0.49,0.52l-0.01,0zm-0.13,-6a0.49,0.49 0 0 1 -0.5,-0.49l-0.07,-3a0.5,0.5 0 0 1 0.49,-0.51a0.51,0.51 0 0 1 0.5,0.49l0.07,3a0.5,0.5 0 0 1 -0.49,0.51zm-0.14,-6a0.51,0.51 0 0 1 -0.5,-0.49l-0.06,-3a0.49,0.49 0 0 1 0.48,-0.51a0.5,0.5 0 0 1 0.52,0.49l0.06,3a0.5,0.5 0 0 1 -0.48,0.51l-0.02,0zm-0.13,-6a0.5,0.5 0 0 1 -0.5,-0.49l-0.07,-3a0.52,0.52 0 0 1 0.49,-0.52a0.5,0.5 0 0 1 0.5,0.49l0.07,3a0.51,0.51 0 0 1 -0.49,0.52zm-0.14,-6a0.5,0.5 0 0 1 -0.5,-0.49l-0.06,-3a0.5,0.5 0 0 1 0.49,-0.51a0.5,0.5 0 0 1 0.51,0.49l0.06,3a0.49,0.49 0 0 1 -0.48,0.51l-0.02,0zm-0.13,-6a0.51,0.51 0 0 1 -0.5,-0.49l-0.07,-3a0.5,0.5 0 0 1 0.49,-0.51a0.5,0.5 0 0 1 0.51,0.49l0.07,3a0.5,0.5 0 0 1 -0.49,0.51l-0.01,0zm-0.13,-6a0.49,0.49 0 0 1 -0.5,-0.49l-0.07,-3a0.5,0.5 0 0 1 0.49,-0.52a0.52,0.52 0 0 1 0.51,0.49l0.07,3a0.52,0.52 0 0 1 -0.49,0.52l-0.01,0zm-0.14,-6a0.5,0.5 0 0 1 -0.5,-0.49l-0.07,-3a0.52,0.52 0 0 1 0.49,-0.51a0.51,0.51 0 0 1 0.51,0.49l0.07,3a0.49,0.49 0 0 1 -0.49,0.51l-0.01,0zm-0.13,-6a0.5,0.5 0 0 1 -0.5,-0.49l-0.07,-3a0.49,0.49 0 0 1 0.49,-0.51a0.52,0.52 0 0 1 0.51,0.49l0.07,3a0.52,0.52 0 0 1 -0.49,0.51l-0.01,0zm-0.14,-6a0.51,0.51 0 0 1 -0.5,-0.49l-0.06,-3a0.5,0.5 0 0 1 0.48,-0.52a0.52,0.52 0 0 1 0.52,0.49l0.06,3a0.5,0.5 0 0 1 -0.49,0.52l-0.01,0zm0.13,-5.88a0.48,0.48 0 0 1 -0.3,-0.11a0.5,0.5 0 0 1 -0.1,-0.7l1.81,-2.37a0.5,0.5 0 0 1 0.7,-0.09a0.51,0.51 0 0 1 0.1,0.7l-1.81,2.37a0.51,0.51 0 0 1 -0.4,0.53l0,-0.33zm3.62,-4.75a0.52,0.52 0 0 1 -0.31,-0.1a0.51,0.51 0 0 1 -0.09,-0.7l1.81,-2.37a0.5,0.5 0 1 1 0.79,0.61l-1.8,2.37a0.5,0.5 0 0 1 -0.4,0.52l0,-0.33zm3.62,-4.74a0.49,0.49 0 0 1 -0.4,-0.8l1.81,-2.37a0.5,0.5 0 1 1 0.79,0.61l-1.81,2.71a0.47,0.47 0 0 1 -0.34,0.18l-0.05,-0.33zm3.61,-4.74a0.49,0.49 0 0 1 -0.39,-0.8l1.81,-2.37a0.5,0.5 0 1 1 0.79,0.6l-1.77,2.7a0.51,0.51 0 0 1 -0.44,0.2l0,-0.33zm3.62,-4.74a0.49,0.49 0 0 1 -0.39,-0.8l1.8,-2.38a0.52,0.52 0 0 1 0.71,-0.09a0.51,0.51 0 0 1 0.09,0.7l-1.81,2.37a0.51,0.51 0 0 1 -0.4,0.53l0,-0.33zm3.62,-4.37a0.51,0.51 0 0 1 -0.4,-0.81l1.81,-2.37a0.5,0.5 0 0 1 0.8,0.61l-1.81,2.37a0.51,0.51 0 0 1 -0.4,0.2zm3.62,-4.75a0.47,0.47 0 0 1 -0.3,-0.1a0.5,0.5 0 0 1 -0.1,-0.7l1.81,-2.37a0.5,0.5 0 0 1 0.7,-0.09a0.51,0.51 0 0 1 0.1,0.7l-1.81,2.31a0.5,0.5 0 0 1 -0.4,0.21l0,0.04zm3.62,-4.74a0.52,0.52 0 0 1 -0.31,-0.1a0.51,0.51 0 0 1 -0.09,-0.7l1.81,-2.37a0.51,0.51 0 0 1 0.7,-0.1a0.52,0.52 0 0 1 0.1,0.71l-1.81,2.37a0.5,0.5 0 0 1 -0.44,0.15l0.04,0.04zm3.62,-4.74a0.49,0.49 0 0 1 -0.4,-0.8l1.81,-2.37a0.5,0.5 0 1 1 0.79,0.6l-1.81,2.37a0.47,0.47 0 0 1 -0.39,0.16l0,0.04zm3.62,-4.74a0.49,0.49 0 0 1 -0.4,-0.8l1.81,-2.38a0.5,0.5 0 1 1 0.79,0.61l-1.81,2.37a0.49,0.49 0 0 1 -0.39,0.17l0,0.03zm3.61,-4.74a0.5,0.5 0 0 1 -0.3,-0.11a0.49,0.49 0 0 1 -0.09,-0.7l1.81,-2.37a0.5,0.5 0 0 1 0.79,0.61l-1.81,2.37a0.51,0.51 0 0 1 -0.4,0.16l0,0.04zm3.62,-4.75a0.49,0.49 0 0 1 -0.39,-0.8l1.8,-2.37a0.5,0.5 0 0 1 0.8,0.61l-1.81,2.37a0.5,0.5 0 0 1 -0.4,0.15l0,0.04zm3.62,-4.74a0.47,0.47 0 0 1 -0.3,-0.1a0.51,0.51 0 0 1 -0.1,-0.7l1.81,-2.37a0.5,0.5 0 1 1 0.8,0.61l-1.81,2.37a0.53,0.53 0 0 1 -0.4,0.15l0,0.04zm3.62,-4.74a0.47,0.47 0 0 1 -0.3,-0.1a0.5,0.5 0 0 1 -0.1,-0.7l1.81,-2.37a0.5,0.5 0 0 1 0.7,-0.1a0.51,0.51 0 0 1 0.1,0.7l-1.81,2.37a0.51,0.51 0 0 1 -0.4,0.14l0,0.06zm3.62,-4.74a0.49,0.49 0 0 1 -0.4,-0.8l1.81,-2.38a0.5,0.5 0 1 1 0.79,0.61l-1.81,2.37a0.47,0.47 0 0 1 -0.39,0.16l0,0.04zm3.62,-4.74a0.51,0.51 0 0 1 -0.31,-0.11a0.49,0.49 0 0 1 -0.09,-0.7l1.81,-2.37a0.5,0.5 0 1 1 0.79,0.61l-1.81,2.37a0.47,0.47 0 0 1 -0.38,0.16l-0.01,0.04z" fill="#231f20" id="svg_28"/>
  <path d="m283.6,101.79a0.49,0.49 0 0 1 -0.39,-0.8l0.58,-0.76l-0.81,-0.51a0.51,0.51 0 0 1 -0.16,-0.69a0.5,0.5 0 0 1 0.69,-0.15l1.27,0.8a0.52,0.52 0 0 1 0.23,0.33a0.53,0.53 0 0 1 -0.1,0.4l-0.91,1.19a0.5,0.5 0 0 1 -0.4,0.19z" fill="#231f20" id="svg_29"/>
  <path d="m111,107.44a0.47,0.47 0 0 1 -0.35,-0.15a0.5,0.5 0 0 1 0,-0.71l2.12,-2.07a0.51,0.51 0 0 1 0.71,0a0.5,0.5 0 0 1 0,0.71l-2.13,2.07a0.5,0.5 0 0 1 -0.35,0.15zm4.25,-4.14a0.47,0.47 0 0 1 -0.35,-0.15a0.48,0.48 0 0 1 0,-0.7l2.12,-2.07a0.5,0.5 0 0 1 0.71,0a0.49,0.49 0 0 1 0,0.7l-2.13,2.07a0.46,0.46 0 0 1 -0.38,0.15l0.03,0zm4.26,-4.13a0.5,0.5 0 0 1 -0.35,-0.86l2.12,-2.07a0.5,0.5 0 0 1 0.7,0.72l-2.16,2.04a0.49,0.49 0 0 1 -0.34,0.17l0.03,0zm161.26,-1a0.53,0.53 0 0 1 -0.27,-0.08l-2.5,-1.54a0.5,0.5 0 1 1 0.54,-0.84l2.46,1.58a0.51,0.51 0 0 1 -0.27,0.93l0.04,-0.05zm-5,-3.17a0.5,0.5 0 0 1 -0.27,-0.08l-2.5,-1.53a0.5,0.5 0 0 1 -0.15,-0.69a0.49,0.49 0 0 1 0.69,-0.16l2.5,1.58a0.49,0.49 0 0 1 0.16,0.69a0.52,0.52 0 0 1 -0.47,0.24l0.04,-0.05zm-152,0a0.5,0.5 0 0 1 -0.35,-0.86l2.12,-2.07a0.51,0.51 0 0 1 0.71,0a0.5,0.5 0 0 1 0,0.71l-2.13,2.07a0.49,0.49 0 0 1 -0.39,0.15l0.04,0zm147,-3.15a0.5,0.5 0 0 1 -0.26,-0.08l-2.51,-1.58a0.51,0.51 0 0 1 -0.16,-0.69a0.5,0.5 0 0 1 0.69,-0.16l2.47,1.66a0.5,0.5 0 0 1 -0.27,0.92l0.04,-0.07zm-142.77,-0.96a0.49,0.49 0 0 1 -0.36,-0.15a0.48,0.48 0 0 1 0,-0.7l2.11,-2.04a0.5,0.5 0 0 1 0.71,0a0.49,0.49 0 0 1 0,0.7l-2.13,2.07a0.45,0.45 0 0 1 -0.33,0.12zm137.7,-2.18a0.53,0.53 0 0 1 -0.27,-0.08l-2.51,-1.58a0.5,0.5 0 0 1 0.54,-0.85l2.54,1.59a0.5,0.5 0 0 1 -0.27,0.92l-0.03,0zm-133.47,-1.95a0.5,0.5 0 0 1 -0.35,-0.86l2.12,-2.07a0.5,0.5 0 1 1 0.7,0.72l-2.12,2.07a0.54,0.54 0 0 1 -0.35,0.14zm128.46,-1.22a0.5,0.5 0 0 1 -0.27,-0.08l-2.51,-1.58a0.5,0.5 0 0 1 0.54,-0.85l2.5,1.59a0.49,0.49 0 0 1 0.16,0.69a0.51,0.51 0 0 1 -0.42,0.23zm-124.21,-2.92a0.5,0.5 0 0 1 -0.35,-0.86l2.12,-2.07a0.51,0.51 0 0 1 0.71,0a0.5,0.5 0 0 1 0,0.71l-2.12,2.07a0.54,0.54 0 0 1 -0.36,0.15zm119.19,-0.25a0.47,0.47 0 0 1 -0.27,-0.08l-2.5,-1.58a0.49,0.49 0 0 1 -0.16,-0.69a0.51,0.51 0 0 1 0.69,-0.16l2.51,1.59a0.5,0.5 0 0 1 0.15,0.69a0.48,0.48 0 0 1 -0.42,0.23zm-5,-3.17a0.45,0.45 0 0 1 -0.27,-0.08l-2.51,-1.58a0.5,0.5 0 0 1 -0.15,-0.69a0.51,0.51 0 0 1 0.69,-0.16l2.51,1.59a0.5,0.5 0 0 1 0.15,0.69a0.49,0.49 0 0 1 -0.43,0.23l0.01,0zm-109.93,-0.72a0.51,0.51 0 0 1 -0.36,-0.15a0.49,0.49 0 0 1 0,-0.7l2.12,-2.07a0.5,0.5 0 0 1 0.71,0a0.49,0.49 0 0 1 0,0.7l-2.12,2.07a0.49,0.49 0 0 1 -0.36,0.15l0.01,0zm104.91,-2.48a0.43,0.43 0 0 1 -0.27,-0.08l-2.51,-1.58a0.5,0.5 0 0 1 -0.15,-0.69a0.51,0.51 0 0 1 0.69,-0.16l2.5,1.59a0.49,0.49 0 0 1 0.16,0.69a0.51,0.51 0 0 1 -0.42,0.23zm-100.65,-1.65a0.5,0.5 0 0 1 -0.35,-0.86l2.12,-2.07a0.5,0.5 0 1 1 0.7,0.72l-2.12,2.07a0.54,0.54 0 0 1 -0.35,0.14zm95.65,-1.49a0.54,0.54 0 0 1 -0.27,-0.07l-2.5,-1.59a0.49,0.49 0 0 1 -0.16,-0.69a0.5,0.5 0 0 1 0.69,-0.15l2.51,1.58a0.5,0.5 0 0 1 0.15,0.69a0.48,0.48 0 0 1 -0.44,0.23l0.02,0zm-91.4,-2.65a0.5,0.5 0 0 1 -0.35,-0.86l1.34,-1.35a0.58,0.58 0 0 1 0.26,-0.13l1,-0.2a0.49,0.49 0 0 1 0.58,0.4a0.48,0.48 0 0 1 -0.39,0.58l-0.9,0.17l-1.25,1.23a0.54,0.54 0 0 1 -0.31,0.16l0.02,0zm86.39,-0.52a0.52,0.52 0 0 1 -0.27,-0.07l-2.53,-1.62a0.5,0.5 0 1 1 0.54,-0.84l2.51,1.58a0.5,0.5 0 0 1 0.15,0.69a0.49,0.49 0 0 1 -0.42,0.26l0.02,0zm-81.08,-1.57a0.51,0.51 0 0 1 -0.49,-0.41a0.5,0.5 0 0 1 0.4,-0.58l2.91,-0.56a0.49,0.49 0 0 1 0.62,0.43a0.51,0.51 0 0 1 -0.4,0.59l-2.91,0.56l-0.13,-0.03zm5.81,-1.12a0.5,0.5 0 0 1 -0.49,-0.41a0.49,0.49 0 0 1 0.4,-0.58l2.91,-0.57a0.5,0.5 0 0 1 0.58,0.4a0.49,0.49 0 0 1 -0.39,0.58l-2.92,0.57l-0.09,0.01zm70.24,-0.48a0.5,0.5 0 0 1 -0.27,-0.07l-2.51,-1.59a0.5,0.5 0 1 1 0.54,-0.84l2.5,1.58a0.49,0.49 0 0 1 0.16,0.69a0.51,0.51 0 0 1 -0.42,0.23zm-64.42,-0.65a0.5,0.5 0 0 1 -0.49,-0.4a0.51,0.51 0 0 1 0.4,-0.59l2.91,-0.56a0.51,0.51 0 0 1 0.59,0.4a0.5,0.5 0 0 1 -0.4,0.58l-2.91,0.56l-0.1,0.01zm5.81,-1.12a0.49,0.49 0 0 1 -0.49,-0.41a0.48,0.48 0 0 1 0.39,-0.58l2.91,-0.56a0.49,0.49 0 0 1 0.59,0.39a0.5,0.5 0 0 1 -0.4,0.59l-2.91,0.56l-0.09,0.01zm5.82,-1.12a0.51,0.51 0 0 1 -0.49,-0.41a0.49,0.49 0 0 1 0.4,-0.58l2.91,-0.57a0.5,0.5 0 0 1 0.58,0.4a0.48,0.48 0 0 1 -0.39,0.58l-2.91,0.57l-0.1,0.01zm47.75,-0.28a0.54,0.54 0 0 1 -0.27,-0.07l-2.5,-1.59a0.49,0.49 0 0 1 -0.16,-0.69a0.5,0.5 0 0 1 0.69,-0.15l2.51,1.58a0.5,0.5 0 0 1 0.15,0.69a0.48,0.48 0 0 1 -0.4,0.23l-0.02,0zm-41.93,-0.85a0.5,0.5 0 0 1 -0.49,-0.4a0.51,0.51 0 0 1 0.4,-0.59l2.91,-0.56a0.5,0.5 0 1 1 0.19,1l-2.91,0.56l-0.1,-0.01zm5.83,-1.12a0.5,0.5 0 0 1 -0.1,-1l2.92,-0.56a0.49,0.49 0 0 1 0.58,0.39a0.5,0.5 0 0 1 -0.39,0.59l-2.92,0.56l-0.09,0.02zm5.82,-1.12a0.51,0.51 0 0 1 -0.49,-0.41a0.5,0.5 0 0 1 0.4,-0.58l2.91,-0.57a0.5,0.5 0 0 1 0.19,1l-2.91,0.56l-0.1,0zm25.27,-0.07a0.53,0.53 0 0 1 -0.27,-0.08l-2.51,-1.59a0.5,0.5 0 0 1 0.54,-0.84l2.51,1.58a0.51,0.51 0 0 1 -0.27,0.93zm-19.45,-1.06a0.5,0.5 0 0 1 -0.49,-0.4a0.51,0.51 0 0 1 0.4,-0.59l2.91,-0.56a0.5,0.5 0 1 1 0.19,1l-2.91,0.56l-0.1,-0.01zm5.89,-1.13a0.5,0.5 0 0 1 -0.49,-0.41a0.49,0.49 0 0 1 0.4,-0.58l2.91,-0.56a0.5,0.5 0 0 1 0.19,1l-2.92,0.56l-0.09,-0.01zm8.6,-1a0.5,0.5 0 0 1 -0.26,-0.08l-0.64,-0.41l-1.78,0.35a0.51,0.51 0 0 1 -0.59,-0.4a0.5,0.5 0 0 1 0.4,-0.58l2,-0.39a0.55,0.55 0 0 1 0.36,0.07l0.81,0.51a0.5,0.5 0 0 1 0.16,0.69a0.52,0.52 0 0 1 -0.5,0.24l0.04,0z" fill="#231f20" id="svg_30"/>
  <path d="m108,112a0.5,0.5 0 0 1 -0.49,-0.41l-0.25,-1.48a0.49,0.49 0 0 1 0.15,-0.44l1.07,-1a0.5,0.5 0 1 1 0.7,0.72l-0.89,0.86l0.21,1.22a0.51,0.51 0 0 1 -0.41,0.58l-0.09,-0.05z" fill="#231f20" id="svg_31"/>
  <path d="m123,199.84a0.49,0.49 0 0 1 -0.49,-0.41l-0.5,-2.93a0.5,0.5 0 1 1 1,-0.17l0.5,2.93a0.5,0.5 0 0 1 -0.41,0.57l-0.1,0.01zm-1,-5.84a0.49,0.49 0 0 1 -0.49,-0.42l-0.5,-2.92a0.5,0.5 0 1 1 1,-0.17l0.5,2.92a0.49,0.49 0 0 1 -0.41,0.58l-0.1,0.01zm-1,-5.86a0.49,0.49 0 0 1 -0.49,-0.41l-0.5,-2.93a0.5,0.5 0 1 1 1,-0.17l0.5,2.93a0.51,0.51 0 0 1 -0.41,0.58l-0.1,0zm-1,-5.85a0.51,0.51 0 0 1 -0.5,-0.42l-0.49,-2.92a0.5,0.5 0 0 1 0.4,-0.58a0.51,0.51 0 0 1 0.58,0.41l0.5,2.93a0.49,0.49 0 0 1 -0.41,0.57l-0.08,0.01zm-1,-5.85a0.5,0.5 0 0 1 -0.49,-0.42l-0.5,-2.93a0.49,0.49 0 0 1 0.41,-0.57a0.5,0.5 0 0 1 0.58,0.41l0.49,2.92a0.49,0.49 0 0 1 -0.4,0.58l-0.09,0.01zm-1,-5.86a0.5,0.5 0 0 1 -0.49,-0.41l-0.5,-2.93a0.5,0.5 0 1 1 1,-0.17l0.5,2.93a0.51,0.51 0 0 1 -0.41,0.58l-0.1,0zm-1,-5.85a0.49,0.49 0 0 1 -0.49,-0.42l-0.5,-2.92a0.5,0.5 0 1 1 1,-0.17l0.5,2.93a0.48,0.48 0 0 1 -0.41,0.57l-0.1,0.01zm-1,-5.85a0.5,0.5 0 0 1 -0.49,-0.42l-0.5,-2.93a0.5,0.5 0 0 1 1,-0.17l0.5,2.93a0.51,0.51 0 0 1 -0.41,0.58l-0.1,0.01zm-1,-5.88a0.51,0.51 0 0 1 -0.5,-0.41l-0.49,-2.93a0.5,0.5 0 0 1 0.41,-0.58a0.5,0.5 0 0 1 0.57,0.41l0.5,2.93a0.49,0.49 0 0 1 -0.41,0.57l-0.08,0.01zm-1,-5.85a0.49,0.49 0 0 1 -0.49,-0.42l-0.5,-2.93a0.49,0.49 0 0 1 0.41,-0.57a0.5,0.5 0 0 1 0.58,0.41l0.49,2.92a0.49,0.49 0 0 1 -0.41,0.58l-0.08,0.01zm-1,-5.86a0.49,0.49 0 0 1 -0.49,-0.41l-0.51,-2.88a0.5,0.5 0 1 1 1,-0.17l0.5,2.93a0.51,0.51 0 0 1 -0.41,0.58l-0.09,-0.05zm-1,-5.85a0.49,0.49 0 0 1 -0.49,-0.42l-0.5,-2.92a0.5,0.5 0 1 1 1,-0.17l0.5,2.93a0.48,0.48 0 0 1 -0.41,0.57l-0.1,0.01zm-1,-5.85a0.5,0.5 0 0 1 -0.49,-0.42l-0.5,-2.93a0.5,0.5 0 0 1 1,-0.17l0.5,2.93a0.51,0.51 0 0 1 -0.41,0.58l-0.1,0.01zm-1,-5.86a0.51,0.51 0 0 1 -0.5,-0.41l-0.5,-2.92a0.5,0.5 0 1 1 1,-0.17l0.5,2.93a0.49,0.49 0 0 1 -0.41,0.57l-0.09,0zm-1,-5.85a0.49,0.49 0 0 1 -0.49,-0.42l-0.5,-2.92a0.5,0.5 0 0 1 0.41,-0.58a0.51,0.51 0 0 1 0.58,0.41l0.49,2.92a0.49,0.49 0 0 1 -0.4,0.58l-0.09,0.01z" fill="#231f20" id="svg_32"/>
  <path d="m123.71,204.25a0.5,0.5 0 0 1 -0.26,-0.08a0.51,0.51 0 0 1 -0.23,-0.34l-0.25,-1.48a0.49,0.49 0 0 1 0.41,-0.57a0.5,0.5 0 0 1 0.58,0.41l0.15,0.91l0.88,-0.28a0.49,0.49 0 0 1 0.63,0.32a0.5,0.5 0 0 1 -0.33,0.63l-1.42,0.45a0.41,0.41 0 0 1 -0.16,0.03z" fill="#231f20" id="svg_33"/>
  <path d="m128,202.89a0.5,0.5 0 0 1 -0.15,-1l2.86,-0.91a0.49,0.49 0 0 1 0.62,0.33a0.49,0.49 0 0 1 -0.32,0.62l-2.86,0.91l-0.15,0.05zm5.71,-1.81a0.48,0.48 0 0 1 -0.47,-0.34a0.49,0.49 0 0 1 0.32,-0.63l2.86,-0.91a0.5,0.5 0 0 1 0.3,1l-2.86,0.9a0.39,0.39 0 0 1 -0.15,-0.02zm5.71,-1.8a0.5,0.5 0 0 1 -0.15,-1l2.86,-0.9a0.5,0.5 0 1 1 0.3,0.95l-2.85,0.9a0.45,0.45 0 0 1 -0.16,0.05zm5.72,-1.81a0.51,0.51 0 0 1 -0.48,-0.35a0.51,0.51 0 0 1 0.33,-0.63l2.85,-0.9a0.5,0.5 0 0 1 0.63,0.33a0.49,0.49 0 0 1 -0.33,0.62l-2.85,0.91l-0.15,0.02zm5.71,-1.81a0.5,0.5 0 0 1 -0.15,-1l2.85,-0.91a0.5,0.5 0 0 1 0.31,1l-2.86,0.9a0.39,0.39 0 0 1 -0.15,0.01zm5.71,-1.8a0.51,0.51 0 0 1 -0.48,-0.35a0.51,0.51 0 0 1 0.33,-0.63l2.86,-0.9a0.49,0.49 0 0 1 0.62,0.32a0.49,0.49 0 0 1 -0.32,0.63l-2.86,0.9l-0.15,0.03zm5.71,-1.81a0.49,0.49 0 0 1 -0.47,-0.35a0.5,0.5 0 0 1 0.32,-0.63l2.86,-0.9a0.5,0.5 0 1 1 0.3,1l-2.86,0.91l-0.15,-0.03zm5.72,-1.81a0.5,0.5 0 0 1 -0.16,-1l2.86,-0.91a0.5,0.5 0 0 1 0.3,1l-2.85,0.9a0.39,0.39 0 0 1 -0.14,0.01l-0.01,0zm5.71,-1.8a0.51,0.51 0 0 1 -0.48,-0.35a0.5,0.5 0 0 1 0.33,-0.63l2.85,-0.9a0.5,0.5 0 1 1 0.3,0.95l-2.85,0.9a0.4,0.4 0 0 1 -0.15,0.03zm5.71,-1.81a0.5,0.5 0 0 1 -0.15,-1l2.86,-0.9a0.49,0.49 0 0 1 0.62,0.33a0.49,0.49 0 0 1 -0.32,0.62l-2.86,0.91l-0.15,0.04zm5.71,-1.81a0.48,0.48 0 0 1 -0.47,-0.35a0.49,0.49 0 0 1 0.32,-0.62l2.86,-0.91a0.49,0.49 0 0 1 0.62,0.33a0.5,0.5 0 0 1 -0.32,0.63l-2.86,0.9a0.39,0.39 0 0 1 -0.15,0.02zm5.71,-1.8a0.5,0.5 0 0 1 -0.15,-1l2.86,-0.9a0.5,0.5 0 0 1 0.63,0.32a0.51,0.51 0 0 1 -0.33,0.63l-2.84,0.93l-0.17,0.02zm5.72,-1.81a0.5,0.5 0 0 1 -0.15,-1l2.85,-0.9a0.5,0.5 0 1 1 0.3,0.95l-2.85,0.91l-0.15,0.04zm5.71,-1.81a0.5,0.5 0 0 1 -0.48,-0.35a0.49,0.49 0 0 1 0.33,-0.62l2.85,-0.91a0.5,0.5 0 0 1 0.3,1l-2.85,0.9l-0.15,-0.02zm5.71,-1.8a0.51,0.51 0 0 1 -0.48,-0.35a0.51,0.51 0 0 1 0.33,-0.63l2.86,-0.91a0.5,0.5 0 0 1 0.3,1l-2.86,0.9a0.4,0.4 0 0 1 -0.12,-0.01l-0.03,0zm5.71,-1.81a0.5,0.5 0 0 1 -0.15,-1l2.86,-0.9a0.49,0.49 0 0 1 0.62,0.32a0.49,0.49 0 0 1 -0.32,0.63l-2.86,0.9a0.4,0.4 0 0 1 -0.15,0.05z" fill="#231f20" id="svg_34"/>
  <path d="m219.39,174a0.49,0.49 0 0 1 -0.47,-0.35a0.5,0.5 0 0 1 0.32,-0.63l0.35,-0.1l-0.32,-0.18a0.51,0.51 0 0 1 -0.18,-0.69a0.5,0.5 0 0 1 0.68,-0.18l1.3,0.75a0.48,0.48 0 0 1 0.25,0.48a0.51,0.51 0 0 1 -0.35,0.43l-1.43,0.45l-0.15,0.02z" fill="#231f20" id="svg_35"/>
  <path d="m216.92,171.29a0.42,0.42 0 0 1 -0.24,-0.07l-2.6,-1.49a0.5,0.5 0 0 1 -0.19,-0.68a0.52,0.52 0 0 1 0.69,-0.19l2.59,1.5a0.49,0.49 0 0 1 0.19,0.68a0.5,0.5 0 0 1 -0.44,0.25zm-5.19,-3a0.55,0.55 0 0 1 -0.25,-0.07l-2.6,-1.49a0.52,0.52 0 0 1 -0.19,-0.69a0.51,0.51 0 0 1 0.69,-0.18l2.6,1.49a0.5,0.5 0 0 1 0.18,0.68a0.49,0.49 0 0 1 -0.43,0.28l0,-0.02zm-5.2,-3a0.45,0.45 0 0 1 -0.25,-0.07l-2.6,-1.49a0.5,0.5 0 1 1 0.5,-0.86l2.6,1.49a0.5,0.5 0 0 1 -0.25,0.93zm-5.2,-3a0.59,0.59 0 0 1 -0.25,-0.07l-2.6,-1.49a0.51,0.51 0 0 1 -0.18,-0.69a0.49,0.49 0 0 1 0.68,-0.18l2.6,1.49a0.5,0.5 0 0 1 0.18,0.68a0.49,0.49 0 0 1 -0.43,0.31l0,-0.05zm-5.2,-3a0.57,0.57 0 0 1 -0.25,-0.06l-2.59,-1.5a0.49,0.49 0 1 1 0.49,-0.86l2.6,1.49a0.51,0.51 0 0 1 0.19,0.68a0.51,0.51 0 0 1 -0.44,0.31l0,-0.06zm-5.2,-3a0.42,0.42 0 0 1 -0.24,-0.07l-2.6,-1.49a0.5,0.5 0 0 1 -0.19,-0.68a0.49,0.49 0 0 1 0.68,-0.19l2.6,1.49a0.51,0.51 0 0 1 0.19,0.69a0.5,0.5 0 0 1 -0.44,0.33l0,-0.08zm-5.19,-3a0.54,0.54 0 0 1 -0.25,-0.06l-2.6,-1.5a0.5,0.5 0 1 1 0.5,-0.86l2.6,1.49a0.5,0.5 0 0 1 -0.25,0.93zm-5.2,-3a0.45,0.45 0 0 1 -0.25,-0.07l-2.6,-1.49a0.5,0.5 0 0 1 0.5,-0.87l2.6,1.49a0.51,0.51 0 0 1 0.18,0.69a0.5,0.5 0 0 1 -0.43,0.36l0,-0.11zm-5.2,-3a0.57,0.57 0 0 1 -0.25,-0.06l-2.6,-1.5a0.5,0.5 0 1 1 0.5,-0.86l2.6,1.49a0.5,0.5 0 0 1 -0.25,0.93zm-5.2,-3a0.47,0.47 0 0 1 -0.25,-0.07l-2.6,-1.49a0.5,0.5 0 0 1 0.5,-0.87l2.6,1.49a0.52,0.52 0 0 1 0.19,0.69a0.51,0.51 0 0 1 -0.44,0.39l0,-0.14zm-5.19,-3a0.51,0.51 0 0 1 -0.25,-0.06l-2.6,-1.5a0.49,0.49 0 1 1 0.49,-0.86l2.6,1.49a0.5,0.5 0 0 1 -0.24,0.93zm-5.2,-3a0.45,0.45 0 0 1 -0.25,-0.07l-2.6,-1.49a0.51,0.51 0 0 1 -0.19,-0.68a0.52,0.52 0 0 1 0.69,-0.19l2.6,1.5a0.5,0.5 0 0 1 -0.25,0.93zm-5.2,-3a0.54,0.54 0 0 1 -0.25,-0.06l-2.6,-1.49a0.51,0.51 0 0 1 -0.18,-0.69a0.49,0.49 0 0 1 0.68,-0.18l2.6,1.49a0.5,0.5 0 0 1 -0.25,0.93zm-5.2,-3a0.47,0.47 0 0 1 -0.25,-0.07l-2.6,-1.49a0.49,0.49 0 0 1 -0.18,-0.68a0.51,0.51 0 0 1 0.68,-0.19l2.6,1.5a0.5,0.5 0 0 1 0.19,0.68a0.52,0.52 0 0 1 -0.44,0.45l0,-0.2zm-5.2,-3a0.57,0.57 0 0 1 -0.25,-0.06l-2.59,-1.23a0.51,0.51 0 0 1 -0.19,-0.69a0.5,0.5 0 0 1 0.68,-0.18l2.6,1.49a0.51,0.51 0 0 1 0.19,0.68a0.49,0.49 0 0 1 -0.44,0.2l0,-0.21zm-5.19,-3a0.43,0.43 0 0 1 -0.25,-0.07l-2.6,-1.49a0.51,0.51 0 0 1 -0.19,-0.68a0.52,0.52 0 0 1 0.69,-0.19l2.59,1.5a0.5,0.5 0 0 1 -0.24,0.93zm-5.2,-3a0.55,0.55 0 0 1 -0.25,-0.07l-2.6,-1.49a0.52,0.52 0 0 1 -0.19,-0.69a0.51,0.51 0 0 1 0.69,-0.18l2.6,1.49a0.49,0.49 0 0 1 0.18,0.68a0.49,0.49 0 0 1 -0.43,0.51l0,-0.25zm-5.2,-3a0.45,0.45 0 0 1 -0.25,-0.07l-2.6,-1.49a0.49,0.49 0 0 1 -0.18,-0.68a0.51,0.51 0 0 1 0.68,-0.19l2.6,1.5a0.5,0.5 0 0 1 -0.25,0.93zm-5.2,-3a0.59,0.59 0 0 1 -0.25,-0.07l-2.6,-1.49a0.51,0.51 0 0 1 -0.18,-0.69a0.49,0.49 0 0 1 0.68,-0.18l2.6,1.49a0.5,0.5 0 0 1 0.18,0.68a0.49,0.49 0 0 1 -0.43,0.54l0,-0.28zm-5.2,-3a0.57,0.57 0 0 1 -0.25,-0.06l-2.59,-1.5a0.49,0.49 0 1 1 0.49,-0.86l2.6,1.49a0.51,0.51 0 0 1 0.19,0.68a0.51,0.51 0 0 1 -0.44,0.54l0,-0.29z" fill="#231f20" id="svg_36"/>
  <path d="m113,111.6a0.43,0.43 0 0 1 -0.25,-0.07l-1.3,-0.75a0.49,0.49 0 1 1 0.49,-0.86l1.3,0.74a0.51,0.51 0 0 1 0.19,0.69a0.5,0.5 0 0 1 -0.43,0.25z" fill="#231f20" id="svg_37"/>
  <path d="m205.25,120.54a0.46,0.46 0 0 1 -0.33,-0.13a0.52,0.52 0 0 1 -0.06,-0.73a0.47,0.47 0 0 1 0.68,-0.05l0.05,0.05a0.5,0.5 0 0 1 -0.34,0.86zm-2.25,-2.08a0.51,0.51 0 0 1 -0.34,-0.14l-2.2,-2a0.5,0.5 0 0 1 0.68,-0.74l2.2,2a0.5,0.5 0 0 1 0,0.71a0.52,0.52 0 0 1 -0.34,0.17zm-4.4,-4.08a0.5,0.5 0 0 1 -0.34,-0.13l-2.2,-2a0.5,0.5 0 0 1 0.68,-0.74l2.2,2a0.5,0.5 0 0 1 0,0.71a0.49,0.49 0 0 1 -0.34,0.16zm-4.4,-4.08a0.5,0.5 0 0 1 -0.34,-0.13l-2.2,-2a0.51,0.51 0 0 1 0,-0.71a0.5,0.5 0 0 1 0.71,0l2.2,2a0.5,0.5 0 0 1 -0.34,0.87l-0.03,-0.03zm-4.4,-4.08a0.5,0.5 0 0 1 -0.34,-0.13l-2.2,-2a0.5,0.5 0 1 1 0.68,-0.73l2.2,2a0.5,0.5 0 0 1 -0.34,0.86zm-4.4,-4.07a0.51,0.51 0 0 1 -0.34,-0.14l-2.2,-2a0.5,0.5 0 1 1 0.68,-0.73l2.2,2a0.51,0.51 0 0 1 0,0.71a0.54,0.54 0 0 1 -0.34,0.16zm-4.4,-4.08a0.49,0.49 0 0 1 -0.34,-0.14l-2.2,-2a0.5,0.5 0 1 1 0.68,-0.74l2.2,2a0.51,0.51 0 0 1 0,0.71a0.54,0.54 0 0 1 -0.34,0.17zm-4.4,-4.07a0.47,0.47 0 0 1 -0.34,-0.13l-2.2,-2a0.5,0.5 0 0 1 0,-0.71a0.51,0.51 0 0 1 0.71,0l2.2,2a0.5,0.5 0 0 1 0,0.71a0.46,0.46 0 0 1 -0.37,0.13zm-4.4,-4.08a0.47,0.47 0 0 1 -0.34,-0.13l-2.2,-2a0.5,0.5 0 1 1 0.67,-0.73l2.21,2a0.5,0.5 0 0 1 0,0.71a0.48,0.48 0 0 1 -0.34,0.14l0,0.01zm-4.41,-4.08a0.46,0.46 0 0 1 -0.33,-0.13l-2.21,-2a0.5,0.5 0 0 1 0,-0.71a0.49,0.49 0 0 1 0.7,0l2.2,2a0.5,0.5 0 0 1 -0.34,0.86l-0.02,-0.02zm-4.4,-4.07a0.51,0.51 0 0 1 -0.34,-0.14l-2.2,-2a0.49,0.49 0 0 1 0,-0.7a0.48,0.48 0 0 1 0.7,0l2.2,2a0.5,0.5 0 0 1 0,0.71a0.52,0.52 0 0 1 -0.36,0.12l0,0.01zm-4.39,-4.09a0.51,0.51 0 0 1 -0.34,-0.14l-2.2,-2a0.5,0.5 0 1 1 0.68,-0.74l2.2,2a0.5,0.5 0 0 1 0,0.71a0.52,0.52 0 0 1 -0.34,0.17zm-4.4,-4.08a0.5,0.5 0 0 1 -0.34,-0.13l-2.2,-2a0.5,0.5 0 1 1 0.68,-0.74l2.2,2a0.5,0.5 0 0 1 -0.34,0.87z" fill="#231f20" id="svg_38"/>
  <path d="m225.46,178a0.49,0.49 0 0 1 -0.47,-0.34l-1,-2.73a0.48,0.48 0 0 1 0.3,-0.63a0.49,0.49 0 0 1 0.64,0.3l1,2.73a0.51,0.51 0 0 1 -0.31,0.64a0.45,0.45 0 0 1 -0.16,0.03zm-2,-5.56a0.5,0.5 0 0 1 -0.47,-0.34l-1,-2.83a0.48,0.48 0 0 1 0.3,-0.63a0.49,0.49 0 0 1 0.64,0.3l1,2.83a0.49,0.49 0 0 1 -0.3,0.64a0.51,0.51 0 0 1 -0.13,0.03l-0.04,0zm-2,-5.66a0.5,0.5 0 0 1 -0.47,-0.34l-1,-2.83a0.48,0.48 0 0 1 0.3,-0.63a0.49,0.49 0 0 1 0.64,0.3l1,2.83a0.49,0.49 0 0 1 -0.3,0.64a0.51,0.51 0 0 1 -0.12,0.03l-0.05,0zm-2,-5.66a0.5,0.5 0 0 1 -0.47,-0.34l-1,-2.83a0.48,0.48 0 0 1 0.3,-0.63a0.49,0.49 0 0 1 0.64,0.3l1,2.83a0.49,0.49 0 0 1 -0.3,0.64a0.51,0.51 0 0 1 -0.11,0.03l-0.06,0zm-2,-5.66a0.5,0.5 0 0 1 -0.47,-0.34l-1,-2.83a0.48,0.48 0 0 1 0.3,-0.63a0.49,0.49 0 0 1 0.64,0.3l1,2.83a0.49,0.49 0 0 1 -0.3,0.64a0.51,0.51 0 0 1 -0.1,0.03l-0.07,0zm-2,-5.66a0.5,0.5 0 0 1 -0.47,-0.34l-1,-2.83a0.5,0.5 0 0 1 0.3,-0.64a0.51,0.51 0 0 1 0.64,0.31l1,2.83a0.49,0.49 0 0 1 -0.3,0.64a0.51,0.51 0 0 1 -0.09,0.03l-0.08,0zm-2,-5.66a0.49,0.49 0 0 1 -0.47,-0.34l-1,-2.83a0.5,0.5 0 0 1 0.95,-0.33l1,2.83a0.5,0.5 0 0 1 -0.3,0.64a0.51,0.51 0 0 1 -0.09,0.03l-0.09,0zm-2,-5.66a0.49,0.49 0 0 1 -0.47,-0.34l-1,-2.83a0.5,0.5 0 0 1 1.01,-0.31l1,2.83a0.5,0.5 0 0 1 -0.3,0.64a0.51,0.51 0 0 1 -0.14,0.01l-0.1,0zm-2,-5.66a0.49,0.49 0 0 1 -0.47,-0.34l-1,-2.83a0.5,0.5 0 1 1 1,-0.33l1,2.83a0.5,0.5 0 0 1 -0.3,0.64l-0.23,0.03zm-2,-5.66a0.49,0.49 0 0 1 -0.47,-0.34l-1,-2.83a0.5,0.5 0 1 1 0.95,-0.33l1,2.83a0.5,0.5 0 0 1 -0.3,0.64l-0.18,0.03zm-2,-5.66a0.49,0.49 0 0 1 -0.47,-0.34l-0.23,-0.65l-1.67,-0.17a0.5,0.5 0 0 1 0.11,-1l2,0.21a0.5,0.5 0 0 1 0.42,0.33l0.33,1a0.5,0.5 0 0 1 -0.3,0.64l-0.19,-0.02zm-5.3,-1.47l-3,-0.3a0.5,0.5 0 0 1 -0.44,-0.55a0.5,0.5 0 0 1 0.55,-0.45l3,0.31a0.5,0.5 0 0 1 0.45,0.55a0.51,0.51 0 0 1 -0.43,0.41l-0.13,0.03zm-6,-0.61l-3,-0.31a0.49,0.49 0 0 1 -0.45,-0.54a0.51,0.51 0 0 1 0.55,-0.45l3,0.31a0.49,0.49 0 0 1 0.45,0.54a0.5,0.5 0 0 1 -0.39,0.45l-0.16,0zm-6,-0.61l-3,-0.31a0.49,0.49 0 0 1 -0.45,-0.54a0.51,0.51 0 0 1 0.55,-0.45l3,0.3a0.5,0.5 0 0 1 -0.05,1l-0.05,0zm-6,-0.61l-3,-0.31a0.5,0.5 0 0 1 -0.45,-0.55a0.51,0.51 0 0 1 0.55,-0.44l3,0.3a0.5,0.5 0 0 1 -0.05,1l-0.05,0zm-6,-0.61l-0.06,0l-3,-0.31a0.51,0.51 0 0 1 -0.45,-0.55a0.5,0.5 0 0 1 0.55,-0.44l3,0.3a0.5,0.5 0 0 1 0.44,0.55a0.49,0.49 0 0 1 -0.22,0.45l-0.26,0zm-6,-0.61l-3,-0.3a0.51,0.51 0 0 1 -0.45,-0.55a0.52,0.52 0 0 1 0.55,-0.45l3,0.31a0.5,0.5 0 0 1 0.44,0.55a0.49,0.49 0 0 1 -0.25,0.46l-0.29,-0.02zm-6,-0.61l-3,-0.3a0.5,0.5 0 0 1 -0.44,-0.55a0.49,0.49 0 0 1 0.54,-0.45l3,0.31a0.5,0.5 0 0 1 -0.05,1l-0.05,-0.01zm-6,-0.62l-3,-0.3a0.5,0.5 0 0 1 -0.44,-0.55a0.51,0.51 0 0 1 0.55,-0.45l3,0.31a0.5,0.5 0 0 1 -0.05,1l-0.06,-0.01zm-6,-0.61l-3,-0.31a0.49,0.49 0 0 1 -0.44,-0.54a0.5,0.5 0 0 1 0.55,-0.45l3,0.3a0.5,0.5 0 0 1 -0.05,1l-0.06,0zm-6,-0.61l-3,-0.31a0.5,0.5 0 0 1 -0.45,-0.55a0.5,0.5 0 0 1 0.55,-0.44l3,0.3a0.5,0.5 0 0 1 -0.05,1l-0.05,0zm-6,-0.61l-3,-0.31a0.5,0.5 0 0 1 -0.45,-0.55a0.52,0.52 0 0 1 0.55,-0.44l3,0.3a0.5,0.5 0 0 1 -0.05,1l-0.05,0zm-6,-0.61l-3,-0.31a0.5,0.5 0 0 1 -0.45,-0.55a0.52,0.52 0 0 1 0.55,-0.45l3,0.31a0.5,0.5 0 0 1 -0.05,1l-0.05,0zm-6,-0.61l-0.06,0l-3,-0.3a0.5,0.5 0 1 1 0.1,-1l3,0.31a0.5,0.5 0 0 1 -0.05,1l0.01,-0.01zm-6,-0.62l-3,-0.3a0.52,0.52 0 0 1 -0.45,-0.55a0.5,0.5 0 0 1 0.55,-0.45l3,0.31a0.5,0.5 0 0 1 0.44,0.55a0.49,0.49 0 0 1 0,0.44l-0.54,0zm-6,-0.61l-3,-0.31a0.49,0.49 0 0 1 -0.44,-0.54a0.5,0.5 0 0 1 0.54,-0.45l3,0.31a0.5,0.5 0 0 1 0,1l-0.1,-0.01zm-6,-0.61l-0.05,0l-3,-0.31a0.5,0.5 0 0 1 -0.44,-0.55a0.51,0.51 0 0 1 0.55,-0.44l3,0.3a0.52,0.52 0 0 1 0.45,0.55a0.51,0.51 0 0 1 0.09,0.45l-0.6,0z" fill="#231f20" id="svg_39"/>
  <path d="m227.42,239.2a0.51,0.51 0 0 1 -0.36,-0.15a0.51,0.51 0 0 1 0,-0.71l2.13,-2.12a0.5,0.5 0 0 1 0.7,0a0.5,0.5 0 0 1 0,0.71l-2.12,2.12a0.5,0.5 0 0 1 -0.35,0.15zm4.25,-4.24a0.51,0.51 0 0 1 -0.36,-0.15a0.51,0.51 0 0 1 0,-0.71l2.13,-2.11a0.49,0.49 0 0 1 0.7,0.7l-2.14,2.12a0.5,0.5 0 0 1 -0.33,0.19l0,-0.04zm4.24,-4.24a0.54,0.54 0 0 1 -0.35,-0.14a0.51,0.51 0 0 1 0,-0.71l2.12,-2.12a0.5,0.5 0 0 1 0.71,0a0.5,0.5 0 0 1 0,0.71l-2.12,2.12a0.54,0.54 0 0 1 -0.36,0.14zm4.25,-4.24a0.47,0.47 0 0 1 -0.35,-0.14a0.5,0.5 0 0 1 0,-0.71l2.12,-2.12a0.5,0.5 0 0 1 0.71,0.71l-2.12,2.12a0.5,0.5 0 0 1 -0.36,0.14zm4.25,-4.23a0.47,0.47 0 0 1 -0.35,-0.15a0.5,0.5 0 0 1 0,-0.71l2.12,-2.11a0.5,0.5 0 0 1 0.71,0a0.5,0.5 0 0 1 0,0.7l-2.13,2.12a0.47,0.47 0 0 1 -0.35,0.15zm4.25,-4.24a0.47,0.47 0 0 1 -0.35,-0.15a0.48,0.48 0 0 1 0,-0.7l2.12,-2.12a0.5,0.5 0 0 1 0.71,0a0.51,0.51 0 0 1 0,0.71l-2.14,2.12a0.5,0.5 0 0 1 -0.34,0.13l0,0.01zm4.25,-4.24a0.5,0.5 0 0 1 -0.36,-0.14a0.51,0.51 0 0 1 0,-0.71l2.13,-2.12a0.5,0.5 0 0 1 0.7,0a0.5,0.5 0 0 1 0,0.71l-2.12,2.12a0.47,0.47 0 0 1 -0.35,0.14zm4.25,-4.23a0.51,0.51 0 0 1 -0.36,-0.15a0.51,0.51 0 0 1 0,-0.71l2.13,-2.12a0.49,0.49 0 0 1 0.7,0a0.48,0.48 0 0 1 0,0.7l-2.12,2.12a0.5,0.5 0 0 1 -0.35,0.16zm4.24,-4.24a0.5,0.5 0 0 1 -0.35,-0.85l2.12,-2.12a0.5,0.5 0 0 1 0.71,0.71l-2.12,2.11a0.51,0.51 0 0 1 -0.36,0.15zm-143.07,-1.92a0.49,0.49 0 0 1 -0.36,-0.15a0.5,0.5 0 0 1 0,-0.71l0.84,-0.8a0.51,0.51 0 0 1 0.71,0a0.5,0.5 0 0 1 0,0.71l-0.84,0.8a0.49,0.49 0 0 1 -0.35,0.15zm147.32,-2.32a0.52,0.52 0 0 1 -0.35,-0.14a0.5,0.5 0 0 1 0,-0.71l2.12,-2.12a0.51,0.51 0 0 1 0.71,0a0.5,0.5 0 0 1 0,0.71l-2.13,2.12a0.54,0.54 0 0 1 -0.35,0.14zm-144.31,-0.55a0.51,0.51 0 0 1 -0.36,-0.15a0.5,0.5 0 0 1 0,-0.71l2.17,-2.07a0.5,0.5 0 0 1 0.69,0.72l-2.18,2.07a0.49,0.49 0 0 1 -0.32,0.14zm148.56,-3.68a0.47,0.47 0 0 1 -0.35,-0.15a0.5,0.5 0 0 1 0,-0.71l2.12,-2.12a0.5,0.5 0 0 1 0.71,0.71l-2.13,2.12a0.47,0.47 0 0 1 -0.35,0.15zm-144.22,-0.46a0.5,0.5 0 0 1 -0.34,-0.86l2.17,-2.07a0.5,0.5 0 0 1 0.71,0a0.49,0.49 0 0 1 0,0.7l-2.22,2.09a0.47,0.47 0 0 1 -0.32,0.14zm148.47,-3.78a0.51,0.51 0 0 1 -0.36,-0.15a0.49,0.49 0 0 1 0,-0.7l2.12,-2.12a0.5,0.5 0 0 1 0.71,0a0.51,0.51 0 0 1 0,0.71l-2.13,2.11a0.47,0.47 0 0 1 -0.34,0.15zm-144.15,-0.36a0.5,0.5 0 0 1 -0.35,-0.86l2.17,-2.07a0.5,0.5 0 0 1 0.71,0a0.49,0.49 0 0 1 0,0.7l-2.17,2.07a0.45,0.45 0 0 1 -0.36,0.16zm148.37,-3.88a0.54,0.54 0 0 1 -0.36,-0.14a0.51,0.51 0 0 1 0,-0.71l2.13,-2.12a0.5,0.5 0 0 1 0.71,0.71l-2.13,2.12a0.52,0.52 0 0 1 -0.32,0.14l-0.03,0zm-144,-0.26a0.5,0.5 0 0 1 -0.34,-0.86l2.17,-2.07a0.5,0.5 0 1 1 0.69,0.73l-2.17,2.11a0.47,0.47 0 0 1 -0.35,0.09zm148.28,-4a0.51,0.51 0 0 1 -0.36,-0.15a0.51,0.51 0 0 1 0,-0.71l2.13,-2.12a0.5,0.5 0 0 1 0.7,0a0.5,0.5 0 0 1 0,0.71l-2.12,2.18a0.5,0.5 0 0 1 -0.35,0.12l0,-0.03zm-143.94,-0.09a0.5,0.5 0 0 1 -0.34,-0.86l2.17,-2.07a0.5,0.5 0 1 1 0.69,0.73l-2.17,2.07a0.51,0.51 0 0 1 -0.35,0.13zm148.18,-4.07a0.5,0.5 0 0 1 -0.35,-0.15a0.51,0.51 0 0 1 0,-0.71l2.13,-2.11a0.49,0.49 0 0 1 0.7,0.7l-2.12,2.12a0.51,0.51 0 0 1 -0.36,0.1l0,0.05zm-143.83,-0.07a0.5,0.5 0 0 1 -0.35,-0.86l2.17,-2.07a0.5,0.5 0 1 1 0.69,0.73l-2.17,2.07a0.48,0.48 0 0 1 -0.34,0.08l0,0.05zm4.34,-4.13a0.52,0.52 0 0 1 -0.36,-0.16a0.5,0.5 0 0 1 0,-0.71l2.17,-2.07a0.5,0.5 0 1 1 0.69,0.73l-2.17,2.07a0.52,0.52 0 0 1 -0.33,0.09l0,0.05zm143.75,-0.07a0.45,0.45 0 0 1 -0.34,-0.14a0.49,0.49 0 0 1 -0.14,-0.49l-0.24,-2.76a0.5,0.5 0 1 1 1,-0.09l0.26,2.92a0.49,0.49 0 0 1 -0.14,0.4a0.57,0.57 0 0 1 -0.4,0.11l0,0.05zm-139.4,-4.07a0.52,0.52 0 0 1 -0.37,-0.16a0.5,0.5 0 0 1 0,-0.71l2.17,-2.07a0.5,0.5 0 1 1 0.69,0.73l-2.17,2.07a0.51,0.51 0 0 1 -0.32,0.09l0,0.05zm138.91,-1.86a0.5,0.5 0 0 1 -0.5,-0.45l-0.26,-3a0.49,0.49 0 0 1 0.45,-0.54a0.51,0.51 0 0 1 0.54,0.45l0.27,3a0.5,0.5 0 0 1 -0.46,0.54l-0.04,0zm-134.57,-2.33a0.52,0.52 0 0 1 -0.36,-0.16a0.5,0.5 0 0 1 0,-0.71l2.18,-2.06a0.48,0.48 0 0 1 0.7,0a0.5,0.5 0 0 1 0,0.71l-2.18,2.07a0.49,0.49 0 0 1 -0.34,0.15zm134,-3.69a0.5,0.5 0 0 1 -0.5,-0.46l-0.26,-3a0.49,0.49 0 0 1 0.45,-0.54a0.51,0.51 0 0 1 0.54,0.45l0.27,3a0.51,0.51 0 0 1 -0.46,0.55l-0.04,0zm-129.7,-0.45a0.48,0.48 0 0 1 -0.36,-0.16a0.49,0.49 0 0 1 0,-0.7l2.17,-2.07a0.5,0.5 0 1 1 0.69,0.72l-2.17,2.07a0.52,0.52 0 0 1 -0.29,0.14l-0.04,0zm4.35,-4.14a0.49,0.49 0 0 1 -0.37,-0.16a0.49,0.49 0 0 1 0,-0.7l2.17,-2.07a0.5,0.5 0 1 1 0.69,0.72l-2.11,2.09a0.51,0.51 0 0 1 -0.34,0.12l-0.04,0zm124.82,-1.39a0.49,0.49 0 0 1 -0.5,-0.45l-0.27,-3a0.51,0.51 0 0 1 0.46,-0.55a0.52,0.52 0 0 1 0.54,0.46l0.26,3a0.49,0.49 0 0 1 -0.45,0.54l-0.04,0zm-120.44,-2.73a0.48,0.48 0 0 1 -0.36,-0.16a0.49,0.49 0 0 1 0,-0.7l2.18,-2.07a0.49,0.49 0 0 1 0.7,0a0.5,0.5 0 0 1 0,0.71l-2.18,2.07a0.49,0.49 0 0 1 -0.34,0.15zm119.94,-3.23a0.49,0.49 0 0 1 -0.49,-0.45l-0.27,-3a0.5,0.5 0 0 1 0.46,-0.54a0.52,0.52 0 0 1 0.54,0.45l0.26,3a0.49,0.49 0 0 1 -0.45,0.54l-0.05,0zm-115.6,-0.91a0.48,0.48 0 0 1 -0.36,-0.16a0.49,0.49 0 0 1 0,-0.7l2.17,-2.07a0.5,0.5 0 1 1 0.69,0.72l-2.17,2.07a0.52,0.52 0 0 1 -0.33,0.12l0,0.02zm4.35,-4.14a0.49,0.49 0 0 1 -0.37,-0.16a0.49,0.49 0 0 1 0,-0.7l2.17,-2.07a0.5,0.5 0 0 1 0.71,0a0.49,0.49 0 0 1 0,0.7l-2.17,2.07a0.51,0.51 0 0 1 -0.34,0.14l0,0.02zm110.72,-0.92a0.5,0.5 0 0 1 -0.49,-0.46l-0.27,-3a0.51,0.51 0 0 1 0.45,-0.54a0.52,0.52 0 0 1 0.55,0.46l0.26,3a0.5,0.5 0 0 1 -0.45,0.55l-0.05,-0.01zm-106.38,-3.22a0.5,0.5 0 0 1 -0.34,-0.86l2.17,-2.07a0.49,0.49 0 0 1 0.7,0a0.48,0.48 0 0 1 0,0.7l-2.17,2.07a0.49,0.49 0 0 1 -0.36,0.14l0,0.02zm105.85,-2.78a0.51,0.51 0 0 1 -0.5,-0.45l-0.26,-3a0.5,0.5 0 0 1 1,-0.09l0.27,3a0.5,0.5 0 0 1 -0.45,0.54l-0.06,0zm-101.51,-1.38a0.5,0.5 0 0 1 -0.34,-0.86l2.17,-2.07a0.5,0.5 0 0 1 0.71,0a0.49,0.49 0 0 1 0,0.7l-2.17,2.07a0.47,0.47 0 0 1 -0.37,0.16zm4.35,-4.14a0.53,0.53 0 0 1 -0.37,-0.15a0.5,0.5 0 0 1 0,-0.71l2.17,-2.07a0.5,0.5 0 0 1 0.71,0a0.49,0.49 0 0 1 0,0.7l-2.17,2.07a0.47,0.47 0 0 1 -0.34,0.16zm96.63,-0.45a0.51,0.51 0 0 1 -0.5,-0.46l-0.26,-3a0.49,0.49 0 0 1 0.45,-0.54a0.5,0.5 0 0 1 0.54,0.45l0.27,3a0.5,0.5 0 0 1 -0.46,0.54l-0.04,0.01zm-92.29,-3.69a0.5,0.5 0 0 1 -0.34,-0.86l2.17,-2.07a0.5,0.5 0 0 1 0.69,0.73l-2.17,2.06a0.53,0.53 0 0 1 -0.35,0.14zm91.76,-2.29a0.5,0.5 0 0 1 -0.5,-0.46l-0.27,-3a0.5,0.5 0 1 1 1,-0.09l0.27,3a0.51,0.51 0 0 1 -0.46,0.55l-0.04,0zm-87.42,-1.85a0.5,0.5 0 0 1 -0.34,-0.86l2.17,-2.07a0.5,0.5 0 1 1 0.69,0.73l-2.17,2.07a0.51,0.51 0 0 1 -0.35,0.13zm86.89,-4.13a0.49,0.49 0 0 1 -0.5,-0.45l-0.27,-3a0.5,0.5 0 0 1 0.46,-0.54a0.51,0.51 0 0 1 0.54,0.45l0.27,3a0.5,0.5 0 0 1 -0.46,0.54l-0.04,0zm-82.54,0a0.49,0.49 0 0 1 -0.36,-0.15a0.5,0.5 0 0 1 0,-0.71l1.39,-1.32a0.48,0.48 0 0 1 0.22,-0.12l1.05,-0.27a0.51,0.51 0 0 1 0.61,0.37a0.49,0.49 0 0 1 -0.36,0.6l-0.93,0.24l-1.29,1.23a0.48,0.48 0 0 1 -0.33,0.12l0,0.01zm5.35,-2.31a0.5,0.5 0 0 1 -0.13,-1l2.91,-0.73a0.5,0.5 0 1 1 0.25,1l-2.91,0.73l-0.12,0zm5.81,-1.47a0.5,0.5 0 0 1 -0.12,-1l2.91,-0.73a0.5,0.5 0 0 1 0.61,0.36a0.51,0.51 0 0 1 -0.36,0.61l-2.91,0.73l-0.13,0.03zm5.82,-1.46a0.5,0.5 0 0 1 -0.12,-1l2.91,-0.73a0.5,0.5 0 0 1 0.61,0.37a0.5,0.5 0 0 1 -0.37,0.6l-2.9,0.73l-0.13,0.03zm65,-0.72a0.5,0.5 0 0 1 -0.49,-0.46l-0.27,-3a0.5,0.5 0 0 1 0.46,-0.54a0.52,0.52 0 0 1 0.54,0.45l0.26,3a0.49,0.49 0 0 1 -0.45,0.54l-0.05,0.01zm-59.2,-0.74a0.5,0.5 0 0 1 -0.12,-1l2.91,-0.73a0.5,0.5 0 0 1 0.61,0.36a0.51,0.51 0 0 1 -0.37,0.61l-2.91,0.73l-0.12,0.03zm5.82,-1.47a0.51,0.51 0 0 1 -0.49,-0.38a0.5,0.5 0 0 1 0.37,-0.6l2.91,-0.74a0.5,0.5 0 0 1 0.24,1l-2.91,0.74l-0.12,-0.02zm5.82,-1.46a0.5,0.5 0 0 1 -0.12,-1l2.91,-0.73a0.49,0.49 0 0 1 0.6,0.36a0.5,0.5 0 0 1 -0.36,0.61l-2.91,0.73l-0.12,0.03zm5.82,-1.47a0.5,0.5 0 0 1 -0.49,-0.37a0.51,0.51 0 0 1 0.37,-0.61l2.91,-0.73a0.49,0.49 0 0 1 0.6,0.36a0.5,0.5 0 0 1 -0.36,0.61l-2.91,0.73l-0.12,0.01zm41.21,-0.84a0.5,0.5 0 0 1 -0.49,-0.46l-0.27,-3a0.51,0.51 0 0 1 0.45,-0.55a0.52,0.52 0 0 1 0.55,0.46l0.26,3a0.5,0.5 0 0 1 -0.45,0.54l-0.05,0.01zm-35.32,-0.63a0.5,0.5 0 0 1 -0.13,-1l2.91,-0.73a0.5,0.5 0 0 1 0.61,0.37a0.49,0.49 0 0 1 -0.36,0.6l-2.91,0.73l-0.12,0.03zm5.81,-1.46a0.5,0.5 0 0 1 -0.12,-1l2.91,-0.73a0.5,0.5 0 0 1 0.61,0.36a0.51,0.51 0 0 1 -0.36,0.61l-2.91,0.73l-0.13,0.03zm5.82,-1.47a0.5,0.5 0 0 1 -0.48,-0.38a0.49,0.49 0 0 1 0.36,-0.6l2.91,-0.74a0.51,0.51 0 0 1 0.61,0.37a0.5,0.5 0 0 1 -0.36,0.6l-2.91,0.74l-0.13,0.01zm5.82,-1.46a0.49,0.49 0 0 1 -0.48,-0.38a0.5,0.5 0 0 1 0.36,-0.61l2.91,-0.73a0.51,0.51 0 0 1 0.61,0.36a0.51,0.51 0 0 1 -0.37,0.61l-2.91,0.73l-0.12,0.02zm17.41,-1a0.5,0.5 0 0 1 -0.5,-0.45l-0.26,-3a0.49,0.49 0 0 1 0.45,-0.54a0.5,0.5 0 0 1 0.54,0.45l0.27,3a0.5,0.5 0 0 1 -0.45,0.54l-0.05,0zm-11.59,-0.5a0.49,0.49 0 0 1 -0.48,-0.37a0.5,0.5 0 0 1 0.36,-0.61l2.91,-0.73a0.5,0.5 0 0 1 0.61,0.36a0.51,0.51 0 0 1 -0.37,0.61l-2.91,0.73l-0.12,0.01zm5.73,-1.41a0.5,0.5 0 0 1 -0.12,-1l2.91,-0.73a0.49,0.49 0 0 1 0.6,0.37a0.49,0.49 0 0 1 -0.36,0.6l-2.91,0.73l-0.12,0.03z" fill="#231f20" id="svg_40"/>
  <path d="m137.34,202.88a13.63,13.63 0 1 1 -13.63,-13.62a13.56,13.56 0 0 1 13.63,13.62z" fill="#1e3a8a" id="svg_41"/>
  <path d="m123.71,189.26a13.62,13.62 0 1 1 -13.62,13.62a13.62,13.62 0 0 1 13.62,-13.62m0,-0.92a14.54,14.54 0 1 0 11.38,23.6a14.39,14.39 0 0 0 3.16,-9.06a14.55,14.55 0 0 0 -14.54,-14.54z" fill="#231f20" id="svg_42"/>
  <path d="m220.66,56.22a5.76,5.76 0 0 1 -11.51,0a5.76,5.76 0 0 1 11.51,0z" fill="#1e3a8a" id="svg_43" transform="matrix(1 0 0 1 0 0)"/>
  <path d="m214.9,50.47a5.75,5.75 0 0 1 5.76,5.75a5.76,5.76 0 0 1 -11.51,0a5.75,5.75 0 0 1 5.75,-5.75m0,-0.91a6.66,6.66 0 1 0 6.67,6.66a6.67,6.67 0 0 0 -6.67,-6.66z" fill="#231f20" id="svg_44"/>
  <path d="m235.66,238.7a8.77,8.77 0 1 1 -8.77,-8.77a8.77,8.77 0 0 1 8.77,8.77z" fill="#1e3a8a" id="svg_45" transform="matrix(1 0 0 1 0 0)"/>
  <path d="m226.89,229.93a8.77,8.77 0 1 1 -8.76,8.77a8.77,8.77 0 0 1 8.76,-8.77m0,-0.91a9.67,9.67 0 1 0 9.68,9.68a9.69,9.69 0 0 0 -9.68,-9.68z" fill="#231f20" id="svg_46"/>
  <path d="m297.86,174.56a6.68,6.68 0 1 1 -6.67,-6.67a6.65,6.65 0 0 1 6.67,6.67z" fill="#1e3a8a" id="svg_47"/>
  <path d="m291.19,167.89a6.67,6.67 0 1 1 -6.68,6.67a6.67,6.67 0 0 1 6.68,-6.67m0,-0.92a7.59,7.59 0 1 0 7.58,7.59a7.6,7.6 0 0 0 -7.58,-7.59z" fill="#231f20" id="svg_48"/>
  <path d="m294,100.44a9.47,9.47 0 1 1 -9.49,-9.44a9.44,9.44 0 0 1 9.49,9.44z" fill="#1e3a8a" id="svg_49" transform="matrix(1 0 0 1 0 0)"/>
  <path d="m284.51,91a9.47,9.47 0 1 1 -9.46,9.47a9.47,9.47 0 0 1 9.46,-9.47m0,-0.91a10.38,10.38 0 1 0 10.38,10.38a10.39,10.39 0 0 0 -10.38,-10.38z" fill="#231f20" id="svg_50"/>
  <path d="m161.31,69.63a11.87,11.87 0 1 1 -11.86,-11.86a11.81,11.81 0 0 1 11.86,11.86z" fill="#1e3a8a" id="svg_51" transform="matrix(1 0 0 1 0 0)"/>
  <path d="m149.45,57.77a11.86,11.86 0 1 1 -11.87,11.86a11.86,11.86 0 0 1 11.87,-11.86m0,-0.92a12.77,12.77 0 1 0 12.78,12.78a12.8,12.8 0 0 0 -12.78,-12.78z" fill="#231f20" id="svg_52"/>
  <path d="m225.46,120a19.32,19.32 0 1 1 -19.32,-19.31a19.27,19.27 0 0 1 19.32,19.31z" fill="#1e3a8a" id="svg_53" transform="matrix(1 0 0 1 0 0)"/>
  <path d="m206.14,100.73a19.31,19.31 0 1 1 -19.32,19.27a19.32,19.32 0 0 1 19.32,-19.31m0,-0.92a20.23,20.23 0 1 0 15.86,32.88a20,20 0 0 0 4.37,-12.65a20.25,20.25 0 0 0 -20.23,-20.23z" fill="#231f20" id="svg_54"/>
  <path d="m117.2,112.35a9.43,9.43 0 1 1 -9.43,-9.42a9.35,9.35 0 0 1 9.43,9.42z" fill="#1e3a8a" id="svg_55" transform="matrix(1 0 0 1 0 0)"/>
  <path d="m107.77,102.93a9.41,9.41 0 1 1 -9.42,9.42a9.42,9.42 0 0 1 9.42,-9.42m0,-0.92a10.34,10.34 0 1 0 10.34,10.34a10.35,10.35 0 0 0 -10.34,-10.35l0,0.01z" fill="#231f20" id="svg_56"/>
  <path d="m239.08,176.77a13.63,13.63 0 1 1 -13.62,-13.62a13.56,13.56 0 0 1 13.62,13.62z" fill="#1e3a8a" id="svg_57" transform="matrix(1 0 0 1 0 0)"/>
  <path d="m225.46,163.15a13.62,13.62 0 1 1 -13.63,13.62a13.62,13.62 0 0 1 13.63,-13.62m0,-0.92a14.54,14.54 0 1 0 11.37,23.6a14.4,14.4 0 0 0 3.17,-9.06a14.57,14.57 0 0 0 -14.54,-14.54z" fill="#231f20" id="svg_58"/>
 </g>
</svg>