<svg viewBox="0 0 1286.04 745.63" xmlns="http://www.w3.org/2000/svg" xmlns:xlink="http://www.w3.org/1999/xlink"><linearGradient id="a" gradientUnits="userSpaceOnUse" x1="1.32" x2="1254.6" y1="371.19" y2="371.19"><stop offset="0" stop-color="#c5e9fa"/><stop offset="1" stop-color="#c4f4ea"/></linearGradient><path d="m1218.18 449.46c-45.45 117.68-130.9 220.78-249.59 266.09a431.14 431.14 0 0 1 -47.21 14.95c-84.68 21.59-177.32 14.08-255.38-25.26-33.13-16.71-63.34-38.79-96.59-55.26s-71.22-27.25-107.41-19.12c-31.16 7-57.45 27.06-83.92 44.93-62.4 42.13-137.43 75.47-211.32 61-34-6.65-67.48-25.07-83.27-55.86-34.9-68.07 30.92-149 17.59-224.28-8.53-48.18-47.49-84.26-71.71-126.78-41.45-72.73-36.55-169.34 12.05-237.49s138.32-104.3 220.58-88.84c100.31 18.86 176.15 103.75 273.69 133.79 61 18.77 127.23 13.17 185.49-11.55 94.13-39.95 223.45-101.22 329.38-91.24 56.33 5.31 111.58 30.31 148.76 73 47 53.89 61.09 130.4 53.25 201.46a563.35 563.35 0 0 1 -34.39 140.46z" fill="url(#a)"/><g fill="#e7f6ff"><path d="m1248.42 542.54a26.24 26.24 0 0 1 -6.2-.75 25.94 25.94 0 1 1 6.2.75zm-.07-40.18a14.09 14.09 0 0 0 -3.29 27.78 14.08 14.08 0 1 0 6.64-27.37 14.16 14.16 0 0 0 -3.35-.42z"/><circle cx="1213.76" cy="567.4" r="11.33" transform="matrix(.235651 -.97183775 .97183775 .235651 376.29 1613.25)"/><path d="m55.19 540.07a26.1 26.1 0 1 1 1.14 0zm0-40.17h-.59a14.1 14.1 0 1 0 .62 0z"/><circle cx="36.08" cy="572.54" r="11.33" transform="matrix(.99907092 -.04309628 .04309628 .99907092 -24.62 2.08)"/><path d="m709.08 118.26a26.07 26.07 0 1 1 14.92-4.71 26.07 26.07 0 0 1 -14.92 4.71zm-.08-40.16a14.13 14.13 0 1 0 2.47.22 14.17 14.17 0 0 0 -2.47-.22z"/><circle cx="649.4" cy="107.59" r="11.33" transform="matrix(.81875141 -.57414817 .57414817 .81875141 55.91 392.32)"/></g><path d="m713.36 105.14h44.48v44.48h-44.48z" fill="none"/><path d="m713.36 105.14h44.48v44.48h-44.48z" fill="none"/><path d="m1286 252.66a41.46 41.46 0 0 0 -41.46-41.46c-.92 0-1.83 0-2.73.09.06-.9.09-1.81.09-2.73a41.46 41.46 0 1 0 -81.56 10.54 41.46 41.46 0 1 0 -32.61 74.19 41.46 41.46 0 0 0 68.84 13.94 41.46 41.46 0 0 0 62.66-15.8 41.47 41.47 0 0 0 26.77-38.77z" fill="#fff"/><path d="m191.45 153a41.46 41.46 0 0 0 -41.45-41.5c-.92 0-1.83 0-2.73.09.06-.9.09-1.81.09-2.73a41.46 41.46 0 1 0 -81.56 10.54 41.46 41.46 0 1 0 -32.61 74.19 41.46 41.46 0 0 0 68.81 13.94 41.46 41.46 0 0 0 62.66-15.8 41.47 41.47 0 0 0 26.79-38.73z" fill="#fff"/><path d="m954.18 742.93h-596.5v-13h596.5a6.5 6.5 0 1 1 0 13z" fill="#426572"/><path d="m331 742.93h-36.47a6.5 6.5 0 1 1 0-13h36.47a6.5 6.5 0 1 1 0 13z" fill="#426572"/><path d="m270.86 742.93h-11.62a6.5 6.5 0 0 1 0-13h11.62a6.5 6.5 0 0 1 0 13z" fill="#426572"/><path d="m1163.34 742.93h-183.34v-13h183.34a6.5 6.5 0 0 1 0 13z" fill="#426572"/><path d="m226 742.93h-183.35v-13h183.35a6.5 6.5 0 0 1 0 13z" fill="#426572"/><path d="m284.1 235.56h667.82a45.46 45.46 0 0 1 45.46 45.44v432.26a0 0 0 0 1 0 0h-758.74a0 0 0 0 1 0 0v-432.26a45.46 45.46 0 0 1 45.46-45.44z" fill="#ebf0f9"/><path d="m268.02 268.71h702.99v401.6h-702.99z" fill="#637f91"/><path d="m262.75 669.56h711.25a0 0 0 0 1 0 0 12.06 12.06 0 0 1 -12 12.06h-687.2a12.06 12.06 0 0 1 -12.06-12.06 0 0 0 0 1 0 0z" fill="#fff"/><g fill="#a7bcd5" opacity=".5"><path d="m478.09 267.21-105.11 405.36h-52.93l105.11-405.36z"/><path d="m613 267.21-105.1 405.36h-111l105.11-405.36z"/></g><path d="m1003.38 719.26h-770.74v-457.64a32.1 32.1 0 0 1 32.06-32.06h706.62a32.1 32.1 0 0 1 32.06 32.06zm-758.74-12h746.74v-445.64a20.08 20.08 0 0 0 -20.06-20.06h-706.62a20.08 20.08 0 0 0 -20.06 20.06z" fill="#426572"/><path d="m142.95 698.95h970.47a0 0 0 0 1 0 0v3.19a39 39 0 0 1 -39 39h-892.47a39 39 0 0 1 -39-39v-3.19a0 0 0 0 1 0 0z" fill="#ebf0f9"/><path d="m1108.45 719.29a29.39 29.39 0 0 1 -27.45 18.84h-911.68a29.39 29.39 0 0 1 -27.43-18.84z" fill="#a7bcd5" opacity=".5"/><path d="m1069.89 745.63h-892.47a45.05 45.05 0 0 1 -45-45v-9.19h982.47v9.19a45.05 45.05 0 0 1 -45 45zm-925.35-42.19a33 33 0 0 0 32.88 30.19h892.47a33 33 0 0 0 32.88-30.19z" fill="#426572"/><path d="m975.5 674.05h-715v-411.34h715zm-703-12h691v-387.34h-691z" fill="#426572"/><path d="m863.55 139.79v528.26h-479.21v-528.26a9.07 9.07 0 0 1 9-9h461.17a8.88 8.88 0 0 1 1.62.15 9.07 9.07 0 0 1 7.42 8.85z" fill="#fff"/><path d="m391.88 174.45h473.18v-31.78l-9.05-11.92h-414.4-40.69l-15.07 11.92v31.78z" fill="#e2f2ff"/><path d="m871.05 674.05h-491.2v-534.26a15.06 15.06 0 0 1 15-15h461.15a15.06 15.06 0 0 1 15 15zm-479.21-12h467.21v-522.26a3.08 3.08 0 0 0 -3-3h-461.16a3.08 3.08 0 0 0 -3 3z" fill="#426572"/><rect fill="#cadce8" height="12.06" rx="6.03" width="433.6" x="408.01" y="149.27"/><path d="m311.22 639.44h-143.06a14 14 0 0 1 -6.75-1.68c-3-1.64-4.92-4.33-4.92-7.36l.08-196.66a7.24 7.24 0 0 1 1-3.66c1.82-3.16 5.93-5.38 10.67-5.38h143.06c5 0 9.21 2.42 10.89 5.8a7.13 7.13 0 0 1 .78 3.23l-.07 196.67c0 4.54-4.39 8.33-10.06 8.95a14.3 14.3 0 0 1 -1.62.09z" fill="#fff"/><path d="m315.11 637.93-143.11-.03a14 14 0 0 1 -6.75-1.68c-3-1.64-4.92-4.33-4.92-7.36l.08-196.66a7.24 7.24 0 0 1 1-3.66c1.82-3.16 5.93-5.38 10.67-5.38h1.95l-.03 193.64c0 3 1.94 5.72 4.92 7.36a14 14 0 0 0 6.75 1.68h141.12v3c0 4.54-4.39 8.33-10.06 8.95a14.31 14.31 0 0 1 -1.62.14z" fill="#d6dee9"/><path d="m313.16 643.93h-143.07a20 20 0 0 1 -9.66-2.43c-5-2.77-8-7.49-8-12.61l.08-196.66a13.34 13.34 0 0 1 1.83-6.67c3-5.15 9-8.36 15.85-8.36h143.07c7 0 13.25 3.45 16.09 8.81l.8 1.23v.56a13 13 0 0 1 .78 4.45l-.08 196.65c0 7.54-6.63 14-15.41 14.91a20.2 20.2 0 0 1 -2.28.12zm-143-214.78c-2.69 0-4.79 1.19-5.46 2.37a1.29 1.29 0 0 0 -.21.67l-.08 196.65c0 .66.73 1.5 1.82 2.11a8.08 8.08 0 0 0 3.86.94h143.06a8.07 8.07 0 0 0 .94-.05c3-.32 4.74-2 4.74-3l.08-196.66a1 1 0 0 0 -.06-.35l-.56-.86a7.12 7.12 0 0 0 -5.06-1.83h-143.07z" fill="#426572"/><path d="m199.64 509.8h97.02v12h-97.02z" fill="#426572"/><path d="m199.64 484.76h97.02v12h-97.02z" fill="#426572"/><path d="m199.64 538.17h97.02v12h-97.02z" fill="#426572"/><path d="m1072 284a111.31 111.31 0 1 0 -199.1-99.42 111.33 111.33 0 0 0 89.46 163.31q-4.82 1.14-9.79 1.85a111.31 111.31 0 0 0 95.87-32.76 111.57 111.57 0 0 0 23.56-32.98z" fill="#606060" opacity=".2"/><circle cx="958.76" cy="210.6" fill="#a8ef9e" r="111.3"/><path d="m1064.75 218.55a111.31 111.31 0 0 1 -127.19 110.15 111.3 111.3 0 0 0 0-220.31 111.31 111.31 0 0 1 127.2 110.16z" fill="#a7e59c"/><path d="m956.11 333.19a117.3 117.3 0 1 1 117.3-117.3 117.43 117.43 0 0 1 -117.3 117.3zm0-222.59a105.3 105.3 0 1 0 105.3 105.3 105.41 105.41 0 0 0 -105.3-105.3z" fill="#426572"/><path d="m703 499.09h-153.57a37.28 37.28 0 0 1 -37.24-37.24v-209.47a37.28 37.28 0 0 1 37.24-37.24h153.57a37.28 37.28 0 0 1 37.24 37.24v209.47a37.28 37.28 0 0 1 -37.24 37.24zm-144.3-46.55h135v-190.85h-135z" fill="#fbc907"/><path d="m740.53 329.19v142a37.28 37.28 0 0 1 -37.24 37.24h-153.62a37.28 37.28 0 0 1 -37.24-37.24v-142h46.57v132.66h135v-132.66z" fill="#f3a70f" opacity=".6"/><path d="m703 510.91h-153.57a43.29 43.29 0 0 1 -43.24-43.24v-209.47a43.29 43.29 0 0 1 43.24-43.2h153.57a43.29 43.29 0 0 1 43.24 43.24v209.43a43.29 43.29 0 0 1 -43.24 43.24zm-153.57-283.91a31.28 31.28 0 0 0 -31.24 31.24v209.43a31.27 31.27 0 0 0 31.24 31.24h153.57a31.27 31.27 0 0 0 31.24-31.24v-209.47a31.28 31.28 0 0 0 -31.24-31.2zm150.3 237.4h-147v-202.89h147zm-135-12h123v-178.89h-123z" fill="#426572"/><rect fill="#fbc907" height="257.64" rx="12" width="287.65" x="481.24" y="355.13"/><path d="m771.23 368.88v230.88a13.42 13.42 0 0 1 -13.38 13.38h-128.13v-257.64h128.13a13.42 13.42 0 0 1 13.38 13.38z" fill="#f3a70f" opacity=".6"/><path d="m756.89 616.27h-263.65a18 18 0 0 1 -18-18v-233.64a18 18 0 0 1 18-18h263.65a18 18 0 0 1 18 18v233.64a18 18 0 0 1 -18 18zm-263.65-257.64a6 6 0 0 0 -6 6v233.64a6 6 0 0 0 6 6h263.65a6 6 0 0 0 6-6v-233.64a6 6 0 0 0 -6-6z" fill="#426572"/><path d="m1014.33 173.38a10.64 10.64 0 0 0 -14.27 3.74l-19.27 31.5-30.79 50.28-.86 1.41-35.55-28.44-6.48-5.18c-4.25-3.4-10.66-4.47-14.75 0-3.48 3.79-4.55 11.11 0 14.75l45.71 36.56 6.48 5.18c2.69 2.16 5.25 3.34 8.76 2.87a10.3 10.3 0 0 0 7.62-5l19.27-31.5 30.8-50.27 7.11-11.62c2.81-4.66 1.13-11.66-3.78-14.28z" fill="#fff"/></svg>