<svg height="297mm" viewBox="0 0 744.09448819 1052.3622047" width="210mm" xmlns="http://www.w3.org/2000/svg" xmlns:xlink="http://www.w3.org/1999/xlink"><linearGradient id="a" gradientUnits="userSpaceOnUse" x1="229.358551" x2="556.59853" y1="722.36219" y2="340.542199"><stop offset="0" stop-color="#4e505d"/><stop offset="1" stop-color="#7a859c"/></linearGradient><path d="m192.99855 322.3622h400.00146v399.99998h-400.00146z" fill="none"/><path d="m227.65234 336.36133c-11.47667 0-20.71679 9.24012-20.71679 20.71679v62.14649c0 11.47667 9.24012 20.7168 20.71679 20.7168h19.88477v30.85742h-19.50977c-11.47667 0-20.71679 9.24013-20.71679 20.71679v19.77735c1.41172-.54906 2.84303-1.08534 4.3125-1.59961 19.54503-6.8402 44.43357-10.57029 71.91601-10.57031h.008c24.81629.0103 47.73493 3.11336 66.42968 8.81445 18.6933 5.70065 35.12839 12.31014 42.3418 30.42383l.002.004c.69997 1.75774 1.22264 3.64474 1.5918 5.59375.17254.81555.25018 1.65388.35351 2.48829 12.58972-16.5116 29.13569-29.48838 48.80079-37.92774v.002c14.83514-6.36807 30.61691-9.64648 46.88281-9.64648 16.29009 0 32.04733 3.31275 46.85351 9.63086 16.28613 6.94978 30.40889 16.91972 41.88672 29.40625v-46.39649c0-11.47667-9.24012-20.71679-20.71679-20.71679h-19.55469v-30.85742h19.17969c11.47667 0 20.71679-9.24013 20.71679-20.7168v-62.14649c0-11.47667-9.24012-20.71679-20.71679-20.71679zm43.56641 103.58008h243.51953v30.85742h-243.51953zm12.3125 94.18164c-24.16927.00081-46.04317 3.59931-60.34766 8.60547-6.38607 2.23494-10.8719 4.72957-13.48437 6.625 2.61243 1.89547 7.09946 4.39384 13.48633 6.6289 14.30613 5.00638 36.18148 8.6035 60.35351 8.60352 24.17221.00007 46.04748-3.59715 60.35352-8.60352 6.03387-2.11154 10.24409-4.4251 12.9414-6.28515-3.08936-2.15706-8.51994-5.67495-17.0664-8.28125-14.29943-4.36071-34.42247-7.28297-56.22852-7.29297zm-53.7207 70.67578c14.02089 3.90401 33.02118 6.54611 53.71875 6.54687 20.70145.00006 39.70222-2.6439 53.72265-6.54687h-6.77343c-14.42267 2.64267-30.18824 4.04687-46.93946 4.04687-16.75597 0-32.52712-1.40304-46.95312-4.04687zm120.11523 42.21289c-19.23466 5.55725-41.75022 8.59375-66.39648 8.59375-24.64042 0-47.15106-3.03518-66.38282-8.58985 1.9222.87886 3.73017 1.76928 6.1211 2.60352 14.30852 4.99249 36.14362 8.57529 60.26172 8.57617 24.17221.00007 46.04747-3.59714 60.35351-8.60351 2.36304-.82694 4.14028-1.70939 6.04297-2.58008zm44.4375 45.33203c-.58274 6.12352-3.05933 11.52098-6.39258 16.03516h21.09766c-5.36259-4.88539-10.28231-10.23886-14.70508-16.03516zm-175.8789 1.91211c1.56143.67544 2.85702 1.36002 4.6914 2.00195 14.30614 5.00639 36.18149 8.6035 60.35352 8.60352 24.17202-.00002 46.04796-3.59719 60.35351-8.60352 1.83431-.64193 3.13004-1.32652 4.69141-2.00195-18.9425 5.30337-40.97749 8.19922-65.04492 8.19922-24.06744 0-46.10243-2.89585-65.04492-8.19922z" fill="url(#a)"/><rect fill="#fff" height="21" ry="10.5" width="78.903175" x="226.99855" y="396.36224"/><path d="m192.99855 322.3622h400.00146v399.99998h-400.00146z" fill="none"/><path d="m190 322.3622h400.00146v399.99998h-400.00146z" fill="none"/><g fill="#99b000"><path d="m584.77804 579.25367c-10.86009-25.33318-29.31477-43.75723-54.84537-54.65191-12.76044-5.44515-26.01594-8.22649-39.98267-8.22649-13.96403 0-27.23404 2.75507-39.98032 8.22649-25.31889 10.86571-43.96845 29.278-54.84773 54.65191-5.45157 12.71223-8.10888 26.03024-8.10888 40.0019 0 13.97443 2.65731 27.40285 8.10888 40.11771 10.87928 25.37396 29.52849 43.89666 54.84773 54.76505 12.74628 5.47145 26.01596 8.22387 39.98032 8.22387 13.96673 0 27.22223-2.78137 39.98267-8.22387 25.53095-10.89494 43.98561-29.43427 54.84537-54.76505 5.46842-12.75565 8.22197-26.14328 8.22197-40.11771 0-13.97166-2.75355-27.24661-8.22197-40.0019zm-129.06597-43.72119c-8.89715 11.26745-15.42748 25.57828-19.59602 42.93246h-26.91665c9.9106-19.27003 26.58041-34.70833 46.51267-42.93246zm-56.19808 83.72309c0-9.8032 1.57619-19.26762 4.61789-28.39565h29.50696c-1.46344 9.57722-2.14065 19.04441-2.14065 28.39565 0 9.24083.67752 18.59509 2.14065 28.17244h-29.73283c-2.92859-9.12803-4.39202-18.59246-4.39202-28.17244zm9.68541 40.56729h26.91699c4.16855 17.69066 10.6992 32.22746 19.59603 43.38439-20.27154-8.45235-36.94103-23.89042-46.51302-43.38439zm74.44375 49.01712c-7.32094-2.13981-14.19018-7.54857-20.38394-16.33745-6.19407-8.79127-10.92471-19.71996-14.19022-32.67967h34.57416zm0-61.41197h-37.39031c-1.46547-10.02955-2.25375-19.38357-2.25375-28.17244 0-9.46442.78795-18.93123 2.47959-28.39565h37.16416v56.56809zm0-68.96281h-34.57416c3.49101-12.84684 8.24824-23.64555 14.41607-32.3408 6.22033-8.77206 12.83749-14.19801 20.15844-16.22702v48.56782zm87.17084 0h-26.91728c-4.16621-17.35444-10.69888-31.66527-19.59603-42.93238 19.93496 8.22379 36.60239 23.66209 46.51331 42.93238zm-74.44407-48.56782c7.32096 2.02901 13.93779 7.45496 20.15846 16.22702 6.16985 8.69525 10.9247 19.49396 14.41571 32.3408h-34.57417zm0 60.96254h37.16416c1.69129 9.46442 2.47958 18.93123 2.47958 28.39565 0 8.78926-.78829 18.14289-2.25375 28.17244h-37.38999v-56.5681zm0 117.98006v-49.01712h34.57417c-3.37792 12.95971-8.17115 23.84498-14.30297 32.67967-6.14595 8.85623-12.83748 14.31081-20.2712 16.33745zm27.93108-5.63273c8.89715-11.15693 15.42986-25.69373 19.59604-43.38439h26.91731c-9.57234 19.49397-26.24247 34.93204-46.51335 43.38439zm51.80606-55.77924h-29.73281c1.46548-9.5776 2.14066-18.93161 2.14066-28.17244 0-9.35124-.67518-18.81805-2.14066-28.39565h29.50698c3.04166 9.12766 4.61786 18.59206 4.61786 28.39565-.00033 9.57998-1.46311 19.04441-4.39203 28.17244z"/><path d="m283.53853 516.62313c-51.6549.00004-93.52919 14.65461-93.52847 32.73175.00081 18.07676 41.87469 32.7307 93.52847 32.73074 51.65416.00016 93.5286-14.65385 93.52946-32.73074-.037-.6663-.13217-1.33205-.28533-1.99631-.14741-.84321-.38805-1.68408-.72137-2.52077-6.43385-16.16095-45.89735-28.19527-92.52276-28.21467zm-93.52847 51.33959v28.25084c.15748 18.03651 41.97935 32.62937 93.51842 32.63127 51.65416.00015 93.5286-14.65386 93.52946-32.73074v-4.67684 4.67683 18.60783c-.47392.43278-.95426.8586-1.44775 1.26692-6.0093 4.97208-13.73216 8.80492-22.88781 12.00904-18.31131 6.40822-42.49106 10.10717-69.1939 10.10717s-50.88158-3.69895-69.1929-10.10717c-9.15566-3.20412-16.8785-7.03696-22.88781-12.00904-.49002-.40545-.96703-.82823-1.43771-1.25787v28.33321c.15748 18.03653 41.97935 32.62939 93.51842 32.63128 51.65416.00015 93.5286-14.65385 93.52946-32.73073v-4.67684 4.67683 18.60782c-.47392.43278-.95426.85861-1.44775 1.26691-6.0093 4.97209-13.73216 8.80493-22.88781 12.00905-18.31131 6.40823-42.49106 10.10716-69.1939 10.10716s-50.88158-3.69893-69.1929-10.10716c-9.15566-3.20412-16.8785-7.03696-22.88781-12.00905-.49002-.40543-.96703-.82822-1.43771-1.25786v27.97956c-.003.0234-.007.0469-.0101.0703.00082 18.07675 41.8747 32.7307 93.52846 32.73074 51.65377-.00004 93.5276-14.65399 93.52846-32.73074h.0111v-121.66878c-.47392.43278-.95427.8586-1.44776 1.26691-6.0093 4.97208-13.73216 8.80493-22.88781 12.00904-18.31131 6.40825-42.49107 10.10719-69.1939 10.10719-26.70284 0-50.88159-3.69894-69.1929-10.10717-9.15566-3.20411-16.87851-7.03695-22.88781-12.00903-.49348-.40832-.97384-.83415-1.44775-1.26692z"/></g></svg>